<?xml version="1.0" encoding="utf-8"?>
<!-- Generator: Adobe Illustrator 25.4.1, SVG Export Plug-In . SVG Version: 6.00 Build 0)  -->
<svg version="1.1" id="Capa_1" xmlns="http://www.w3.org/2000/svg" xmlns:xlink="http://www.w3.org/1999/xlink" x="0px" y="0px"
	 viewBox="0 0 532.6 456.2" style="enable-background:new 0 0 532.6 456.2;" xml:space="preserve">
<style type="text/css">
	.st0{fill:#2B2E34;}
	.st1{enable-background:new    ;}
	.st2{fill:#FF6429;}
	.st3{fill:none;stroke:#FF6429;stroke-width:0.75;stroke-linecap:round;stroke-linejoin:round;}
	.st4{fill:#FFC000;}
	.st5{fill:#002945;}
	.st6{fill:#6F7075;}
	.st7{fill:#5C5A56;}
	.st8{fill:none;stroke:#D7D6D3;stroke-width:0.25;stroke-linejoin:round;stroke-miterlimit:10;}
</style>
<g id="Grupo_2044" transform="translate(-1171.277 -4244.136)">
	<path id="Trazado_2098" class="st0" d="M1183.2,4245c1.3,0,2.5,0.3,3.6,0.8c1,0.5,1.8,1.4,2.4,2.4c0.6,1.1,0.9,2.3,0.8,3.5
		c0,1.2-0.3,2.4-0.9,3.4c-0.6,1-1.4,1.8-2.5,2.3c-1.1,0.6-2.4,0.8-3.7,0.8h-4.4c-0.1,0-0.1,0-0.2,0.1c0,0,0,0,0,0v7.9
		c0,0.1,0,0.2-0.1,0.3c-0.1,0.1-0.2,0.1-0.3,0.1h-3.6c-0.1,0-0.2,0-0.3-0.1c-0.1-0.1-0.1-0.2-0.1-0.3v-21c0-0.1,0-0.2,0.1-0.3
		c0.1-0.1,0.2-0.1,0.3-0.1L1183.2,4245z M1182.5,4254.8c0.8,0,1.7-0.3,2.3-0.8c0.6-0.6,0.9-1.3,0.9-2.2c0-0.8-0.3-1.6-0.9-2.2
		c-0.6-0.6-1.4-0.9-2.3-0.8h-3.9c-0.1,0-0.1,0-0.2,0.1c0,0,0,0,0,0v5.7c0,0.1,0,0.1,0.1,0.2c0,0,0,0,0,0L1182.5,4254.8z
		 M1200.9,4250.6c0.6,0,1.2,0.1,1.8,0.4c0.2,0.1,0.2,0.3,0.2,0.5l-0.7,3.5c0,0.2-0.2,0.3-0.4,0.2c-0.4-0.1-0.7-0.2-1.1-0.2
		c-0.2,0-0.5,0-0.7,0.1c-0.7,0-1.4,0.3-1.9,0.8c-0.5,0.5-0.8,1.2-0.8,1.9v8.5c0,0.1,0,0.2-0.1,0.3c-0.1,0.1-0.2,0.1-0.3,0.1h-3.6
		c-0.1,0-0.2,0-0.3-0.1c-0.1-0.1-0.1-0.2-0.1-0.3v-15.2c0-0.1,0-0.2,0.1-0.3c0.1-0.1,0.2-0.1,0.3-0.1h3.6c0.1,0,0.2,0,0.3,0.1
		c0.1,0.1,0.1,0.2,0.1,0.3v1.2c0,0,0,0.1,0.1,0.1c0,0,0.1,0,0.1,0c0,0,0,0,0,0C1198.2,4251.3,1199.5,4250.6,1200.9,4250.6
		L1200.9,4250.6z M1212,4267c-1.6,0-3.2-0.4-4.5-1.4c-1.2-0.9-2.1-2.2-2.5-3.7c-0.3-1-0.4-2.1-0.4-3.2c0-1.1,0.1-2.2,0.4-3.3
		c0.4-1.5,1.3-2.7,2.6-3.6c1.3-0.9,2.9-1.3,4.5-1.3c1.5,0,3.1,0.4,4.3,1.3c1.2,0.9,2.1,2.1,2.5,3.6c0.3,1.1,0.5,2.2,0.5,3.3
		c0,1.1-0.1,2.1-0.4,3.1c-0.4,1.5-1.3,2.9-2.5,3.8C1215.2,4266.6,1213.6,4267.1,1212,4267z M1212,4263.3c0.6,0,1.3-0.2,1.7-0.6
		c0.5-0.5,0.9-1,1-1.7c0.2-0.7,0.3-1.4,0.2-2.2c0-0.7-0.1-1.5-0.2-2.2c-0.2-0.6-0.6-1.2-1.1-1.6c-0.5-0.4-1.1-0.6-1.7-0.6
		c-0.6,0-1.3,0.2-1.8,0.6c-0.5,0.4-0.8,1-1,1.6c-0.2,0.7-0.3,1.5-0.2,2.2c0,0.7,0.1,1.5,0.2,2.2c0.2,0.7,0.5,1.2,1,1.7
		C1210.7,4263.1,1211.4,4263.3,1212,4263.3L1212,4263.3z M1240.4,4250.6c1.4-0.1,2.8,0.5,3.8,1.5c1,1.1,1.5,2.6,1.4,4.1v10.3
		c0,0.1,0,0.2-0.1,0.3c-0.1,0.1-0.2,0.1-0.3,0.1h-3.6c-0.1,0-0.2,0-0.3-0.1c-0.1-0.1-0.1-0.2-0.1-0.3v-9.3c0-0.7-0.2-1.4-0.7-2
		c-0.4-0.5-1.1-0.8-1.7-0.7c-0.7,0-1.3,0.2-1.8,0.7c-0.5,0.5-0.7,1.3-0.7,2v9.3c0,0.1,0,0.2-0.1,0.3c-0.1,0.1-0.2,0.1-0.3,0.1h-3.6
		c-0.1,0-0.2,0-0.3-0.1c-0.1-0.1-0.1-0.2-0.1-0.3v-9.3c0-0.7-0.2-1.4-0.7-2c-0.4-0.5-1.1-0.8-1.8-0.8c-0.6,0-1.2,0.2-1.7,0.6
		c-0.5,0.4-0.7,1-0.8,1.6v9.8c0,0.1,0,0.2-0.1,0.3c-0.1,0.1-0.2,0.1-0.3,0.1h-3.6c-0.1,0-0.2,0-0.3-0.1c-0.1-0.1-0.1-0.2-0.1-0.3
		v-15.2c0-0.1,0-0.2,0.1-0.3c0.1-0.1,0.2-0.1,0.3-0.1h3.6c0.1,0,0.2,0,0.3,0.1c0.1,0.1,0.1,0.2,0.1,0.3v1.2c0,0.1,0,0.1,0.1,0.1
		c0,0,0.1,0,0.1-0.1c0.9-1.3,2.4-2,3.9-1.9c0.9,0,1.9,0.2,2.7,0.7c0.8,0.4,1.4,1.1,1.8,1.9c0.1,0.1,0.1,0.1,0.2,0
		c0.4-0.8,1.1-1.5,1.8-1.9C1238.6,4250.8,1239.5,4250.6,1240.4,4250.6z M1263.2,4257.2c0.1,0.9,0.2,1.8,0.1,2.6
		c0,0.2-0.1,0.4-0.3,0.4c0,0,0,0-0.1,0h-9.6c-0.1,0-0.2,0.1-0.1,0.2c0.1,0.4,0.2,0.8,0.3,1.2c0.6,1.2,1.9,1.9,3.3,1.7
		c1.2,0,2.4-0.6,3.1-1.6c0.1-0.1,0.2-0.2,0.3-0.2c0.1,0,0.2,0.1,0.2,0.1l2.2,2.2c0.1,0.1,0.1,0.2,0.2,0.3c0,0.1-0.1,0.2-0.1,0.2
		c-0.7,0.9-1.6,1.5-2.6,2c-1.1,0.5-2.3,0.7-3.5,0.7c-1.6,0.1-3.2-0.4-4.5-1.2c-1.2-0.8-2.2-2-2.7-3.4c-0.5-1.3-0.7-2.7-0.7-4.1
		c0-1,0.1-2,0.5-3c0.4-1.4,1.3-2.6,2.5-3.5c1.2-0.9,2.7-1.3,4.2-1.3c1.8-0.1,3.6,0.6,5,1.8C1262.2,4253.6,1263,4255.3,1263.2,4257.2
		z M1256,4254.3c-1.2-0.1-2.3,0.7-2.6,1.8c-0.1,0.3-0.2,0.7-0.2,1c0,0.1,0,0.1,0.1,0.2c0,0,0,0,0,0h5.4c0.1,0,0.2-0.1,0.1-0.2
		c-0.1-0.6-0.2-0.9-0.2-0.9c-0.2-0.6-0.5-1.1-1-1.4C1257.2,4254.5,1256.6,4254.3,1256,4254.3z M1276.4,4245.4c0-0.1,0-0.2,0.1-0.3
		c0.1-0.1,0.2-0.1,0.3-0.1h3.6c0.1,0,0.2,0,0.3,0.1c0.1,0.1,0.1,0.2,0.1,0.3v21c0,0.1,0,0.2-0.1,0.3c-0.1,0.1-0.2,0.1-0.3,0.1h-3.6
		c-0.1,0-0.2,0-0.3-0.1c-0.1-0.1-0.1-0.2-0.1-0.3v-1c0-0.1,0-0.1-0.1-0.1c0,0-0.1,0-0.1,0c-0.8,1.1-2.2,1.8-3.6,1.7
		c-1.3,0-2.7-0.4-3.7-1.2c-1.1-0.8-1.9-2-2.2-3.3c-0.4-1.2-0.5-2.5-0.5-3.8c0-1.3,0.2-2.6,0.6-3.8c0.4-1.2,1.2-2.3,2.2-3.1
		c1.1-0.8,2.4-1.2,3.8-1.2c1.3-0.1,2.6,0.5,3.5,1.6c0,0.1,0.1,0.1,0.1,0.1c0,0,0.1-0.1,0.1-0.1L1276.4,4245.4z M1275.8,4261.9
		c0.5-1,0.7-2.1,0.6-3.1c0.1-1.1-0.2-2.2-0.7-3.3c-0.4-0.8-1.2-1.2-2.1-1.2c-0.9,0-1.7,0.4-2.2,1.2c-0.6,1-0.8,2.1-0.8,3.3
		c0,1.1,0.2,2.1,0.7,3.1c0.4,0.8,1.3,1.4,2.3,1.3C1274.5,4263.3,1275.4,4262.8,1275.8,4261.9L1275.8,4261.9z M1287,4249
		c-0.7,0-1.3-0.2-1.8-0.7c-0.5-0.5-0.7-1.1-0.7-1.8c0-0.7,0.2-1.3,0.7-1.8c0.5-0.5,1.1-0.7,1.8-0.7c0.7,0,1.3,0.2,1.8,0.7
		c0.5,0.5,0.7,1.1,0.7,1.8c0,0.7-0.2,1.3-0.7,1.8C1288.2,4248.8,1287.6,4249,1287,4249L1287,4249z M1285.1,4266.8
		c-0.1,0-0.2,0-0.3-0.1c-0.1-0.1-0.1-0.2-0.1-0.3v-15.2c0-0.1,0-0.2,0.1-0.3c0.1-0.1,0.2-0.1,0.3-0.1h3.6c0.1,0,0.2,0,0.3,0.1
		c0.1,0.1,0.1,0.2,0.1,0.3v15.2c0,0.1,0,0.2-0.1,0.3c-0.1,0.1-0.2,0.1-0.3,0.1H1285.1z M1300.1,4267c-1.6,0-3.2-0.4-4.5-1.4
		c-1.2-0.9-2.1-2.2-2.5-3.7c-0.3-1-0.4-2.1-0.4-3.2c0-1.1,0.1-2.2,0.4-3.3c0.4-1.5,1.3-2.7,2.6-3.6c1.3-0.9,2.9-1.3,4.5-1.3
		c1.5,0,3.1,0.4,4.3,1.3c1.2,0.9,2.1,2.1,2.5,3.6c0.3,1.1,0.5,2.2,0.5,3.3c0,1.1-0.1,2.1-0.4,3.1c-0.4,1.5-1.3,2.9-2.5,3.8
		C1303.2,4266.6,1301.7,4267.1,1300.1,4267z M1300.1,4263.3c0.6,0,1.3-0.2,1.7-0.6c0.5-0.5,0.9-1,1-1.7c0.2-0.7,0.3-1.4,0.2-2.2
		c0-0.7-0.1-1.5-0.2-2.2c-0.2-0.6-0.6-1.2-1.1-1.6c-0.5-0.4-1.1-0.6-1.7-0.6c-0.6,0-1.3,0.2-1.8,0.6c-0.5,0.4-0.8,1-1,1.6
		c-0.2,0.7-0.3,1.5-0.2,2.2c0,0.7,0.1,1.5,0.2,2.2c0.2,0.7,0.5,1.2,1,1.7C1298.8,4263.1,1299.4,4263.3,1300.1,4263.3L1300.1,4263.3z
		 M1327.3,4251.2c0-0.1,0-0.2,0.1-0.3c0.1-0.1,0.2-0.1,0.3-0.1h3.6c0.1,0,0.2,0,0.3,0.1c0.1,0.1,0.1,0.2,0.1,0.3v14.1
		c0,2.7-0.8,4.6-2.3,5.8c-1.8,1.2-3.9,1.8-6,1.7c-0.8,0-1.6-0.1-2.4-0.2c-0.2,0-0.3-0.2-0.3-0.4l0.1-3.2c0-0.3,0.1-0.4,0.4-0.3
		c0.7,0.1,1.4,0.2,2,0.2c1.1,0.1,2.2-0.2,3.1-0.9c0.8-0.7,1.2-1.7,1.1-2.8c0-0.1,0-0.1-0.1-0.1c0,0-0.1,0-0.1,0
		c-0.9,0.9-2.2,1.4-3.4,1.3c-1.3,0-2.6-0.3-3.7-1c-1.2-0.7-2-1.8-2.4-3.1c-0.3-1.2-0.5-2.4-0.5-3.7c0-1.3,0.1-2.7,0.5-3.9
		c0.4-1.2,1.2-2.3,2.2-3c1-0.8,2.3-1.2,3.6-1.1c1.4-0.1,2.7,0.4,3.7,1.4c0,0,0.1,0.1,0.1,0c0,0,0.1,0,0.1-0.1L1327.3,4251.2z
		 M1327,4261.2c0.2-0.8,0.3-1.7,0.2-2.5c0-0.5,0-1-0.1-1.5c0-0.3-0.1-0.7-0.2-1c-0.2-0.5-0.5-1-0.9-1.3c-0.5-0.4-1-0.5-1.6-0.5
		c-0.6,0-1.1,0.2-1.6,0.5c-0.4,0.4-0.8,0.8-1,1.3c-0.3,0.8-0.5,1.7-0.4,2.5c-0.1,0.8,0.1,1.7,0.4,2.5c0.2,0.5,0.5,1,1,1.3
		c0.5,0.3,1.1,0.5,1.7,0.5c0.6,0,1.2-0.2,1.6-0.5C1326.6,4262.2,1326.9,4261.7,1327,4261.2z M1349.4,4257.2c0.1,0.9,0.2,1.8,0.1,2.6
		c0,0.2-0.1,0.4-0.3,0.4c0,0,0,0-0.1,0h-9.6c-0.1,0-0.2,0.1-0.1,0.2c0.1,0.4,0.2,0.8,0.3,1.2c0.6,1.2,1.9,1.9,3.3,1.7
		c1.2,0,2.4-0.6,3.1-1.6c0.1-0.1,0.2-0.2,0.3-0.2c0.1,0,0.2,0.1,0.2,0.1l2.2,2.2c0.1,0.1,0.1,0.2,0.2,0.3c0,0.1-0.1,0.2-0.1,0.2
		c-0.7,0.9-1.6,1.5-2.6,2c-1.1,0.5-2.3,0.7-3.5,0.7c-1.6,0.1-3.2-0.4-4.5-1.2c-1.2-0.8-2.2-2-2.7-3.4c-0.5-1.3-0.7-2.7-0.7-4.1
		c0-1,0.1-2,0.5-3c0.4-1.4,1.3-2.6,2.5-3.5c1.2-0.9,2.7-1.3,4.2-1.3c1.8-0.1,3.6,0.6,5,1.8
		C1348.4,4253.6,1349.2,4255.3,1349.4,4257.2z M1342.2,4254.3c-1.2-0.1-2.3,0.7-2.6,1.8c-0.1,0.3-0.2,0.7-0.2,1c0,0.1,0,0.1,0.1,0.2
		c0,0,0,0,0,0h5.4c0.1,0,0.2-0.1,0.1-0.2c-0.1-0.6-0.2-0.9-0.2-0.9c-0.2-0.6-0.5-1.1-1-1.4
		C1343.4,4254.5,1342.8,4254.3,1342.2,4254.3L1342.2,4254.3z M1361.1,4250.6c1.5-0.1,2.9,0.5,4,1.5c1,1.1,1.6,2.6,1.5,4.1v10.2
		c0,0.1,0,0.2-0.1,0.3c-0.1,0.1-0.2,0.1-0.3,0.1h-3.6c-0.1,0-0.2,0-0.3-0.1c-0.1-0.1-0.1-0.2-0.1-0.3v-9.3c0-0.7-0.2-1.5-0.7-2
		c-0.5-0.5-1.1-0.8-1.8-0.8c-0.7,0-1.4,0.3-1.8,0.8c-0.5,0.6-0.7,1.3-0.7,2v9.3c0,0.1,0,0.2-0.1,0.3c-0.1,0.1-0.2,0.1-0.3,0.1h-3.6
		c-0.1,0-0.2,0-0.3-0.1c-0.1-0.1-0.1-0.2-0.1-0.3v-15.2c0-0.1,0-0.2,0.1-0.3c0.1-0.1,0.2-0.1,0.3-0.1h3.6c0.1,0,0.2,0,0.3,0.1
		c0.1,0.1,0.1,0.2,0.1,0.3v1.1c0,0.1,0,0.1,0.1,0.1c0,0,0.1,0,0.1,0c0,0,0,0,0,0C1358.2,4251.2,1359.6,4250.5,1361.1,4250.6
		L1361.1,4250.6z M1384.3,4257.2c0.1,0.9,0.2,1.8,0.1,2.6c0,0.2-0.1,0.4-0.3,0.4c0,0,0,0-0.1,0h-9.6c-0.1,0-0.2,0.1-0.1,0.2
		c0.1,0.4,0.2,0.8,0.3,1.2c0.6,1.2,1.9,1.9,3.3,1.7c1.2,0,2.4-0.6,3.1-1.6c0.1-0.1,0.2-0.2,0.3-0.2c0.1,0,0.2,0.1,0.2,0.1l2.2,2.2
		c0.1,0.1,0.1,0.2,0.2,0.3c0,0.1-0.1,0.2-0.1,0.2c-0.7,0.9-1.6,1.5-2.6,2c-1.1,0.5-2.3,0.7-3.5,0.7c-1.6,0.1-3.2-0.4-4.5-1.2
		c-1.2-0.8-2.2-2-2.7-3.4c-0.5-1.3-0.7-2.7-0.7-4.1c0-1,0.1-2,0.5-3c0.4-1.4,1.3-2.6,2.5-3.5c1.2-0.9,2.7-1.3,4.2-1.3
		c1.8-0.1,3.6,0.6,5,1.8C1383.3,4253.6,1384.1,4255.3,1384.3,4257.2z M1377,4254.3c-1.2-0.1-2.3,0.7-2.6,1.8c-0.1,0.3-0.2,0.7-0.2,1
		c0,0.1,0,0.1,0.1,0.2c0,0,0,0,0,0h5.4c0.1,0,0.2-0.1,0.1-0.2c-0.1-0.6-0.2-0.9-0.2-0.9c-0.2-0.6-0.5-1.1-1-1.4
		C1378.3,4254.5,1377.7,4254.3,1377,4254.3z M1395.6,4250.6c0.6,0,1.2,0.1,1.8,0.4c0.2,0.1,0.2,0.3,0.2,0.5l-0.7,3.5
		c0,0.2-0.2,0.3-0.4,0.2c-0.4-0.1-0.7-0.2-1.1-0.2c-0.2,0-0.5,0-0.7,0.1c-0.7,0-1.4,0.3-1.9,0.8c-0.5,0.5-0.8,1.2-0.8,1.9v8.5
		c0,0.1,0,0.2-0.1,0.3c-0.1,0.1-0.2,0.1-0.3,0.1h-3.6c-0.1,0-0.2,0-0.3-0.1c-0.1-0.1-0.1-0.2-0.1-0.3v-15.2c0-0.1,0-0.2,0.1-0.3
		c0.1-0.1,0.2-0.1,0.3-0.1h3.6c0.1,0,0.2,0,0.3,0.1c0.1,0.1,0.1,0.2,0.1,0.3v1.2c0,0,0,0.1,0.1,0.1c0,0,0.1,0,0.1,0c0,0,0,0,0,0
		C1392.9,4251.3,1394.2,4250.6,1395.6,4250.6z M1406.2,4250.6c1.2,0,2.5,0.2,3.6,0.7c1,0.4,1.8,1.1,2.5,1.9c0.6,0.8,0.9,1.7,0.9,2.7
		v10.5c0,0.1,0,0.2-0.1,0.3c-0.1,0.1-0.2,0.1-0.3,0.1h-3.6c-0.1,0-0.2,0-0.3-0.1c-0.1-0.1-0.1-0.2-0.1-0.3v-1c0-0.1,0-0.1-0.1-0.1
		c0,0-0.1,0-0.1,0.1c-1,1.2-2.6,1.8-4.2,1.7c-1.4,0.1-2.8-0.3-3.9-1.2c-1-0.9-1.6-2.1-1.5-3.5c-0.1-1.4,0.6-2.8,1.7-3.7
		c1.4-1,3.1-1.4,4.8-1.3h3.2c0.1,0,0.1,0,0.2-0.1c0,0,0,0,0,0v-0.7c0-0.6-0.2-1.2-0.6-1.6c-0.5-0.4-1.2-0.6-1.9-0.6
		c-0.6,0-1.1,0.1-1.6,0.3c-0.4,0.2-0.7,0.5-0.8,1c0,0.2-0.2,0.3-0.4,0.3c0,0,0,0,0,0l-3.8-0.5c-0.2,0-0.4-0.1-0.3-0.3
		c0.1-0.9,0.4-1.7,1-2.4c0.7-0.7,1.5-1.3,2.4-1.6C1403.9,4250.8,1405,4250.6,1406.2,4250.6z M1405.6,4263.8c0.8,0,1.6-0.2,2.3-0.7
		c0.6-0.4,0.9-1.1,0.9-1.8v-1.1c0-0.1,0-0.1-0.1-0.2c0,0,0,0,0,0h-2.2c-0.8,0-1.5,0.1-2.2,0.5c-0.5,0.3-0.8,0.9-0.8,1.5
		c0,0.5,0.2,1,0.6,1.3C1404.4,4263.6,1405,4263.8,1405.6,4263.8z M1417.1,4266.8c-0.1,0-0.2,0-0.3-0.1c-0.1-0.1-0.1-0.2-0.1-0.3v-21
		c0-0.1,0-0.2,0.1-0.3c0.1-0.1,0.2-0.1,0.3-0.1h3.6c0.1,0,0.2,0,0.3,0.1c0.1,0.1,0.1,0.2,0.1,0.3v21c0,0.1,0,0.2-0.1,0.3
		c-0.1,0.1-0.2,0.1-0.3,0.1H1417.1z M1441.4,4245.4c0-0.1,0-0.2,0.1-0.3c0.1-0.1,0.2-0.1,0.3-0.1h3.6c0.1,0,0.2,0,0.3,0.1
		c0.1,0.1,0.1,0.2,0.1,0.3v21c0,0.1,0,0.2-0.1,0.3c-0.1,0.1-0.2,0.1-0.3,0.1h-3.6c-0.1,0-0.2,0-0.3-0.1c-0.1-0.1-0.1-0.2-0.1-0.3v-1
		c0-0.1,0-0.1-0.1-0.1c0,0-0.1,0-0.1,0c-0.8,1.1-2.2,1.8-3.6,1.7c-1.3,0-2.7-0.4-3.7-1.2c-1.1-0.8-1.9-2-2.2-3.3
		c-0.4-1.2-0.5-2.5-0.5-3.8c0-1.3,0.2-2.6,0.6-3.8c0.4-1.2,1.2-2.3,2.2-3.1c1.1-0.8,2.4-1.2,3.8-1.2c1.3-0.1,2.6,0.5,3.5,1.5
		c0,0.1,0.1,0.1,0.1,0.1c0,0,0.1-0.1,0.1-0.1L1441.4,4245.4z M1440.8,4261.9c0.5-1,0.7-2.1,0.6-3.1c0.1-1.1-0.2-2.2-0.7-3.3
		c-0.4-0.8-1.2-1.2-2.1-1.2c-0.9,0-1.7,0.4-2.2,1.2c-0.6,1-0.8,2.1-0.8,3.3c0,1.1,0.2,2.1,0.7,3.1c0.4,0.8,1.3,1.4,2.3,1.3
		C1439.5,4263.3,1440.4,4262.8,1440.8,4261.9z M1463.7,4257.2c0.1,0.9,0.2,1.8,0.1,2.6c0,0.2-0.1,0.4-0.3,0.4c0,0,0,0-0.1,0h-9.6
		c-0.1,0-0.2,0.1-0.1,0.2c0.1,0.4,0.2,0.8,0.3,1.2c0.6,1.2,1.9,1.9,3.3,1.7c1.2,0,2.4-0.6,3.1-1.6c0.1-0.1,0.2-0.2,0.3-0.2
		c0.1,0,0.2,0.1,0.2,0.1l2.2,2.2c0.1,0.1,0.1,0.2,0.2,0.3c0,0.1-0.1,0.2-0.1,0.2c-0.7,0.9-1.6,1.5-2.6,2c-1.1,0.5-2.3,0.7-3.5,0.7
		c-1.6,0.1-3.2-0.4-4.5-1.2c-1.2-0.8-2.2-2-2.7-3.4c-0.5-1.3-0.7-2.7-0.7-4.1c0-1,0.1-2,0.5-3c0.4-1.4,1.3-2.6,2.5-3.5
		c1.2-0.9,2.7-1.3,4.2-1.3c1.8-0.1,3.6,0.6,5,1.8C1462.7,4253.6,1463.5,4255.3,1463.7,4257.2z M1456.5,4254.3
		c-1.2-0.1-2.3,0.7-2.6,1.8c-0.1,0.3-0.2,0.7-0.2,1c0,0.1,0,0.1,0.1,0.2c0,0,0,0,0,0h5.4c0.1,0,0.2-0.1,0.1-0.2
		c-0.1-0.6-0.2-0.9-0.2-0.9c-0.2-0.6-0.5-1.1-1-1.4C1457.7,4254.5,1457.1,4254.3,1456.5,4254.3z M1480.2,4267
		c-1.2,0-2.5-0.2-3.6-0.6c-0.9-0.3-1.8-0.9-2.4-1.6c-0.6-0.7-0.9-1.5-0.9-2.4v-0.3c0-0.1,0-0.2,0.1-0.3c0.1-0.1,0.2-0.1,0.3-0.1h3.4
		c0.1,0,0.2,0,0.3,0.1c0.1,0.1,0.1,0.2,0.1,0.3v0c0,0.5,0.3,0.9,0.8,1.2c0.6,0.3,1.2,0.5,1.9,0.5c0.6,0,1.2-0.1,1.7-0.4
		c0.4-0.2,0.6-0.6,0.7-1c0-0.4-0.2-0.7-0.6-0.8c-0.6-0.3-1.2-0.5-1.8-0.6c-0.8-0.2-1.5-0.4-2.3-0.7c-1.1-0.4-2.2-0.9-3.2-1.7
		c-0.8-0.7-1.2-1.8-1.2-2.9c0-1.4,0.6-2.8,1.8-3.6c1.4-1,3-1.4,4.7-1.3c1.2,0,2.4,0.2,3.5,0.6c0.9,0.4,1.7,1,2.3,1.8
		c0.5,0.8,0.8,1.7,0.8,2.6c0,0.1,0,0.2-0.1,0.3c-0.1,0.1-0.2,0.1-0.3,0.1h-3.3c-0.1,0-0.2,0-0.3-0.1c-0.1-0.1-0.1-0.2-0.1-0.3
		c0-0.5-0.3-0.9-0.7-1.1c-0.6-0.3-1.2-0.5-1.8-0.5c-0.6,0-1.2,0.1-1.7,0.4c-0.4,0.2-0.6,0.6-0.7,1c0,0.4,0.3,0.8,0.6,0.9
		c0.7,0.3,1.4,0.5,2.1,0.7c0.2,0.1,0.5,0.1,0.8,0.2s0.6,0.2,0.9,0.3c1.3,0.3,2.4,0.9,3.5,1.7c0.9,0.7,1.3,1.8,1.3,3
		c0.1,1.4-0.6,2.8-1.8,3.6C1483.6,4266.6,1481.9,4267.1,1480.2,4267z M1496.2,4250.6c1.2,0,2.5,0.2,3.6,0.7c1,0.4,1.8,1.1,2.5,1.9
		c0.6,0.8,0.9,1.7,0.9,2.7v10.5c0,0.1,0,0.2-0.1,0.3c-0.1,0.1-0.2,0.1-0.3,0.1h-3.6c-0.1,0-0.2,0-0.3-0.1c-0.1-0.1-0.1-0.2-0.1-0.3
		v-1c0-0.1,0-0.1-0.1-0.1c0,0-0.1,0-0.1,0.1c-1,1.2-2.6,1.8-4.2,1.7c-1.4,0.1-2.8-0.3-3.9-1.2c-1-0.9-1.6-2.1-1.5-3.5
		c-0.1-1.4,0.6-2.8,1.7-3.7c1.4-1,3.1-1.4,4.8-1.3h3.2c0.1,0,0.1,0,0.2-0.1c0,0,0,0,0,0v-0.7c0-0.6-0.2-1.2-0.6-1.6
		c-0.5-0.4-1.2-0.6-1.9-0.6c-0.6,0-1.1,0.1-1.6,0.3c-0.4,0.2-0.7,0.5-0.8,1c0,0.2-0.2,0.3-0.4,0.3c0,0,0,0,0,0l-3.8-0.5
		c-0.2,0-0.4-0.1-0.3-0.3c0.1-0.9,0.4-1.7,1-2.4c0.7-0.7,1.5-1.3,2.4-1.6C1494,4250.8,1495.1,4250.6,1496.2,4250.6L1496.2,4250.6z
		 M1495.6,4263.8c0.8,0,1.6-0.2,2.3-0.7c0.6-0.4,0.9-1.1,0.9-1.8v-1.1c0-0.1,0-0.1-0.1-0.2c0,0,0,0,0,0h-2.2c-0.8,0-1.5,0.1-2.2,0.5
		c-0.5,0.3-0.8,0.9-0.8,1.5c0,0.5,0.2,1,0.6,1.3C1494.5,4263.6,1495.1,4263.8,1495.6,4263.8z M1515.6,4254c0,0.1,0,0.2-0.1,0.3
		c-0.1,0.1-0.2,0.1-0.3,0.1h-3c-0.1,0-0.1,0-0.2,0.1c0,0,0,0,0,0v6.6c0,0.5,0.1,1.1,0.4,1.5c0.4,0.4,0.8,0.5,1.3,0.5h1
		c0.1,0,0.2,0,0.3,0.1c0.1,0.1,0.1,0.2,0.1,0.3v2.9c0,0.2-0.2,0.4-0.4,0.4c0,0,0,0,0,0c-0.9,0-1.5,0.1-1.9,0.1
		c-1.3,0.1-2.7-0.2-3.8-0.9c-0.9-0.8-1.4-2-1.3-3.2v-8.3c0-0.1,0-0.1-0.1-0.2c0,0,0,0,0,0h-1.8c-0.1,0-0.2,0-0.3-0.1
		c-0.1-0.1-0.1-0.2-0.1-0.3v-2.8c0-0.1,0-0.2,0.1-0.3c0.1-0.1,0.2-0.1,0.3-0.1h1.8c0.1,0,0.1,0,0.2-0.1c0,0,0,0,0,0v-3.7
		c0-0.1,0-0.2,0.1-0.3c0.1-0.1,0.2-0.1,0.3-0.1h3.5c0.1,0,0.2,0,0.3,0.1c0.1,0.1,0.1,0.2,0.1,0.3v3.7c0,0.1,0,0.1,0.1,0.2
		c0,0,0,0,0,0h3c0.1,0,0.2,0,0.3,0.1c0.1,0.1,0.1,0.2,0.1,0.3L1515.6,4254z M1521.1,4249c-0.7,0-1.3-0.2-1.8-0.7
		c-0.5-0.5-0.7-1.1-0.7-1.8c0-0.7,0.2-1.3,0.7-1.8c0.5-0.5,1.1-0.7,1.8-0.7c0.7,0,1.3,0.2,1.8,0.7c0.5,0.5,0.7,1.1,0.7,1.8
		c0,0.7-0.2,1.3-0.7,1.8C1522.4,4248.8,1521.8,4249.1,1521.1,4249L1521.1,4249z M1519.2,4266.8c-0.1,0-0.2,0-0.3-0.1
		c-0.1-0.1-0.1-0.2-0.1-0.3v-15.2c0-0.1,0-0.2,0.1-0.3c0.1-0.1,0.2-0.1,0.3-0.1h3.6c0.1,0,0.2,0,0.3,0.1c0.1,0.1,0.1,0.2,0.1,0.3
		v15.2c0,0.1,0,0.2-0.1,0.3c-0.1,0.1-0.2,0.1-0.3,0.1L1519.2,4266.8z M1533.5,4267c-1.2,0-2.5-0.2-3.6-0.6c-0.9-0.3-1.8-0.9-2.4-1.6
		c-0.6-0.7-0.9-1.5-0.9-2.4v-0.3c0-0.1,0-0.2,0.1-0.3c0.1-0.1,0.2-0.1,0.3-0.1h3.4c0.1,0,0.2,0,0.3,0.1c0.1,0.1,0.1,0.2,0.1,0.3v0
		c0,0.5,0.3,0.9,0.8,1.2c0.6,0.3,1.2,0.5,1.9,0.5c0.6,0,1.2-0.1,1.7-0.4c0.4-0.2,0.6-0.6,0.7-1c0-0.4-0.2-0.7-0.6-0.8
		c-0.6-0.3-1.2-0.5-1.8-0.6c-0.8-0.2-1.5-0.4-2.3-0.7c-1.1-0.4-2.2-0.9-3.2-1.7c-0.8-0.7-1.2-1.8-1.2-2.9c0-1.4,0.6-2.8,1.8-3.6
		c1.4-1,3-1.4,4.7-1.3c1.2,0,2.4,0.2,3.5,0.6c0.9,0.4,1.7,1,2.3,1.8c0.5,0.8,0.8,1.7,0.8,2.6c0,0.1,0,0.2-0.1,0.3
		c-0.1,0.1-0.2,0.1-0.3,0.1h-3.3c-0.1,0-0.2,0-0.3-0.1c-0.1-0.1-0.1-0.2-0.1-0.3c0-0.5-0.3-0.9-0.7-1.1c-0.6-0.3-1.2-0.5-1.8-0.5
		c-0.6,0-1.2,0.1-1.7,0.4c-0.4,0.2-0.6,0.6-0.7,1c0,0.4,0.3,0.8,0.6,0.9c0.7,0.3,1.4,0.5,2.1,0.7c0.2,0.1,0.5,0.1,0.8,0.2
		c0.3,0.1,0.6,0.2,0.9,0.3c1.3,0.3,2.4,0.9,3.5,1.7c0.9,0.7,1.3,1.8,1.3,3c0.1,1.4-0.6,2.8-1.8,3.6
		C1537,4266.6,1535.3,4267.1,1533.5,4267L1533.5,4267z M1552.3,4250.8c0.1,0,0.2,0,0.3,0.1c0.1,0.1,0.1,0.2,0.1,0.3v2.9
		c0,0.1,0,0.2-0.1,0.3c-0.1,0.1-0.2,0.1-0.3,0.1h-3c-0.1,0-0.1,0-0.2,0.1c0,0,0,0,0,0v11.8c0,0.1,0,0.2-0.1,0.3
		c-0.1,0.1-0.2,0.1-0.3,0.1h-3.6c-0.1,0-0.2,0-0.3-0.1c-0.1-0.1-0.1-0.2-0.1-0.3v-11.7c0-0.1,0-0.1-0.1-0.2c0,0,0,0,0,0h-1.8
		c-0.1,0-0.2,0-0.3-0.1c-0.1-0.1-0.1-0.2-0.1-0.3v-2.9c0-0.1,0-0.2,0.1-0.3c0.1-0.1,0.2-0.1,0.3-0.1h1.8c0.1,0,0.1,0,0.2-0.1
		c0,0,0,0,0,0v-0.7c-0.1-1,0.1-2.1,0.6-3c0.4-0.7,1.1-1.3,1.9-1.5c1.2-0.3,2.4-0.5,3.6-0.4h1.2c0.1,0,0.2,0,0.3,0.1
		c0.1,0.1,0.1,0.2,0.1,0.3v2.5c0,0.1,0,0.2-0.1,0.3c-0.1,0.1-0.2,0.1-0.3,0.1h-1c-0.5,0-1.1,0.1-1.5,0.4c-0.3,0.4-0.5,1-0.4,1.5v0.3
		c0,0.1,0,0.1,0.1,0.2c0,0,0,0,0,0L1552.3,4250.8z M1561.9,4250.6c1.2,0,2.5,0.2,3.6,0.7c1,0.4,1.8,1.1,2.5,1.9
		c0.6,0.8,0.9,1.7,0.9,2.7v10.5c0,0.1,0,0.2-0.1,0.3c-0.1,0.1-0.2,0.1-0.3,0.1h-3.6c-0.1,0-0.2,0-0.3-0.1c-0.1-0.1-0.1-0.2-0.1-0.3
		v-1c0-0.1,0-0.1-0.1-0.1c0,0-0.1,0-0.1,0.1c-1,1.2-2.6,1.8-4.2,1.7c-1.4,0.1-2.8-0.3-3.9-1.2c-1-0.9-1.6-2.1-1.5-3.5
		c-0.1-1.4,0.6-2.8,1.7-3.7c1.4-1,3.1-1.4,4.8-1.3h3.2c0.1,0,0.1,0,0.2-0.1c0,0,0,0,0,0v-0.7c0-0.6-0.2-1.2-0.6-1.6
		c-0.5-0.4-1.2-0.6-1.9-0.6c-0.6,0-1.1,0.1-1.6,0.3c-0.4,0.2-0.7,0.5-0.8,1c0,0.2-0.2,0.3-0.4,0.3c0,0,0,0,0,0l-3.8-0.5
		c-0.2,0-0.4-0.1-0.3-0.3c0.1-0.9,0.5-1.7,1-2.4c0.7-0.7,1.5-1.3,2.4-1.6C1559.6,4250.8,1560.8,4250.6,1561.9,4250.6L1561.9,4250.6z
		 M1561.3,4263.8c0.8,0,1.6-0.2,2.3-0.7c0.6-0.4,0.9-1.1,0.9-1.8v-1.1c0-0.1,0-0.1-0.1-0.2c0,0,0,0,0,0h-2.2c-0.8,0-1.5,0.1-2.2,0.5
		c-0.5,0.3-0.8,0.9-0.8,1.5c0,0.5,0.2,1,0.6,1.3C1560.2,4263.6,1560.7,4263.8,1561.3,4263.8L1561.3,4263.8z M1579.4,4267
		c-1.5,0-3-0.4-4.3-1.2c-1.2-0.8-2.1-2-2.6-3.4c-0.4-1.2-0.6-2.4-0.5-3.7c0-1.2,0.2-2.4,0.5-3.6c0.5-1.4,1.4-2.5,2.6-3.3
		c1.3-0.8,2.8-1.2,4.3-1.2c1.5,0,3.1,0.4,4.4,1.2c1.2,0.7,2.1,1.8,2.5,3.1c0.1,0.4,0.2,0.7,0.2,1.1v0.1c0,0.2-0.1,0.3-0.3,0.3
		l-3.6,0.5h-0.1c-0.2,0-0.3-0.1-0.4-0.3l-0.1-0.5c-0.2-0.5-0.5-1-1-1.3c-0.5-0.4-1.1-0.5-1.8-0.5c-0.6,0-1.2,0.2-1.7,0.5
		c-0.5,0.3-0.8,0.8-1,1.4c-0.3,0.8-0.4,1.7-0.3,2.5c0,0.9,0.1,1.7,0.3,2.5c0.2,0.6,0.5,1.1,1,1.5c0.5,0.4,1.1,0.5,1.7,0.5
		c0.6,0,1.2-0.2,1.7-0.5c0.5-0.3,0.8-0.8,1-1.4c0-0.1,0-0.1,0-0.2c0,0,0-0.1,0-0.1c0-0.2,0.2-0.4,0.4-0.3l3.6,0.6
		c0.2,0,0.3,0.2,0.3,0.3c0,0.3-0.1,0.6-0.2,0.9c-0.4,1.4-1.3,2.5-2.5,3.3C1582.5,4266.6,1581,4267,1579.4,4267z M1596.4,4267
		c-1.5,0-3-0.4-4.3-1.2c-1.2-0.8-2.1-2-2.6-3.4c-0.4-1.2-0.6-2.4-0.5-3.7c0-1.2,0.2-2.4,0.5-3.6c0.5-1.4,1.4-2.5,2.6-3.3
		c1.3-0.8,2.8-1.2,4.3-1.2c1.5,0,3.1,0.4,4.4,1.2c1.2,0.7,2.1,1.8,2.5,3.1c0.1,0.4,0.2,0.7,0.2,1.1v0.1c0,0.2-0.1,0.3-0.3,0.3
		l-3.6,0.5h-0.1c-0.2,0-0.3-0.1-0.4-0.3l-0.1-0.5c-0.2-0.5-0.5-1-1-1.3c-0.5-0.4-1.1-0.5-1.8-0.5c-0.6,0-1.2,0.2-1.7,0.5
		c-0.5,0.3-0.8,0.8-1,1.4c-0.3,0.8-0.4,1.7-0.3,2.5c0,0.9,0.1,1.7,0.3,2.5c0.2,0.6,0.5,1.1,1,1.5c0.5,0.4,1.1,0.5,1.7,0.5
		c0.6,0,1.2-0.2,1.7-0.5c0.5-0.3,0.8-0.8,1-1.4c0-0.1,0-0.1,0-0.2c0,0,0-0.1,0-0.1c0-0.2,0.2-0.4,0.4-0.3l3.6,0.6
		c0.2,0,0.3,0.2,0.3,0.3c0,0.3-0.1,0.6-0.2,0.9c-0.4,1.4-1.3,2.5-2.5,3.3C1599.5,4266.6,1598,4267,1596.4,4267z M1609,4249
		c-0.7,0-1.3-0.2-1.8-0.7c-0.5-0.5-0.7-1.1-0.7-1.8c0-0.7,0.2-1.3,0.7-1.8c0.5-0.5,1.1-0.7,1.8-0.7c0.7,0,1.3,0.2,1.8,0.7
		c0.5,0.5,0.7,1.1,0.7,1.8c0,0.7-0.2,1.3-0.7,1.8C1610.2,4248.8,1609.6,4249.1,1609,4249L1609,4249z M1607.1,4266.8
		c-0.1,0-0.2,0-0.3-0.1c-0.1-0.1-0.1-0.2-0.1-0.3v-15.2c0-0.1,0-0.2,0.1-0.3c0.1-0.1,0.2-0.1,0.3-0.1h3.6c0.1,0,0.2,0,0.3,0.1
		c0.1,0.1,0.1,0.2,0.1,0.3v15.2c0,0.1,0,0.2-0.1,0.3c-0.1,0.1-0.2,0.1-0.3,0.1H1607.1z M1622.1,4267c-1.6,0-3.2-0.4-4.5-1.4
		c-1.2-0.9-2.1-2.2-2.5-3.7c-0.3-1-0.4-2.1-0.4-3.2c0-1.1,0.1-2.2,0.4-3.3c0.4-1.5,1.3-2.7,2.6-3.6c1.3-0.9,2.9-1.3,4.5-1.3
		c1.5,0,3.1,0.4,4.3,1.3c1.2,0.9,2.1,2.1,2.5,3.6c0.3,1.1,0.5,2.2,0.5,3.3c0,1.1-0.1,2.1-0.4,3.1c-0.4,1.5-1.3,2.9-2.5,3.8
		C1625.2,4266.6,1623.7,4267.1,1622.1,4267z M1622.1,4263.3c0.6,0,1.3-0.2,1.7-0.6c0.5-0.5,0.9-1,1-1.7c0.2-0.7,0.3-1.4,0.2-2.2
		c0-0.7-0.1-1.5-0.2-2.2c-0.2-0.6-0.6-1.2-1.1-1.6c-0.5-0.4-1.1-0.6-1.7-0.6c-0.6,0-1.3,0.2-1.8,0.6c-0.5,0.4-0.8,1-1,1.6
		c-0.2,0.7-0.3,1.5-0.2,2.2c0,0.7,0.1,1.5,0.2,2.2c0.2,0.7,0.5,1.2,1,1.7C1620.8,4263.1,1621.4,4263.3,1622.1,4263.3L1622.1,4263.3z
		 M1620.2,4248.9c-0.1,0-0.2,0-0.3-0.1c0-0.1,0-0.2,0-0.3l1.6-3.1c0.1-0.2,0.3-0.3,0.5-0.3h3.1c0.1,0,0.2,0,0.3,0.1
		c0.1,0.1,0,0.2,0,0.3l-2.2,3.1c-0.1,0.2-0.3,0.3-0.4,0.2H1620.2z M1640.9,4250.6c1.5-0.1,2.9,0.5,4,1.5c1,1.1,1.6,2.6,1.5,4.1v10.2
		c0,0.1,0,0.2-0.1,0.3c-0.1,0.1-0.2,0.1-0.3,0.1h-3.6c-0.1,0-0.2,0-0.3-0.1c-0.1-0.1-0.1-0.2-0.1-0.3v-9.3c0-0.7-0.2-1.5-0.7-2
		c-0.5-0.5-1.1-0.8-1.8-0.8c-0.7,0-1.4,0.3-1.8,0.8c-0.5,0.6-0.7,1.3-0.7,2v9.3c0,0.1,0,0.2-0.1,0.3c-0.1,0.1-0.2,0.1-0.3,0.1h-3.6
		c-0.1,0-0.2,0-0.3-0.1c-0.1-0.1-0.1-0.2-0.1-0.3v-15.2c0-0.1,0-0.2,0.1-0.3c0.1-0.1,0.2-0.1,0.3-0.1h3.6c0.1,0,0.2,0,0.3,0.1
		c0.1,0.1,0.1,0.2,0.1,0.3v1.1c0,0.1,0,0.1,0.1,0.1c0,0,0.1,0,0.1,0c0,0,0,0,0,0C1638,4251.2,1639.4,4250.5,1640.9,4250.6z"/>
	<g id="Grupo" transform="translate(1173.384 4308.378)">
		<g class="st1">
			<path class="st2" d="M26,47c-1.2-3-3.5-4.5-6.8-4.5c-3.2,0-5.8,1.4-7.7,4.2c-1.9,2.8-2.8,6.7-2.8,11.8c3-3.5,6.5-5.2,10.7-5.2
				c3.8,0,6.9,1.3,9.3,3.8c2.4,2.5,3.6,5.8,3.6,10c0,4.4-1.3,8-3.9,10.8c-2.6,2.8-5.9,4.1-9.9,4.1c-4.6,0-8.2-1.7-10.7-5.2
				C5.2,73.3,3.9,68.1,3.9,61c0-7.5,1.3-13.2,4-17.2c2.7-3.9,6.5-5.9,11.4-5.9c6,0,9.9,2.8,11.7,8.3L26,47z M27.1,67.4
				c0-2.9-0.7-5.2-2.2-6.9c-1.5-1.7-3.5-2.6-6.1-2.6c-2.6,0-4.8,0.8-6.6,2.3c-1.7,1.6-2.6,3.7-2.6,6.4c0,3.1,0.9,5.7,2.6,7.7
				c1.7,2,3.8,3,6.4,3c2.5,0,4.5-1,6.1-2.9C26.3,72.6,27.1,70.2,27.1,67.4z"/>
			<path class="st2" d="M65.2,39v3.4c-3.8,4.9-6.7,9.1-8.6,12.6c-1.9,3.6-3.6,7.5-5,11.9c-1.4,4.3-2.3,9-2.8,14.1h-5.2
				c0.4-6.2,1.8-12.2,4-18c2.2-5.9,5.8-12.3,10.7-19.3h-21V39H65.2z"/>
			<path class="st2" d="M87.6,48.6c0,3.6-0.8,6.4-2.4,8.4c-1.6,2-3.9,3-6.8,3s-5.2-1-6.8-3.1c-1.6-2.1-2.4-4.8-2.4-8.3
				c0-3.6,0.8-6.4,2.5-8.4c1.7-2,3.9-3,6.7-3c2.9,0,5.1,1,6.8,3.1C86.7,42.3,87.6,45.1,87.6,48.6z M83.3,48.6c0-5.2-1.6-7.8-4.9-7.8
				c-3.2,0-4.9,2.6-4.9,7.8c0,5.2,1.6,7.8,4.9,7.8c1.5,0,2.7-0.6,3.6-1.9C82.8,53.2,83.3,51.2,83.3,48.6z M106.4,36.9L81.1,82.5
				h-4.2l25.3-45.7H106.4z M114,71.1c0,3.6-0.8,6.4-2.4,8.4c-1.6,2-3.9,3-6.8,3c-2.9,0-5.2-1-6.8-3.1s-2.4-4.8-2.4-8.3
				c0-3.6,0.8-6.4,2.5-8.4c1.7-2,3.9-3,6.7-3c2.9,0,5.1,1,6.8,3.1C113.1,64.8,114,67.6,114,71.1z M109.7,71.1c0-5.2-1.6-7.8-4.9-7.8
				c-3.2,0-4.9,2.6-4.9,7.8c0,5.2,1.6,7.8,4.9,7.8c1.5,0,2.7-0.6,3.6-1.9C109.2,75.7,109.7,73.8,109.7,71.1z"/>
		</g>
	</g>
	<g id="Grupo_1086" transform="translate(1184.66 4464.039)">
		<path id="Trazado_1171" class="st3" d="M0,0v11.8"/>
	</g>
	<g id="Grupo_1087" transform="translate(1177.163 4464.039)">
		<path id="Trazado_1172" class="st3" d="M0,0v11.8"/>
	</g>
	<g id="Grupo_1088" transform="translate(1171.277 4291.586)">
		<path id="Trazado_1173" class="st4" d="M489.8,0.5H0v-1h489.8V0.5z"/>
	</g>
	<path id="Trazado_2099" class="st5" d="M1363.2,4381c0-4.7-2.1-6.6-6.1-6.6c-4.8,0-6.5,2.6-6.5,7.8v1.1c0,5.5,1.6,7.8,6.8,7.8
		c1.6,0,3.3-0.3,4.8-0.9c0.3-0.1,0.4-0.3,0.4-0.5c0-0.2-0.1-0.5-0.2-0.7l-0.2-0.8c-0.1-0.3-0.2-0.4-0.4-0.4c-0.2,0-0.4,0.1-0.5,0.1
		c-1.1,0.4-2.3,0.6-3.5,0.6c-3.2,0-3.9-1.2-4-4.3h8.5c0.7,0,0.9-0.3,0.9-1L1363.2,4381z M1353.7,4381.9c0-3.4,0.6-5,3.3-5
		c2.5,0,3.2,1.4,3.2,4.5c0,0.4-0.1,0.5-0.4,0.5H1353.7z M1365.1,4390.3c0,0.5,0.2,0.6,0.7,0.6h1.7c0.5,0,0.7-0.1,0.7-0.6v-10
		c0-2.6,1.2-3.4,3.4-3.4c2.5,0,3.5,1.1,3.5,3.9v9.5c0,0.5,0.2,0.6,0.7,0.6h1.7c0.5,0,0.7-0.1,0.7-0.6v-9.4c0-4.8-1.9-6.5-5.7-6.5
		c-1.8-0.1-3.5,0.5-4.7,1.8h-0.1l-0.2-1.1c-0.1-0.4-0.2-0.5-0.6-0.5h-1.2c-0.4,0-0.5,0.1-0.5,0.5V4390.3z M1387.1,4370.4
		c-0.2,0.1-0.4,0.3-0.3,0.5c0,0.2,0.1,0.4,0.1,0.7l0.2,0.8c0.1,0.4,0.3,0.5,0.5,0.5c0.1,0,0.3,0,0.4-0.1c1.5-0.5,3.1-0.8,4.7-0.9
		c2.2,0,3.3,0.7,3.3,3.1v0.2c0,2.1-0.5,3-3,4.1l-2.4,1.1c-3.1,1.4-4.4,3.7-4.4,7.7v2c0,0.7,0.2,0.9,1,0.9h11.2
		c0.5,0,0.7-0.1,0.7-0.6v-1.2c0-0.5-0.2-0.7-0.7-0.7h-9v-0.9c0-2.6,0.8-3.9,3.2-5l2.4-1c3-1.3,4.5-2.9,4.5-6.3v-0.3
		c0-4-2.2-5.6-6.3-5.6C1391,4369.3,1389,4369.6,1387.1,4370.4L1387.1,4370.4z M1416,4379.7c0-4.1-0.5-6.8-1.9-8.4
		c-1.2-1.5-3.1-2.1-5.5-2.1c-2.3,0-4.3,0.6-5.5,2.1c-1.4,1.6-1.9,4.4-1.9,8.4v0.9c0,4.1,0.5,6.8,1.9,8.4c1.2,1.5,3.1,2.1,5.5,2.1
		c2.3,0,4.3-0.6,5.5-2.1c1.4-1.7,1.9-4.4,1.9-8.4V4379.7z M1412.7,4380.4c0,2.9,0,5.6-1.2,7c-0.7,0.8-1.8,1.2-2.9,1.1
		c-1.1,0.1-2.1-0.3-2.9-1.1c-1.2-1.5-1.2-4.1-1.2-7v-0.4c0-2.9,0-5.6,1.2-7c0.7-0.8,1.8-1.2,2.9-1.1c1.1-0.1,2.2,0.3,2.9,1.1
		c1.2,1.5,1.2,4.1,1.2,7L1412.7,4380.4z M1418.8,4370.4c-0.2,0.1-0.4,0.3-0.3,0.5c0,0.2,0.1,0.4,0.1,0.7l0.2,0.8
		c0.1,0.4,0.3,0.5,0.5,0.5c0.1,0,0.3,0,0.4-0.1c1.5-0.5,3.1-0.8,4.7-0.9c2.2,0,3.3,0.7,3.3,3.1v0.2c0,2.1-0.5,3-3,4.1l-2.4,1.1
		c-3.1,1.4-4.4,3.7-4.4,7.7v1.9c0,0.7,0.2,0.9,1,0.9h11.2c0.5,0,0.7-0.1,0.7-0.6v-1.2c0-0.5-0.2-0.7-0.7-0.7h-9v-0.9
		c0-2.6,0.8-3.9,3.2-5l2.4-1c3-1.3,4.5-2.9,4.5-6.3v-0.3c0-4-2.2-5.6-6.3-5.6C1422.7,4369.3,1420.7,4369.6,1418.8,4370.4
		L1418.8,4370.4z M1447.7,4379.7c0-4.1-0.5-6.8-1.9-8.4c-1.2-1.5-3.1-2.1-5.5-2.1s-4.3,0.6-5.5,2.1c-1.4,1.6-1.9,4.4-1.9,8.4v0.9
		c0,4.1,0.5,6.8,1.9,8.4c1.2,1.5,3.1,2.1,5.5,2.1s4.3-0.6,5.5-2.1c1.4-1.6,1.9-4.4,1.9-8.4V4379.7z M1444.4,4380.4
		c0,2.9,0,5.6-1.2,7c-0.7,0.8-1.8,1.2-2.9,1.1c-1.1,0.1-2.2-0.3-2.9-1.1c-1.2-1.5-1.2-4.1-1.2-7v-0.4c0-2.9,0-5.6,1.2-7
		c0.7-0.8,1.8-1.2,2.9-1.1c1.1-0.1,2.2,0.3,2.9,1.1c1.2,1.5,1.2,4.1,1.2,7V4380.4z"/>
	<path id="Trazado_2104" class="st6" d="M1181.4,4698.6c0,0.1,0,0.1,0,0.1h6.9c0.1,0,0.2,0.1,0.2,0.2c0,0,0,0,0,0.1v0.9
		c0,0.1-0.1,0.2-0.2,0.2c0,0,0,0-0.1,0h-8.8c-0.1,0-0.2-0.1-0.2-0.2c0,0,0,0,0-0.1v-0.9c0-0.1,0-0.2,0.1-0.3c0.5-0.6,1.6-2,3.4-4.1
		l1.6-2c1.4-1.7,2.1-3.1,2.1-4.1c0-0.7-0.3-1.4-0.8-1.9c-0.6-0.5-1.3-0.7-2.1-0.7c-0.7,0-1.5,0.2-2,0.7c-0.5,0.5-0.8,1.2-0.7,1.9
		v0.7c0,0.1-0.1,0.2-0.2,0.2c0,0,0,0-0.1,0h-1.1c-0.1,0-0.2-0.1-0.2-0.2c0,0,0,0,0-0.1v-0.9c0-1.1,0.5-2.1,1.3-2.7
		c0.9-0.7,2-1.1,3.1-1c0.8,0,1.6,0.2,2.3,0.5c0.6,0.3,1.2,0.8,1.6,1.4c0.4,0.6,0.6,1.3,0.5,2c0,1.2-0.7,2.8-2.1,4.5
		c-0.7,0.9-2.1,2.6-4.2,5.1L1181.4,4698.6z M1195.6,4700.3c-1.2,0.1-2.5-0.4-3.4-1.2c-0.9-0.9-1.3-2-1.3-3.2v-7
		c-0.1-1.2,0.4-2.4,1.3-3.2c0.9-0.8,2.1-1.3,3.4-1.2c1.3-0.1,2.5,0.4,3.4,1.2c0.9,0.8,1.3,2,1.3,3.2v7c0.1,1.2-0.4,2.4-1.3,3.2
		C1198.1,4700,1196.8,4700.4,1195.6,4700.3z M1195.6,4699c0.8,0,1.6-0.3,2.3-0.8c0.6-0.6,0.9-1.4,0.9-2.2v-7.1
		c0-0.8-0.3-1.6-0.8-2.2c-0.6-0.6-1.4-0.9-2.3-0.8c-0.8,0-1.6,0.3-2.2,0.8c-0.6,0.6-0.9,1.4-0.8,2.2v7.1c0,0.8,0.3,1.6,0.8,2.2
		C1194,4698.7,1194.8,4699,1195.6,4699z M1204.7,4684.8c0.1,0,0.2-0.1,0.3-0.1h1.2c0.1,0,0.2,0.1,0.2,0.2c0,0,0,0,0,0.1v15
		c0,0.1-0.1,0.2-0.2,0.2c0,0,0,0-0.1,0h-1.1c-0.1,0-0.2-0.1-0.2-0.2c0,0,0,0,0-0.1v-13.4c0,0,0-0.1,0-0.1c0,0-0.1,0-0.1,0l-2.3,0.9
		l-0.1,0c-0.1,0-0.1-0.1-0.2-0.2l-0.1-0.8v0c0-0.1,0.1-0.1,0.2-0.2L1204.7,4684.8z M1211.4,4700.1c-0.1,0-0.1,0-0.2-0.1
		c0-0.1,0-0.1,0-0.2l5.1-13.7c0,0,0-0.1,0-0.1c0,0,0,0-0.1,0h-5.9c0,0-0.1,0-0.1,0.1c0,0,0,0,0,0v1c0,0.1-0.1,0.2-0.2,0.2
		c0,0,0,0-0.1,0h-0.9c-0.1,0-0.2-0.1-0.2-0.2c0,0,0,0,0-0.1l0-2.2c0-0.1,0.1-0.2,0.2-0.2c0,0,0,0,0.1,0h8.7c0.1,0,0.2,0.1,0.2,0.2
		c0,0,0,0,0,0.1v1c0,0.1,0,0.2,0,0.3l-5.1,13.7c0,0.1-0.1,0.2-0.3,0.2H1211.4z"/>
	<path id="Trazado_2105" class="st6" d="M1337.7,4698.6c0,0.1,0,0.1,0,0.1h6.9c0.1,0,0.2,0.1,0.2,0.2c0,0,0,0,0,0.1v0.9
		c0,0.1-0.1,0.2-0.2,0.2c0,0,0,0-0.1,0h-8.8c-0.1,0-0.2-0.1-0.2-0.2c0,0,0,0,0-0.1v-0.9c0-0.1,0-0.2,0.1-0.3c0.5-0.6,1.6-2,3.4-4.1
		l1.6-2c1.4-1.7,2.1-3.1,2.1-4.1c0-0.7-0.3-1.4-0.8-1.9c-0.6-0.5-1.3-0.7-2.1-0.7c-0.7,0-1.5,0.2-2,0.7c-0.5,0.5-0.8,1.2-0.7,1.9
		v0.7c0,0.1-0.1,0.2-0.2,0.2c0,0,0,0-0.1,0h-1.1c-0.1,0-0.2-0.1-0.2-0.2c0,0,0,0,0-0.1v-0.9c0-1.1,0.5-2.1,1.3-2.7
		c0.9-0.7,2-1.1,3.1-1c0.8,0,1.6,0.2,2.3,0.5c0.6,0.3,1.2,0.8,1.6,1.4c0.4,0.6,0.6,1.3,0.5,2c0,1.2-0.7,2.8-2.1,4.5
		c-0.7,0.9-2.1,2.6-4.2,5.1L1337.7,4698.6z M1351.9,4700.3c-1.2,0.1-2.5-0.4-3.4-1.2c-0.9-0.9-1.3-2-1.3-3.2v-7
		c-0.1-1.2,0.4-2.4,1.3-3.2c0.9-0.8,2.1-1.3,3.4-1.2c1.3-0.1,2.5,0.4,3.4,1.2c0.9,0.8,1.3,2,1.3,3.2v7c0.1,1.2-0.4,2.4-1.3,3.2
		C1354.3,4700,1353.1,4700.4,1351.9,4700.3z M1351.9,4699c0.8,0,1.6-0.3,2.3-0.8c0.6-0.6,0.9-1.4,0.9-2.2v-7.1
		c0-0.8-0.3-1.6-0.8-2.2c-0.6-0.6-1.4-0.9-2.3-0.8c-0.8,0-1.6,0.3-2.2,0.8c-0.6,0.6-0.9,1.4-0.8,2.2v7.1c0,0.8,0.3,1.6,0.8,2.2
		C1350.2,4698.7,1351.1,4699,1351.9,4699z M1361,4684.8c0.1,0,0.2-0.1,0.3-0.1h1.2c0.1,0,0.2,0.1,0.2,0.2c0,0,0,0,0,0.1v15
		c0,0.1-0.1,0.2-0.2,0.2c0,0,0,0-0.1,0h-1.1c-0.1,0-0.2-0.1-0.2-0.2c0,0,0,0,0-0.1v-13.4c0,0,0-0.1,0-0.1c0,0-0.1,0-0.1,0l-2.3,0.9
		l-0.1,0c-0.1,0-0.1-0.1-0.2-0.2l-0.1-0.8v0c0-0.1,0.1-0.1,0.2-0.2L1361,4684.8z M1374,4693.6c0.3,0.7,0.4,1.4,0.4,2.2
		c0,0.9-0.2,1.8-0.6,2.6c-0.4,0.6-0.9,1.1-1.5,1.4c-0.7,0.3-1.5,0.5-2.2,0.5c-0.8,0-1.6-0.2-2.3-0.5c-0.6-0.3-1.2-0.9-1.5-1.5
		c-0.4-0.8-0.6-1.6-0.6-2.5c0-0.8,0.2-1.5,0.5-2.2c0.3-0.7,0.9-1.3,1.6-1.6c0.1,0,0.1-0.1,0-0.1c-0.5-0.3-0.9-0.7-1.2-1.1
		c-0.4-0.6-0.7-1.4-0.7-2.2c0-0.8,0.2-1.6,0.7-2.2c0.4-0.6,0.9-1,1.5-1.3c0.7-0.3,1.4-0.5,2.1-0.5c0.7,0,1.5,0.1,2.1,0.5
		c0.6,0.3,1.1,0.8,1.4,1.3c0.4,0.7,0.6,1.5,0.6,2.2c0,0.8-0.2,1.5-0.7,2.2c-0.3,0.4-0.7,0.8-1.2,1.1c-0.1,0-0.1,0.1,0,0.1
		C1373.2,4692.3,1373.7,4692.9,1374,4693.6L1374,4693.6z M1367.7,4687.2c-0.2,0.4-0.3,0.8-0.4,1.3c0,0.6,0.1,1.1,0.5,1.6
		c0.2,0.4,0.5,0.6,0.9,0.8c0.4,0.2,0.8,0.3,1.3,0.3c0.5,0,0.9-0.1,1.3-0.3c0.4-0.2,0.7-0.5,0.9-0.8c0.3-0.5,0.4-1,0.4-1.6
		c0-0.5-0.1-0.9-0.3-1.3c-0.2-0.4-0.5-0.7-0.9-1c-0.4-0.2-0.9-0.4-1.4-0.4c-0.5,0-1,0.1-1.4,0.4
		C1368.3,4686.5,1367.9,4686.8,1367.7,4687.2z M1372.3,4697.8c0.4-0.6,0.6-1.4,0.6-2.1c0-0.6-0.1-1.2-0.4-1.8
		c-0.4-1-1.4-1.5-2.5-1.5c-1-0.1-2,0.5-2.4,1.4c-0.3,0.6-0.4,1.2-0.4,1.9c0,0.7,0.1,1.4,0.5,2c0.5,0.8,1.4,1.3,2.4,1.2
		C1371,4699,1371.8,4698.6,1372.3,4697.8L1372.3,4697.8z"/>
	<path id="Trazado_2106" class="st6" d="M1494.6,4698.6c0,0.1,0,0.1,0,0.1h6.9c0.1,0,0.2,0.1,0.2,0.2c0,0,0,0,0,0.1v0.9
		c0,0.1-0.1,0.2-0.2,0.2c0,0,0,0-0.1,0h-8.8c-0.1,0-0.2-0.1-0.2-0.2c0,0,0,0,0-0.1v-0.9c0-0.1,0-0.2,0.1-0.3c0.5-0.6,1.6-2,3.4-4.1
		l1.6-2c1.4-1.7,2.1-3.1,2.1-4.1c0-0.7-0.3-1.4-0.8-1.9c-0.6-0.5-1.3-0.7-2.1-0.7c-0.7,0-1.5,0.2-2,0.7c-0.5,0.5-0.8,1.2-0.7,1.9
		v0.7c0,0.1-0.1,0.2-0.2,0.2c0,0,0,0-0.1,0h-1.1c-0.1,0-0.2-0.1-0.2-0.2c0,0,0,0,0-0.1v-0.9c0-1.1,0.5-2.1,1.3-2.7
		c0.9-0.7,2-1.1,3.1-1c0.8,0,1.6,0.2,2.3,0.5c0.6,0.3,1.2,0.8,1.6,1.4c0.4,0.6,0.6,1.3,0.5,2c0,1.2-0.7,2.8-2.1,4.5
		c-0.7,0.9-2.1,2.6-4.2,5.1L1494.6,4698.6z M1508.8,4700.3c-1.2,0.1-2.5-0.4-3.4-1.2c-0.9-0.9-1.3-2-1.3-3.2v-7
		c-0.1-1.2,0.4-2.4,1.3-3.2c0.9-0.8,2.1-1.3,3.4-1.2c1.3-0.1,2.5,0.4,3.4,1.2c0.9,0.8,1.3,2,1.3,3.2v7c0.1,1.2-0.4,2.4-1.3,3.2
		C1511.2,4700,1510,4700.4,1508.8,4700.3z M1508.8,4699c0.8,0,1.6-0.3,2.3-0.8c0.6-0.6,0.9-1.4,0.9-2.2v-7.1c0-0.8-0.3-1.6-0.8-2.2
		c-0.6-0.6-1.4-0.9-2.3-0.8c-0.8,0-1.6,0.3-2.2,0.8c-0.6,0.6-0.9,1.4-0.8,2.2v7.1c0,0.8,0.3,1.6,0.8,2.2
		C1507.1,4698.7,1507.9,4699,1508.8,4699z M1517.9,4684.8c0.1,0,0.2-0.1,0.3-0.1h1.2c0.1,0,0.2,0.1,0.2,0.2c0,0,0,0,0,0.1v15
		c0,0.1-0.1,0.2-0.2,0.2c0,0,0,0-0.1,0h-1.1c-0.1,0-0.2-0.1-0.2-0.2c0,0,0,0,0-0.1v-13.4c0,0,0-0.1,0-0.1c0,0-0.1,0-0.1,0l-2.3,0.9
		l-0.1,0c-0.1,0-0.1-0.1-0.2-0.2l-0.1-0.8v0c0-0.1,0.1-0.1,0.2-0.2L1517.9,4684.8z M1531,4687.4c0.2,0.7,0.3,1.4,0.3,2.1v6.9
		c0,1.1-0.4,2.1-1.2,2.9c-0.9,0.7-2,1.1-3.1,1.1c-1.1,0-2.2-0.3-3-1c-0.8-0.7-1.2-1.7-1.2-2.7v-0.3c0-0.1,0.1-0.2,0.2-0.2
		c0,0,0,0,0.1,0h1.1c0.1,0,0.2,0.1,0.2,0.2c0,0,0,0,0,0.1v0.2c0,0.7,0.2,1.3,0.7,1.8c0.5,0.5,1.2,0.7,1.9,0.7c0.7,0,1.4-0.2,2-0.7
		c0.5-0.5,0.8-1.2,0.8-1.9v-3.2c0,0,0-0.1,0-0.1c0,0-0.1,0-0.1,0c-0.7,0.9-1.8,1.4-2.9,1.3c-0.8,0-1.6-0.2-2.3-0.6
		c-0.6-0.4-1.1-1-1.4-1.7c-0.3-0.8-0.5-1.6-0.5-2.5c0-0.7,0.1-1.5,0.3-2.2c0.3-0.8,0.8-1.5,1.5-2c0.7-0.5,1.6-0.7,2.5-0.7
		c0.9,0,1.9,0.2,2.7,0.8C1530.2,4685.8,1530.7,4686.6,1531,4687.4z M1526.9,4692.9c0.6,0,1.2-0.1,1.6-0.5c0.4-0.3,0.8-0.8,0.9-1.3
		c0.2-0.6,0.3-1.2,0.2-1.8c0-0.5-0.1-1.1-0.2-1.6c-0.2-0.5-0.5-1-0.9-1.3c-0.5-0.3-1.1-0.5-1.7-0.5c-0.6,0-1.1,0.1-1.6,0.5
		c-0.5,0.3-0.8,0.8-1,1.4c-0.2,0.5-0.3,1.1-0.2,1.7c0,0.6,0.1,1.2,0.3,1.8c0.2,0.5,0.5,1,0.9,1.3
		C1525.7,4692.8,1526.3,4693,1526.9,4692.9z"/>
	<path id="Trazado_2107" class="st6" d="M1648.2,4698.6c0,0.1,0,0.1,0,0.1h6.9c0.1,0,0.2,0.1,0.2,0.2c0,0,0,0,0,0.1v0.9
		c0,0.1-0.1,0.2-0.2,0.2c0,0,0,0-0.1,0h-8.8c-0.1,0-0.2-0.1-0.2-0.2c0,0,0,0,0-0.1v-0.9c0-0.1,0-0.2,0.1-0.3c0.5-0.6,1.6-2,3.4-4.1
		l1.6-2c1.4-1.7,2.1-3.1,2.1-4.1c0-0.7-0.3-1.4-0.8-1.9c-0.6-0.5-1.3-0.7-2.1-0.7c-0.7,0-1.5,0.2-2,0.7c-0.5,0.5-0.8,1.2-0.7,1.9
		v0.7c0,0.1-0.1,0.2-0.2,0.2c0,0,0,0-0.1,0h-1.1c-0.1,0-0.2-0.1-0.2-0.2c0,0,0,0,0-0.1v-0.9c0-1.1,0.5-2.1,1.3-2.7
		c0.9-0.7,2-1.1,3.1-1c0.8,0,1.6,0.2,2.3,0.5c0.6,0.3,1.2,0.8,1.6,1.4c0.4,0.6,0.6,1.3,0.5,2c0,1.2-0.7,2.8-2.1,4.5
		c-0.7,0.9-2.1,2.6-4.2,5.1L1648.2,4698.6z M1662.4,4700.3c-1.2,0.1-2.5-0.4-3.4-1.2c-0.9-0.9-1.3-2-1.3-3.2v-7
		c-0.1-1.2,0.4-2.4,1.3-3.2c0.9-0.8,2.1-1.3,3.4-1.2c1.3-0.1,2.5,0.4,3.4,1.2c0.9,0.8,1.3,2,1.3,3.2v7c0.1,1.2-0.4,2.4-1.3,3.2
		C1664.9,4700,1663.7,4700.4,1662.4,4700.3z M1662.4,4699c0.8,0,1.6-0.3,2.3-0.8c0.6-0.6,0.9-1.4,0.9-2.2v-7.1
		c0-0.8-0.3-1.6-0.8-2.2c-0.6-0.6-1.4-0.9-2.3-0.8c-0.8,0-1.6,0.3-2.2,0.8c-0.6,0.6-0.9,1.4-0.8,2.2v7.1c0,0.8,0.3,1.6,0.8,2.2
		C1660.8,4698.7,1661.6,4699,1662.4,4699z M1671.6,4698.6c0,0.1,0,0.1,0,0.1h6.9c0.1,0,0.2,0.1,0.2,0.2c0,0,0,0,0,0.1v0.9
		c0,0.1-0.1,0.2-0.2,0.2c0,0,0,0-0.1,0h-8.8c-0.1,0-0.2-0.1-0.2-0.2c0,0,0,0,0-0.1v-0.9c0-0.1,0-0.2,0.1-0.3c0.5-0.6,1.6-2,3.4-4.1
		l1.6-2c1.4-1.7,2.1-3.1,2.1-4.1c0-0.7-0.3-1.4-0.8-1.9c-0.6-0.5-1.3-0.7-2.1-0.7c-0.7,0-1.5,0.2-2,0.7c-0.5,0.5-0.8,1.2-0.7,1.9
		v0.7c0,0.1-0.1,0.2-0.2,0.2c0,0,0,0-0.1,0h-1.1c-0.1,0-0.2-0.1-0.2-0.2c0,0,0,0,0-0.1v-0.9c0-1.1,0.5-2.1,1.3-2.7
		c0.9-0.7,2-1.1,3.1-1c0.8,0,1.6,0.2,2.3,0.5c0.6,0.3,1.2,0.8,1.6,1.4c0.4,0.6,0.6,1.3,0.6,2c0,1.2-0.7,2.8-2.1,4.5
		c-0.7,0.9-2.1,2.6-4.2,5.1L1671.6,4698.6z M1685.8,4700.3c-1.2,0.1-2.5-0.4-3.4-1.2c-0.9-0.9-1.3-2-1.3-3.2v-7
		c-0.1-1.2,0.4-2.4,1.3-3.2c0.9-0.8,2.1-1.3,3.4-1.2c1.3-0.1,2.5,0.4,3.4,1.2c0.9,0.8,1.3,2,1.3,3.2v7c0.1,1.2-0.4,2.4-1.3,3.2
		C1688.2,4700,1687,4700.4,1685.8,4700.3z M1685.8,4699c0.8,0,1.6-0.3,2.3-0.8c0.6-0.6,0.9-1.4,0.9-2.2v-7.1c0-0.8-0.3-1.6-0.8-2.2
		c-0.6-0.6-1.4-0.9-2.3-0.8c-0.8,0-1.6,0.3-2.2,0.8c-0.6,0.6-0.9,1.4-0.8,2.2v7.1c0,0.8,0.3,1.6,0.8,2.2
		C1684.1,4698.7,1684.9,4699,1685.8,4699z"/>
	<path id="Trazado_1176" class="st7" d="M1698.4,4672.3h-522.6v-0.5h522.6V4672.3z"/>
	<path id="Trazado_1177" class="st8" d="M1203.5,4406.9v265.5 M1359.6,4406.9v265.5 M1515.5,4406.9v265.5 M1672.7,4406.9v265.5"/>
	<path id="Trazado_1178" class="st2" d="M1210,4589.6c0,2.8-2.3,5.1-5.1,5.1c-2.8,0-5.1-2.3-5.1-5.1c0-2.8,2.3-5.1,5.1-5.1
		c0,0,0,0,0,0C1207.7,4584.6,1210,4586.9,1210,4589.6L1210,4589.6"/>
	<path id="Trazado_1179" class="st2" d="M1365.4,4564.4c0,2.8-2.3,5.1-5.1,5.1c-2.8,0-5.1-2.3-5.1-5.1c0-2.8,2.3-5.1,5.1-5.1
		c0,0,0,0,0,0C1363.1,4559.3,1365.4,4561.6,1365.4,4564.4L1365.4,4564.4"/>
	<path id="Trazado_1180" class="st2" d="M1520.8,4523.9c0,2.8-2.3,5.1-5.1,5.1c-2.8,0-5.1-2.3-5.1-5.1c0-2.8,2.3-5.1,5.1-5.1
		c0,0,0,0,0,0C1518.6,4518.9,1520.8,4521.2,1520.8,4523.9L1520.8,4523.9"/>
	<path id="Trazado_1181" class="st2" d="M1676.3,4503.7c0,2.8-2.3,5.1-5.1,5.1c-2.8,0-5.1-2.3-5.1-5.1c0-2.8,2.3-5.1,5.1-5.1
		c0,0,0,0,0,0C1674,4498.7,1676.3,4500.9,1676.3,4503.7L1676.3,4503.7"/>
	<path id="Trazado_2103" class="st2" d="M1204.1,4565.5c0.2,0.9,0.3,1.9,0.3,2.8c0,0.9-0.1,1.8-0.4,2.7c-0.4,1.3-1.2,2.4-2.2,3.1
		c-1.2,0.8-2.5,1.2-4,1.2c-1.4,0-2.7-0.4-3.9-1.1c-1.1-0.7-1.9-1.8-2.3-3c-0.2-0.5-0.3-1-0.3-1.5v-0.1c0-0.2,0.1-0.2,0.3-0.2h2.4
		c0.2,0,0.3,0.1,0.3,0.2c0,0,0,0,0,0c0,0.2,0.1,0.4,0.2,0.7c0.2,0.7,0.6,1.4,1.2,1.8c0.6,0.5,1.3,0.7,2.1,0.7c0.8,0,1.5-0.2,2.2-0.7
		c0.6-0.5,1-1.2,1.2-1.9c0.2-0.6,0.2-1.2,0.2-1.8c0-0.6-0.1-1.3-0.2-1.9c-0.1-0.7-0.5-1.4-1.1-1.8c-0.6-0.4-1.4-0.7-2.2-0.6
		c-0.8,0-1.5,0.2-2.2,0.5c-0.6,0.3-1,0.8-1.2,1.4c0,0.2-0.2,0.3-0.3,0.3h-2.5c-0.1,0-0.3-0.1-0.3-0.2c0,0,0-0.1,0-0.1v-12.2
		c0-0.1,0.1-0.3,0.2-0.3c0,0,0.1,0,0.1,0h11.6c0.1,0,0.3,0.1,0.3,0.2c0,0,0,0.1,0,0.1v2c0,0.1-0.1,0.3-0.2,0.3c0,0-0.1,0-0.1,0h-8.8
		c-0.1,0-0.1,0-0.1,0.1c0,0,0,0,0,0l0,6.5c0,0.1,0.1,0.2,0.2,0.1c0.5-0.4,1.1-0.8,1.7-1c0.7-0.2,1.4-0.3,2.1-0.3
		c1.3,0,2.6,0.3,3.7,1.1C1203.1,4563.1,1203.8,4564.2,1204.1,4565.5z M1214.6,4575.4c-1.8,0.1-3.6-0.5-5-1.8c-1.3-1.3-1.9-3-1.8-4.8
		v-9.2c-0.1-1.8,0.6-3.5,1.8-4.8c1.4-1.2,3.1-1.9,5-1.8c1.8-0.1,3.6,0.5,5,1.8c1.3,1.2,2,3,1.9,4.8v9.2c0.1,1.8-0.6,3.5-1.9,4.8
		C1218.2,4574.8,1216.4,4575.5,1214.6,4575.4z M1214.6,4572.8c1.1,0.1,2.1-0.3,2.9-1c0.7-0.7,1.1-1.7,1.1-2.8v-9.5
		c0-1-0.3-2-1.1-2.8c-0.8-0.7-1.8-1.1-2.9-1c-1,0-2,0.3-2.8,1c-0.7,0.7-1.1,1.7-1.1,2.8v9.5c0,1,0.3,2,1.1,2.8
		C1212.5,4572.5,1213.6,4572.8,1214.6,4572.8z M1230.6,4562.3c-0.8,0-1.6-0.2-2.3-0.6c-0.7-0.4-1.3-1-1.7-1.7
		c-0.4-0.7-0.6-1.5-0.6-2.3c0-0.8,0.2-1.6,0.6-2.3c0.4-0.7,1-1.3,1.7-1.7c0.7-0.4,1.5-0.6,2.3-0.6c0.8,0,1.6,0.2,2.3,0.6
		c0.7,0.4,1.3,1,1.7,1.7c0.4,0.7,0.6,1.5,0.6,2.3c0,0.8-0.2,1.6-0.6,2.3c-0.4,0.7-1,1.3-1.7,1.7
		C1232.2,4562.1,1231.4,4562.3,1230.6,4562.3L1230.6,4562.3z M1229.7,4575.1c-0.1,0-0.2,0-0.3-0.1c0-0.1,0-0.2,0-0.3l11.7-21.1
		c0.1-0.1,0.2-0.2,0.4-0.2h1.5c0.1,0,0.2,0,0.2,0.1c0,0.1,0,0.2,0,0.3l-11.7,21.1c-0.1,0.1-0.2,0.2-0.4,0.2H1229.7z M1230.6,4560.4
		c0.7,0,1.4-0.3,1.9-0.8c0.5-0.5,0.8-1.2,0.8-2c0-0.7-0.3-1.4-0.8-1.9c-0.5-0.5-1.2-0.8-1.9-0.8c-0.7,0-1.4,0.3-2,0.8
		c-0.5,0.5-0.8,1.2-0.8,1.9c0,0.7,0.3,1.5,0.8,2C1229.1,4560.2,1229.9,4560.4,1230.6,4560.4L1230.6,4560.4z M1242.4,4575.3
		c-0.8,0-1.6-0.2-2.3-0.6c-0.7-0.4-1.3-1-1.7-1.7c-0.4-0.7-0.6-1.5-0.6-2.3c0-0.8,0.2-1.6,0.6-2.3c0.4-0.7,1-1.3,1.7-1.7
		c0.7-0.4,1.5-0.6,2.3-0.6c0.8,0,1.6,0.2,2.3,0.6c0.7,0.4,1.3,1,1.7,1.7c0.4,0.7,0.6,1.5,0.6,2.3c0,0.8-0.2,1.6-0.6,2.3
		c-0.4,0.7-1,1.3-1.7,1.7C1244,4575.1,1243.2,4575.3,1242.4,4575.3z M1242.4,4573.5c0.7,0,1.4-0.3,1.9-0.8c0.5-0.5,0.8-1.2,0.8-2
		c0-0.7-0.3-1.4-0.8-2c-0.5-0.5-1.2-0.8-1.9-0.8c-0.7,0-1.4,0.3-2,0.8c-0.5,0.5-0.8,1.2-0.8,2c0,0.7,0.3,1.4,0.8,2
		C1241,4573.2,1241.7,4573.5,1242.4,4573.5z"/>
	<path id="Trazado_2102" class="st2" d="M1348,4537.7c0.2,0.9,0.3,1.9,0.3,2.8c0,0.9-0.1,1.8-0.4,2.7c-0.4,1.3-1.2,2.4-2.2,3.1
		c-1.2,0.8-2.5,1.2-4,1.2c-1.4,0-2.7-0.4-3.9-1.1c-1.1-0.7-1.9-1.8-2.3-3c-0.2-0.5-0.3-1-0.3-1.5v-0.1c0-0.2,0.1-0.2,0.3-0.2h2.4
		c0.2,0,0.3,0.1,0.3,0.2c0,0,0,0,0,0c0,0.2,0.1,0.4,0.2,0.7c0.2,0.7,0.6,1.4,1.2,1.8c0.6,0.5,1.3,0.7,2.1,0.7c0.8,0,1.5-0.2,2.2-0.7
		c0.6-0.5,1-1.2,1.2-1.9c0.2-0.6,0.2-1.2,0.2-1.8c0-0.6-0.1-1.3-0.2-1.9c-0.1-0.7-0.5-1.4-1.1-1.8c-0.6-0.4-1.4-0.7-2.2-0.6
		c-0.8,0-1.5,0.2-2.2,0.5c-0.6,0.3-1,0.8-1.2,1.4c0,0.2-0.2,0.3-0.3,0.3h-2.5c-0.1,0-0.3-0.1-0.3-0.2c0,0,0-0.1,0-0.1v-12.2
		c0-0.1,0.1-0.3,0.2-0.3c0,0,0.1,0,0.1,0h11.6c0.1,0,0.3,0.1,0.3,0.2c0,0,0,0.1,0,0.1v2c0,0.1-0.1,0.3-0.2,0.3c0,0-0.1,0-0.1,0h-8.8
		c-0.1,0-0.1,0-0.1,0.1c0,0,0,0,0,0l0,6.5c0,0.1,0.1,0.2,0.2,0.1c0.5-0.4,1.1-0.8,1.7-1c0.7-0.2,1.4-0.3,2.1-0.3
		c1.3,0,2.6,0.3,3.7,1.1C1347,4535.3,1347.7,4536.4,1348,4537.7z M1363.7,4536.6c0.6,1.2,0.9,2.6,0.9,3.9c0,1.1-0.2,2.3-0.6,3.3
		c-0.4,1.1-1.2,2.1-2.2,2.7c-1.1,0.7-2.4,1-3.6,0.9c-1.4,0-2.7-0.3-3.9-1.1c-1.1-0.7-1.9-1.8-2.2-3c-0.3-1-0.5-2-0.5-3v-9.5
		c-0.1-1.6,0.6-3,1.8-4.1c1.3-1.1,2.9-1.6,4.6-1.5c1.1,0,2.2,0.2,3.2,0.7c0.9,0.4,1.7,1.1,2.2,1.9c0.5,0.8,0.8,1.8,0.8,2.8v0.6
		c0,0.1-0.1,0.3-0.2,0.3c0,0-0.1,0-0.1,0h-2.4c-0.1,0-0.3-0.1-0.3-0.2c0,0,0-0.1,0-0.1v-0.3c0-0.8-0.3-1.7-0.9-2.3
		c-0.6-0.6-1.5-0.9-2.3-0.9c-0.9,0-1.8,0.3-2.5,0.9c-0.6,0.6-1,1.5-0.9,2.4v3.9c0,0,0,0.1,0,0.1c0,0,0.1,0,0.1,0
		c1-1,2.4-1.6,3.9-1.5C1360.7,4533.5,1362.7,4534.7,1363.7,4536.6z M1361.1,4542.9c0.3-0.8,0.5-1.6,0.5-2.4c0-0.9-0.2-1.8-0.6-2.5
		c-0.5-1.2-1.8-1.9-3-1.8c-0.7,0-1.3,0.1-1.9,0.5c-0.5,0.3-0.9,0.8-1.2,1.4c-0.4,0.8-0.5,1.7-0.5,2.6c0,0.8,0.1,1.5,0.4,2.2
		c0.2,0.6,0.7,1.1,1.2,1.5c0.6,0.4,1.3,0.5,2,0.5C1359.4,4545,1360.7,4544.2,1361.1,4542.9z M1373.1,4534.5c-0.8,0-1.6-0.2-2.3-0.6
		c-0.7-0.4-1.3-1-1.7-1.7c-0.4-0.7-0.6-1.5-0.6-2.3c0-0.8,0.2-1.6,0.6-2.3c0.4-0.7,1-1.3,1.7-1.7c0.7-0.4,1.5-0.6,2.3-0.6
		c0.8,0,1.6,0.2,2.3,0.6c0.7,0.4,1.3,1,1.7,1.7c0.4,0.7,0.6,1.5,0.6,2.3c0,0.8-0.2,1.6-0.6,2.3c-0.4,0.7-1,1.3-1.7,1.7
		C1374.7,4534.3,1373.9,4534.5,1373.1,4534.5L1373.1,4534.5z M1372.2,4547.3c-0.1,0-0.2,0-0.2-0.1c0-0.1,0-0.2,0-0.3l11.7-21.1
		c0.1-0.1,0.2-0.2,0.4-0.2h1.5c0.1,0,0.2,0,0.2,0.1c0,0.1,0,0.2,0,0.3l-11.7,21.1c-0.1,0.1-0.2,0.2-0.4,0.2H1372.2z M1373.1,4532.6
		c0.7,0,1.4-0.3,1.9-0.8c0.5-0.5,0.8-1.2,0.8-2c0-0.7-0.3-1.4-0.8-1.9c-0.5-0.5-1.2-0.8-1.9-0.8c-0.7,0-1.4,0.3-2,0.8
		c-0.5,0.5-0.8,1.2-0.8,1.9c0,0.7,0.3,1.5,0.8,2C1371.7,4532.4,1372.4,4532.7,1373.1,4532.6L1373.1,4532.6z M1384.9,4547.5
		c-0.8,0-1.6-0.2-2.3-0.6c-0.7-0.4-1.3-1-1.7-1.7c-0.4-0.7-0.6-1.5-0.6-2.3c0-0.8,0.2-1.6,0.6-2.3c0.4-0.7,1-1.3,1.7-1.7
		c0.7-0.4,1.5-0.6,2.3-0.6c0.8,0,1.6,0.2,2.3,0.6c0.7,0.4,1.3,1,1.7,1.7c0.4,0.7,0.6,1.5,0.6,2.3c0,0.8-0.2,1.6-0.6,2.3
		c-0.4,0.7-1,1.3-1.7,1.7C1386.5,4547.3,1385.7,4547.6,1384.9,4547.5z M1384.9,4545.7c0.7,0,1.4-0.3,1.9-0.8c0.5-0.5,0.8-1.2,0.8-2
		c0-0.7-0.3-1.4-0.8-2c-0.5-0.5-1.2-0.8-1.9-0.8c-0.7,0-1.4,0.3-2,0.8c-0.5,0.5-0.8,1.2-0.8,2c0,0.7,0.3,1.4,0.8,2
		C1383.5,4545.4,1384.2,4545.7,1384.9,4545.7z"/>
	<path id="Trazado_2101" class="st2" d="M1507.5,4498.7c0.6,1.2,0.9,2.6,0.9,3.9c0,1.1-0.2,2.3-0.6,3.3c-0.4,1.1-1.2,2.1-2.2,2.7
		c-1.1,0.7-2.4,1-3.6,0.9c-1.4,0-2.7-0.3-3.9-1.1c-1.1-0.7-1.9-1.8-2.2-3c-0.3-1-0.5-2-0.5-3v-9.5c-0.1-1.6,0.6-3,1.8-4.1
		c1.3-1.1,2.9-1.6,4.6-1.5c1.1,0,2.2,0.2,3.2,0.7c0.9,0.4,1.7,1.1,2.2,1.9c0.5,0.8,0.8,1.8,0.8,2.8v0.6c0,0.1-0.1,0.3-0.2,0.3
		c0,0-0.1,0-0.1,0h-2.4c-0.1,0-0.3-0.1-0.3-0.2c0,0,0-0.1,0-0.1v-0.3c0-0.8-0.3-1.7-0.9-2.3c-0.6-0.6-1.5-0.9-2.3-0.9
		c-0.9,0-1.8,0.3-2.5,0.9c-0.6,0.6-1,1.5-0.9,2.4v3.9c0,0,0,0.1,0,0.1c0,0,0.1,0,0.1,0c1-1,2.4-1.6,3.9-1.5
		C1504.5,4495.6,1506.5,4496.7,1507.5,4498.7z M1504.9,4505c0.3-0.8,0.5-1.6,0.5-2.4c0-0.9-0.2-1.8-0.6-2.5c-0.5-1.2-1.8-1.9-3-1.8
		c-0.7,0-1.3,0.1-1.9,0.5c-0.5,0.3-0.9,0.8-1.2,1.4c-0.4,0.8-0.5,1.7-0.5,2.6c0,0.8,0.1,1.5,0.4,2.2c0.2,0.6,0.7,1.1,1.2,1.5
		c0.6,0.4,1.3,0.5,2,0.5C1503.2,4507.1,1504.5,4506.3,1504.9,4505z M1524.3,4499.8c0.2,0.9,0.3,1.9,0.3,2.8c0,0.9-0.1,1.8-0.4,2.7
		c-0.4,1.3-1.2,2.4-2.2,3.1c-1.2,0.8-2.5,1.2-4,1.2c-1.4,0-2.7-0.4-3.9-1.1c-1.1-0.7-1.9-1.8-2.3-3c-0.2-0.5-0.3-1-0.3-1.5v-0.1
		c0-0.2,0.1-0.2,0.3-0.2h2.4c0.2,0,0.3,0.1,0.3,0.2c0,0,0,0,0,0c0,0.2,0.1,0.4,0.2,0.7c0.2,0.7,0.6,1.4,1.2,1.8
		c0.6,0.5,1.3,0.7,2.1,0.7c0.8,0,1.5-0.2,2.2-0.7c0.6-0.5,1-1.2,1.2-1.9c0.2-0.6,0.2-1.2,0.2-1.8c0-0.6-0.1-1.3-0.2-1.9
		c-0.1-0.7-0.5-1.4-1.1-1.8c-0.6-0.4-1.4-0.7-2.2-0.6c-0.8,0-1.5,0.2-2.2,0.5c-0.6,0.3-1,0.8-1.2,1.4c0,0.2-0.2,0.3-0.3,0.3h-2.5
		c-0.1,0-0.3-0.1-0.3-0.2c0,0,0-0.1,0-0.1V4488c0-0.1,0.1-0.3,0.2-0.3c0,0,0.1,0,0.1,0h11.6c0.1,0,0.3,0.1,0.3,0.2c0,0,0,0.1,0,0.1
		v2c0,0.1-0.1,0.3-0.2,0.3c0,0-0.1,0-0.1,0h-8.8c-0.1,0-0.1,0-0.1,0.1c0,0,0,0,0,0l0,6.5c0,0.1,0.1,0.2,0.2,0.1
		c0.5-0.4,1.1-0.8,1.7-1c0.7-0.2,1.4-0.3,2.1-0.3c1.3,0,2.6,0.3,3.7,1.1C1523.2,4497.4,1524,4498.5,1524.3,4499.8z M1533.2,4496.6
		c-0.8,0-1.6-0.2-2.3-0.6c-0.7-0.4-1.3-1-1.7-1.7c-0.4-0.7-0.6-1.5-0.6-2.3c0-0.8,0.2-1.6,0.6-2.3c0.4-0.7,1-1.3,1.7-1.7
		c0.7-0.4,1.5-0.6,2.3-0.6c0.8,0,1.6,0.2,2.3,0.6c0.7,0.4,1.3,1,1.7,1.7c0.4,0.7,0.6,1.5,0.6,2.3c0,0.8-0.2,1.6-0.6,2.3
		c-0.4,0.7-1,1.3-1.7,1.7C1534.8,4496.4,1534,4496.6,1533.2,4496.6L1533.2,4496.6z M1532.3,4509.4c-0.1,0-0.2,0-0.2-0.1
		c0-0.1,0-0.2,0-0.3l11.7-21.1c0.1-0.1,0.2-0.2,0.4-0.2h1.5c0.1,0,0.2,0,0.2,0.1c0,0.1,0,0.2,0,0.3l-11.7,21.1
		c-0.1,0.1-0.2,0.2-0.4,0.2H1532.3z M1533.2,4494.7c0.7,0,1.4-0.3,1.9-0.8c0.5-0.5,0.8-1.2,0.8-2c0-0.7-0.3-1.4-0.8-1.9
		c-0.5-0.5-1.2-0.8-1.9-0.8c-0.7,0-1.4,0.3-2,0.8c-0.5,0.5-0.8,1.2-0.8,1.9c0,0.7,0.3,1.5,0.8,2
		C1531.7,4494.5,1532.4,4494.7,1533.2,4494.7L1533.2,4494.7z M1545,4509.6c-0.8,0-1.6-0.2-2.3-0.6c-0.7-0.4-1.3-1-1.7-1.7
		c-0.4-0.7-0.6-1.5-0.6-2.3c0-0.8,0.2-1.6,0.6-2.3c0.4-0.7,1-1.3,1.7-1.7c0.7-0.4,1.5-0.6,2.3-0.6c0.8,0,1.6,0.2,2.3,0.6
		c0.7,0.4,1.3,1,1.7,1.7c0.4,0.7,0.6,1.5,0.6,2.3c0,0.8-0.2,1.6-0.6,2.3c-0.4,0.7-1,1.3-1.7,1.7
		C1546.6,4509.4,1545.8,4509.7,1545,4509.6z M1545,4507.8c0.7,0,1.4-0.3,1.9-0.8c0.5-0.5,0.8-1.2,0.8-2c0-0.7-0.3-1.4-0.8-2
		c-0.5-0.5-1.2-0.8-1.9-0.8c-0.7,0-1.4,0.3-2,0.8c-0.5,0.5-0.8,1.2-0.8,2c0,0.7,0.3,1.4,0.8,2
		C1543.5,4507.5,1544.2,4507.8,1545,4507.8z"/>
	<path id="Trazado_2100" class="st2" d="M1663.2,4481c0.6,1.2,0.9,2.6,0.9,3.9c0,1.1-0.2,2.3-0.6,3.3c-0.4,1.1-1.2,2.1-2.2,2.7
		c-1.1,0.7-2.4,1-3.6,0.9c-1.4,0-2.7-0.3-3.9-1.1c-1.1-0.7-1.9-1.8-2.2-3c-0.3-1-0.5-2-0.5-3v-9.5c-0.1-1.6,0.6-3,1.8-4.1
		c1.3-1.1,2.9-1.6,4.6-1.5c1.1,0,2.2,0.2,3.2,0.7c0.9,0.4,1.7,1.1,2.2,1.9c0.5,0.8,0.8,1.8,0.8,2.8v0.6c0,0.1-0.1,0.3-0.2,0.3
		c0,0-0.1,0-0.1,0h-2.4c-0.1,0-0.3-0.1-0.3-0.2c0,0,0-0.1,0-0.1v-0.3c0-0.8-0.3-1.7-0.9-2.3c-0.6-0.6-1.5-0.9-2.3-0.9
		c-0.9,0-1.8,0.3-2.5,0.9c-0.6,0.6-1,1.5-0.9,2.4v3.9c0,0,0,0.1,0,0.1c0,0,0.1,0,0.1,0c1-1,2.4-1.6,3.9-1.5
		C1660.1,4477.9,1662.2,4479,1663.2,4481z M1660.6,4487.3c0.3-0.8,0.5-1.6,0.5-2.4c0-0.9-0.2-1.8-0.6-2.5c-0.5-1.2-1.8-1.9-3-1.8
		c-0.7,0-1.3,0.1-1.9,0.5c-0.5,0.3-0.9,0.8-1.2,1.4c-0.4,0.8-0.5,1.7-0.5,2.6c0,0.8,0.1,1.5,0.4,2.2c0.2,0.6,0.7,1.1,1.2,1.5
		c0.6,0.4,1.3,0.5,2,0.5C1658.9,4489.4,1660.1,4488.6,1660.6,4487.3z M1669.8,4491.7c-0.1,0-0.2,0-0.2-0.1c-0.1-0.1-0.1-0.2,0-0.3
		l7-18.6c0,0,0-0.1,0-0.1c0,0-0.1,0-0.1,0h-7.5c-0.1,0-0.1,0-0.1,0.1c0,0,0,0,0,0v1.5c0,0.1-0.1,0.3-0.2,0.3c0,0-0.1,0-0.1,0h-1.9
		c-0.1,0-0.3-0.1-0.3-0.2c0,0,0-0.1,0-0.1v-3.8c0-0.1,0.1-0.3,0.2-0.3c0,0,0.1,0,0.1,0h12.7c0.1,0,0.3,0.1,0.3,0.2c0,0,0,0.1,0,0.1
		v2.1c0,0.1,0,0.3-0.1,0.4l-7,18.7c0,0.2-0.2,0.3-0.3,0.2H1669.8z M1687.5,4478.9c-0.8,0-1.6-0.2-2.3-0.6c-0.7-0.4-1.3-1-1.7-1.7
		c-0.4-0.7-0.6-1.5-0.6-2.3c0-0.8,0.2-1.6,0.6-2.3c0.4-0.7,1-1.3,1.7-1.7c0.7-0.4,1.5-0.6,2.3-0.6c0.8,0,1.6,0.2,2.3,0.6
		c0.7,0.4,1.3,1,1.7,1.7c0.4,0.7,0.6,1.5,0.6,2.3c0,0.8-0.2,1.6-0.6,2.3c-0.4,0.7-1,1.3-1.7,1.7
		C1689.1,4478.7,1688.3,4478.9,1687.5,4478.9z M1686.6,4491.7c-0.1,0-0.2,0-0.2-0.1c0-0.1,0-0.2,0-0.3l11.7-21.1
		c0.1-0.1,0.2-0.2,0.4-0.2h1.5c0.1,0,0.2,0,0.2,0.1c0,0.1,0,0.2,0,0.3l-11.7,21.1c-0.1,0.1-0.2,0.2-0.4,0.2H1686.6z M1687.5,4477
		c0.7,0,1.4-0.3,1.9-0.8c0.5-0.5,0.8-1.2,0.8-2c0-0.7-0.3-1.4-0.8-1.9c-0.5-0.5-1.2-0.8-1.9-0.8c-0.7,0-1.4,0.3-2,0.8
		c-0.5,0.5-0.8,1.2-0.8,1.9c0,0.7,0.3,1.5,0.8,2C1686.1,4476.8,1686.8,4477,1687.5,4477L1687.5,4477z M1699.3,4491.9
		c-0.8,0-1.6-0.2-2.3-0.6c-0.7-0.4-1.3-1-1.7-1.7c-0.4-0.7-0.6-1.5-0.6-2.3c0-0.8,0.2-1.6,0.6-2.3c0.4-0.7,1-1.3,1.7-1.7
		c0.7-0.4,1.5-0.6,2.3-0.6c0.8,0,1.6,0.2,2.3,0.6c0.7,0.4,1.3,1,1.7,1.7c0.4,0.7,0.6,1.5,0.6,2.3c0,0.8-0.2,1.6-0.6,2.3
		c-0.4,0.7-1,1.3-1.7,1.7C1700.9,4491.7,1700.1,4492,1699.3,4491.9z M1699.3,4490.1c0.7,0,1.4-0.3,1.9-0.8c0.5-0.5,0.8-1.2,0.8-2
		c0-0.7-0.3-1.4-0.8-2c-0.5-0.5-1.2-0.8-1.9-0.8c-0.7,0-1.4,0.3-2,0.8c-0.5,0.5-0.8,1.2-0.8,2c0,0.7,0.3,1.4,0.8,2
		C1697.9,4489.8,1698.6,4490.1,1699.3,4490.1z"/>
	<path id="Trazado_1184" class="st2" d="M1204.9,4590.2c-0.2,0-0.5-0.2-0.5-0.4c0-0.3,0.1-0.5,0.4-0.6c0,0,0,0,0,0l155.4-25.3
		l155.4-40.4h0l155.4-20.2c0.3,0,0.5,0.2,0.6,0.4c0,0.3-0.2,0.5-0.4,0.6l-155.4,20.2l-155.4,40.4L1204.9,4590.2
		C1205,4590.1,1204.9,4590.2,1204.9,4590.2z"/>
</g>
</svg>
