<svg xmlns="http://www.w3.org/2000/svg" width="566.814" height="330.147" viewBox="0 0 566.814 330.147">
  <g id="Grupo_2054" data-name="Grupo 2054" transform="translate(-1105.781 -1930.071)">
    <path id="Trazado_1233" data-name="Trazado 1233" d="M0,0H56.23" transform="translate(1137.111 2258.621)" fill="none" stroke="#ff6429" stroke-linecap="round" stroke-width="1"/>
    <path id="Trazado_2175" data-name="Trazado 2175" d="M7.456,0a.227.227,0,0,1-.224-.144L5.12-4.752a.1.1,0,0,0-.1-.064H3.1a.071.071,0,0,0-.08.08V-.192a.185.185,0,0,1-.056.136A.185.185,0,0,1,2.832,0H1.36a.185.185,0,0,1-.136-.056.185.185,0,0,1-.056-.136V-11.008a.185.185,0,0,1,.056-.136A.185.185,0,0,1,1.36-11.2h4.4a3.566,3.566,0,0,1,1.728.408A2.891,2.891,0,0,1,8.656-9.64a3.432,3.432,0,0,1,.416,1.7A3.1,3.1,0,0,1,8.5-6.056a2.938,2.938,0,0,1-1.576,1.08.051.051,0,0,0-.048.032.068.068,0,0,0,0,.064L9.136-.224a.246.246,0,0,1,.032.1Q9.168,0,8.992,0ZM3.1-9.6a.071.071,0,0,0-.08.08v3.184a.071.071,0,0,0,.08.08H5.5a1.709,1.709,0,0,0,1.24-.456A1.6,1.6,0,0,0,7.216-7.92a1.629,1.629,0,0,0-.472-1.216A1.693,1.693,0,0,0,5.5-9.6ZM17.6-5.008a5.7,5.7,0,0,1,.064.9l-.016.5a.17.17,0,0,1-.192.192H12.448a.071.071,0,0,0-.08.08,2.289,2.289,0,0,0,.144.72,1.759,1.759,0,0,0,1.872,1.168,2.016,2.016,0,0,0,1.728-.9.188.188,0,0,1,.16-.1.153.153,0,0,1,.112.048l.992.816a.17.17,0,0,1,.048.256A3.268,3.268,0,0,1,16.1-.24a4.284,4.284,0,0,1-1.832.384,3.842,3.842,0,0,1-2.12-.56A3.222,3.222,0,0,1,10.88-1.984a6.292,6.292,0,0,1-.368-2.4,4.865,4.865,0,0,1,.192-1.5,3.209,3.209,0,0,1,1.208-1.768A3.525,3.525,0,0,1,14.048-8.3Q17.2-8.3,17.6-5.008ZM14.048-6.7a1.587,1.587,0,0,0-.984.3,1.567,1.567,0,0,0-.552.824,2.778,2.778,0,0,0-.128.7q-.032.08.064.08H15.7a.071.071,0,0,0,.08-.08,3.017,3.017,0,0,0-.1-.608,1.552,1.552,0,0,0-.568-.9A1.716,1.716,0,0,0,14.048-6.7Zm10.384-4.3a.185.185,0,0,1,.056-.136.185.185,0,0,1,.136-.056H26.1a.185.185,0,0,1,.136.056.185.185,0,0,1,.056.136V-.192a.185.185,0,0,1-.056.136A.185.185,0,0,1,26.1,0H24.624a.185.185,0,0,1-.136-.056.185.185,0,0,1-.056-.136v-.48A.064.064,0,0,0,24.4-.736q-.032-.016-.064.032A2.3,2.3,0,0,1,22.5.128a3.094,3.094,0,0,1-1.92-.592A3.31,3.31,0,0,1,19.44-2.112a6.516,6.516,0,0,1-.288-2,6.2,6.2,0,0,1,.272-1.952A3.31,3.31,0,0,1,20.56-7.712,3.173,3.173,0,0,1,22.528-8.3a2.3,2.3,0,0,1,1.808.8.066.066,0,0,0,.064.024q.032-.008.032-.056ZM24.048-2.24A3.838,3.838,0,0,0,24.416-4.1a3.694,3.694,0,0,0-.4-1.9A1.354,1.354,0,0,0,22.8-6.7a1.472,1.472,0,0,0-1.28.672,3.43,3.43,0,0,0-.48,1.952,3.891,3.891,0,0,0,.384,1.84,1.472,1.472,0,0,0,1.36.768A1.4,1.4,0,0,0,24.048-2.24Zm9.088-5.744a.185.185,0,0,1,.056-.136.185.185,0,0,1,.136-.056h1.456a.185.185,0,0,1,.136.056.185.185,0,0,1,.056.136V-.192a.185.185,0,0,1-.056.136A.185.185,0,0,1,34.784,0H33.328a.185.185,0,0,1-.136-.056.185.185,0,0,1-.056-.136V-.7A.064.064,0,0,0,33.1-.768q-.032-.016-.064.032a2.333,2.333,0,0,1-1.968.848,3.031,3.031,0,0,1-2.04-.7,2.487,2.487,0,0,1-.824-2V-7.984a.185.185,0,0,1,.056-.136.185.185,0,0,1,.136-.056h1.472a.185.185,0,0,1,.136.056.185.185,0,0,1,.056.136V-3.12a1.758,1.758,0,0,0,.392,1.2,1.379,1.379,0,0,0,1.1.448A1.526,1.526,0,0,0,32.7-1.92a1.656,1.656,0,0,0,.432-1.2ZM40.368.128A3.6,3.6,0,0,1,38.24-.5a3.279,3.279,0,0,1-1.248-1.7,5.878,5.878,0,0,1-.256-1.92,5.845,5.845,0,0,1,.256-1.888,3.106,3.106,0,0,1,1.24-1.672A3.7,3.7,0,0,1,40.368-8.3a3.807,3.807,0,0,1,2.176.624,2.971,2.971,0,0,1,1.232,1.568,2.935,2.935,0,0,1,.112.512v.032a.184.184,0,0,1-.176.192l-1.44.208H42.24a.192.192,0,0,1-.192-.16.416.416,0,0,0-.016-.128Q42-5.584,41.968-5.68a1.382,1.382,0,0,0-.576-.736A1.8,1.8,0,0,0,40.368-6.7a1.693,1.693,0,0,0-1.032.312,1.5,1.5,0,0,0-.568.856,4.979,4.979,0,0,0-.16,1.424,5.735,5.735,0,0,0,.144,1.424,1.684,1.684,0,0,0,.576.888,1.628,1.628,0,0,0,1.04.328,1.765,1.765,0,0,0,1.048-.312,1.4,1.4,0,0,0,.568-.84A.178.178,0,0,0,42-2.7a.065.065,0,0,0,.016-.048q.048-.192.224-.16l1.44.224a.26.26,0,0,1,.136.072.164.164,0,0,1,.04.152q-.048.256-.08.368A2.852,2.852,0,0,1,42.544-.472,3.919,3.919,0,0,1,40.368.128Zm8.416,0A3.6,3.6,0,0,1,46.656-.5a3.279,3.279,0,0,1-1.248-1.7,5.878,5.878,0,0,1-.256-1.92,5.845,5.845,0,0,1,.256-1.888,3.106,3.106,0,0,1,1.24-1.672A3.7,3.7,0,0,1,48.784-8.3a3.807,3.807,0,0,1,2.176.624,2.971,2.971,0,0,1,1.232,1.568A2.935,2.935,0,0,1,52.3-5.6v.032a.184.184,0,0,1-.176.192l-1.44.208h-.032a.192.192,0,0,1-.192-.16.416.416,0,0,0-.016-.128q-.032-.128-.064-.224a1.382,1.382,0,0,0-.576-.736A1.8,1.8,0,0,0,48.784-6.7a1.693,1.693,0,0,0-1.032.312,1.5,1.5,0,0,0-.568.856,4.979,4.979,0,0,0-.16,1.424,5.735,5.735,0,0,0,.144,1.424,1.684,1.684,0,0,0,.576.888,1.628,1.628,0,0,0,1.04.328,1.765,1.765,0,0,0,1.048-.312,1.4,1.4,0,0,0,.568-.84.178.178,0,0,0,.016-.08.065.065,0,0,0,.016-.048q.048-.192.224-.16l1.44.224a.26.26,0,0,1,.136.072.164.164,0,0,1,.04.152q-.048.256-.08.368A2.852,2.852,0,0,1,50.96-.472,3.919,3.919,0,0,1,48.784.128ZM54.928-9.3a1.105,1.105,0,0,1-.816-.32,1.105,1.105,0,0,1-.32-.816,1.105,1.105,0,0,1,.32-.816,1.105,1.105,0,0,1,.816-.32,1.105,1.105,0,0,1,.816.32,1.105,1.105,0,0,1,.32.816,1.105,1.105,0,0,1-.32.816A1.105,1.105,0,0,1,54.928-9.3ZM54.16,0a.185.185,0,0,1-.136-.056.185.185,0,0,1-.056-.136V-8a.185.185,0,0,1,.056-.136.185.185,0,0,1,.136-.056h1.472a.185.185,0,0,1,.136.056A.185.185,0,0,1,55.824-8V-.192a.185.185,0,0,1-.056.136A.185.185,0,0,1,55.632,0Zm7.264.128a3.655,3.655,0,0,1-2.168-.64,3.382,3.382,0,0,1-1.272-1.776,6.039,6.039,0,0,1-.272-1.824,5.98,5.98,0,0,1,.256-1.824,3.287,3.287,0,0,1,1.28-1.744A3.787,3.787,0,0,1,61.44-8.3a3.566,3.566,0,0,1,2.1.624A3.333,3.333,0,0,1,64.8-5.952a5.2,5.2,0,0,1,.288,1.824A5.747,5.747,0,0,1,64.816-2.3,3.44,3.44,0,0,1,63.552-.52,3.534,3.534,0,0,1,61.424.128Zm0-1.6a1.586,1.586,0,0,0,1.016-.336,1.892,1.892,0,0,0,.616-.944,4.726,4.726,0,0,0,.16-1.344,4.43,4.43,0,0,0-.16-1.344,1.739,1.739,0,0,0-.608-.936A1.7,1.7,0,0,0,61.392-6.7a1.645,1.645,0,0,0-1.024.328,1.823,1.823,0,0,0-.624.936,4.937,4.937,0,0,0-.16,1.344,4.937,4.937,0,0,0,.16,1.344,1.762,1.762,0,0,0,.616.944A1.7,1.7,0,0,0,61.424-1.472ZM60.56-9.2q-.112,0-.144-.064a.176.176,0,0,1,.016-.16l.88-1.648a.243.243,0,0,1,.24-.128h1.264a.158.158,0,0,1,.152.072.156.156,0,0,1-.024.168l-1.1,1.632a.251.251,0,0,1-.224.128Zm10.032.9a2.817,2.817,0,0,1,2.072.768,2.816,2.816,0,0,1,.776,2.1V-.192a.185.185,0,0,1-.056.136A.185.185,0,0,1,73.248,0H71.776a.185.185,0,0,1-.136-.056.185.185,0,0,1-.056-.136V-5.056a1.7,1.7,0,0,0-.416-1.192,1.422,1.422,0,0,0-1.1-.456,1.46,1.46,0,0,0-1.112.448,1.652,1.652,0,0,0-.424,1.184v4.88a.185.185,0,0,1-.056.136A.185.185,0,0,1,68.336,0H66.864a.185.185,0,0,1-.136-.056.185.185,0,0,1-.056-.136V-7.984a.185.185,0,0,1,.056-.136.185.185,0,0,1,.136-.056h1.472a.185.185,0,0,1,.136.056.185.185,0,0,1,.056.136v.512a.064.064,0,0,0,.032.064q.032.016.048-.032A2.333,2.333,0,0,1,70.592-8.3Z" transform="translate(1205.403 2260.074)" fill="#42454a"/>
    <path id="Trazado_2174" data-name="Trazado 2174" d="M2.888-1.273q-.057.1.038.1H8.892a.168.168,0,0,1,.19.19v.8a.168.168,0,0,1-.19.19H1.311a.168.168,0,0,1-.19-.19v-.8a.311.311,0,0,1,.1-.228q.646-.76,2.907-3.572L5.529-6.536Q7.315-8.8,7.315-10.051a2.055,2.055,0,0,0-.684-1.615,2.588,2.588,0,0,0-1.786-.608,2.466,2.466,0,0,0-1.748.618,2.056,2.056,0,0,0-.646,1.625v.589a.168.168,0,0,1-.19.19H1.273a.168.168,0,0,1-.19-.19v-.76a3.047,3.047,0,0,1,1.092-2.356,3.987,3.987,0,0,1,2.669-.893,4.446,4.446,0,0,1,2.014.437,3.25,3.25,0,0,1,1.349,1.207,3.242,3.242,0,0,1,.475,1.739A6.827,6.827,0,0,1,6.9-6.175q-.931,1.2-3.591,4.408ZM15.143.19A4.01,4.01,0,0,1,12.236-.855a3.7,3.7,0,0,1-1.083-2.793v-6a3.67,3.67,0,0,1,1.083-2.783,4.031,4.031,0,0,1,2.907-1.035,4.1,4.1,0,0,1,2.945,1.045,3.644,3.644,0,0,1,1.1,2.774v6a3.668,3.668,0,0,1-1.1,2.793A4.1,4.1,0,0,1,15.143.19Zm0-1.178a2.726,2.726,0,0,0,1.957-.7,2.471,2.471,0,0,0,.741-1.881V-9.709a2.464,2.464,0,0,0-.731-1.862,2.719,2.719,0,0,0-1.967-.7,2.633,2.633,0,0,0-1.919.7A2.481,2.481,0,0,0,12.5-9.709v6.137a2.505,2.505,0,0,0,.722,1.881A2.633,2.633,0,0,0,15.143-.988Zm7.9-12.255a.545.545,0,0,1,.247-.057H24.32a.168.168,0,0,1,.19.19V-.19a.168.168,0,0,1-.19.19h-.969a.168.168,0,0,1-.19-.19V-11.761a.064.064,0,0,0-.029-.057.063.063,0,0,0-.066,0L21.052-11l-.076.019q-.114,0-.152-.152l-.1-.722v-.038q0-.095.133-.19ZM28.766,0a.164.164,0,0,1-.142-.067.161.161,0,0,1-.01-.161L33-12.027a.063.063,0,0,0,0-.066.064.064,0,0,0-.057-.028h-5.13a.067.067,0,0,0-.076.076v.874a.168.168,0,0,1-.19.19h-.779a.168.168,0,0,1-.19-.19L26.6-13.11a.168.168,0,0,1,.19-.19h7.486a.168.168,0,0,1,.19.19v.874a1.039,1.039,0,0,1-.038.228L30.058-.152A.222.222,0,0,1,29.83,0Z" transform="translate(1135.646 2221)" fill="#6f7075"/>
    <path id="Trazado_2173" data-name="Trazado 2173" d="M2.736-1.206q-.054.09.036.09H8.424a.159.159,0,0,1,.18.18V-.18a.159.159,0,0,1-.18.18H1.242a.159.159,0,0,1-.18-.18V-.936a.3.3,0,0,1,.09-.216q.612-.72,2.754-3.384L5.238-6.192Q6.93-8.334,6.93-9.522a1.947,1.947,0,0,0-.648-1.53,2.452,2.452,0,0,0-1.692-.576,2.336,2.336,0,0,0-1.656.585A1.948,1.948,0,0,0,2.322-9.5v.558a.159.159,0,0,1-.18.18H1.206a.159.159,0,0,1-.18-.18v-.72A2.886,2.886,0,0,1,2.061-11.9a3.778,3.778,0,0,1,2.529-.846A4.212,4.212,0,0,1,6.5-12.33a3.079,3.079,0,0,1,1.278,1.143,3.072,3.072,0,0,1,.45,1.647A6.467,6.467,0,0,1,6.534-5.85q-.882,1.134-3.4,4.176ZM14.346.18a3.8,3.8,0,0,1-2.754-.99,3.507,3.507,0,0,1-1.026-2.646V-9.144a3.477,3.477,0,0,1,1.026-2.637,3.819,3.819,0,0,1,2.754-.981,3.888,3.888,0,0,1,2.79.99A3.452,3.452,0,0,1,18.18-9.144v5.688A3.475,3.475,0,0,1,17.136-.81,3.888,3.888,0,0,1,14.346.18Zm0-1.116A2.583,2.583,0,0,0,16.2-1.6a2.341,2.341,0,0,0,.7-1.782V-9.2a2.334,2.334,0,0,0-.693-1.764,2.576,2.576,0,0,0-1.863-.666,2.5,2.5,0,0,0-1.818.666A2.35,2.35,0,0,0,11.844-9.2v5.814A2.373,2.373,0,0,0,12.528-1.6,2.5,2.5,0,0,0,14.346-.936Zm7.488-11.61a.516.516,0,0,1,.234-.054h.972a.159.159,0,0,1,.18.18V-.18a.159.159,0,0,1-.18.18h-.918a.159.159,0,0,1-.18-.18V-11.142a.061.061,0,0,0-.027-.054.059.059,0,0,0-.063,0l-1.908.774-.072.018q-.108,0-.144-.144l-.09-.684v-.036q0-.09.126-.18ZM32.472-5.292a4.167,4.167,0,0,1,.342,1.764,4,4,0,0,1-.522,2.106A2.987,2.987,0,0,1,31.068-.27a3.907,3.907,0,0,1-1.836.414,4.027,4.027,0,0,1-1.89-.423A2.9,2.9,0,0,1,26.1-1.512a4.091,4.091,0,0,1-.5-2.034,4.362,4.362,0,0,1,.378-1.8A2.763,2.763,0,0,1,27.288-6.7q.09-.036,0-.09a2.847,2.847,0,0,1-.972-.918,3.008,3.008,0,0,1-.54-1.764,3.29,3.29,0,0,1,.54-1.836,2.921,2.921,0,0,1,1.2-1.089,3.754,3.754,0,0,1,1.719-.387,3.67,3.67,0,0,1,1.728.387A2.964,2.964,0,0,1,32.13-11.3a3.432,3.432,0,0,1,.522,1.836,3.175,3.175,0,0,1-.54,1.8,3.1,3.1,0,0,1-.954.882q-.09.054,0,.09A2.639,2.639,0,0,1,32.472-5.292ZM27.324-10.53a2.246,2.246,0,0,0-.288,1.062,2.286,2.286,0,0,0,.378,1.314,1.9,1.9,0,0,0,.747.684,2.287,2.287,0,0,0,1.053.234,2.271,2.271,0,0,0,1.062-.243,1.952,1.952,0,0,0,.756-.693,2.245,2.245,0,0,0,.342-1.314,2.186,2.186,0,0,0-.27-1.08,2.065,2.065,0,0,0-.756-.8,2.166,2.166,0,0,0-1.152-.3,2.05,2.05,0,0,0-1.116.306A2.1,2.1,0,0,0,27.324-10.53Zm3.762,8.622a3.048,3.048,0,0,0,.45-1.71,3.4,3.4,0,0,0-.288-1.458,2.026,2.026,0,0,0-2.034-1.188,2.021,2.021,0,0,0-1.98,1.116A3.159,3.159,0,0,0,26.91-3.6a3.037,3.037,0,0,0,.4,1.638,2.1,2.1,0,0,0,1.926.99A2.012,2.012,0,0,0,31.086-1.908Z" transform="translate(1283.689 2221)" fill="#6f7075"/>
    <path id="Trazado_2172" data-name="Trazado 2172" d="M2.736-1.206q-.054.09.036.09H8.424a.159.159,0,0,1,.18.18V-.18a.159.159,0,0,1-.18.18H1.242a.159.159,0,0,1-.18-.18V-.936a.3.3,0,0,1,.09-.216q.612-.72,2.754-3.384L5.238-6.192Q6.93-8.334,6.93-9.522a1.947,1.947,0,0,0-.648-1.53,2.452,2.452,0,0,0-1.692-.576,2.336,2.336,0,0,0-1.656.585A1.948,1.948,0,0,0,2.322-9.5v.558a.159.159,0,0,1-.18.18H1.206a.159.159,0,0,1-.18-.18v-.72A2.886,2.886,0,0,1,2.061-11.9a3.778,3.778,0,0,1,2.529-.846A4.212,4.212,0,0,1,6.5-12.33a3.079,3.079,0,0,1,1.278,1.143,3.072,3.072,0,0,1,.45,1.647A6.467,6.467,0,0,1,6.534-5.85q-.882,1.134-3.4,4.176ZM14.346.18a3.8,3.8,0,0,1-2.754-.99,3.507,3.507,0,0,1-1.026-2.646V-9.144a3.477,3.477,0,0,1,1.026-2.637,3.819,3.819,0,0,1,2.754-.981,3.888,3.888,0,0,1,2.79.99A3.452,3.452,0,0,1,18.18-9.144v5.688A3.475,3.475,0,0,1,17.136-.81,3.888,3.888,0,0,1,14.346.18Zm0-1.116A2.583,2.583,0,0,0,16.2-1.6a2.341,2.341,0,0,0,.7-1.782V-9.2a2.334,2.334,0,0,0-.693-1.764,2.576,2.576,0,0,0-1.863-.666,2.5,2.5,0,0,0-1.818.666A2.35,2.35,0,0,0,11.844-9.2v5.814A2.373,2.373,0,0,0,12.528-1.6,2.5,2.5,0,0,0,14.346-.936Zm7.488-11.61a.516.516,0,0,1,.234-.054h.972a.159.159,0,0,1,.18.18V-.18a.159.159,0,0,1-.18.18h-.918a.159.159,0,0,1-.18-.18V-11.142a.061.061,0,0,0-.027-.054.059.059,0,0,0-.063,0l-1.908.774-.072.018q-.108,0-.144-.144l-.09-.684v-.036q0-.09.126-.18Zm10.692,2.16a5.915,5.915,0,0,1,.216,1.692v5.616A3,3,0,0,1,31.77-.729a3.654,3.654,0,0,1-2.538.873,3.522,3.522,0,0,1-2.457-.855,2.858,2.858,0,0,1-.945-2.223v-.252a.159.159,0,0,1,.18-.18h.918a.159.159,0,0,1,.18.18v.144A1.988,1.988,0,0,0,27.7-1.548a2.106,2.106,0,0,0,1.53.576,2.223,2.223,0,0,0,1.6-.6,2.1,2.1,0,0,0,.63-1.593V-5.8a.043.043,0,0,0-.036-.045.044.044,0,0,0-.054.027A2.774,2.774,0,0,1,29-4.752a3.38,3.38,0,0,1-1.9-.5,3.144,3.144,0,0,1-1.161-1.422A4.639,4.639,0,0,1,25.56-8.73a5.079,5.079,0,0,1,.27-1.8,3.243,3.243,0,0,1,1.215-1.62,3.549,3.549,0,0,1,2.061-.576,3.73,3.73,0,0,1,2.187.621A3.18,3.18,0,0,1,32.526-10.386ZM29.16-5.868A2.268,2.268,0,0,0,30.5-6.255a2.007,2.007,0,0,0,.765-1.071,4.257,4.257,0,0,0,.2-1.458A4.621,4.621,0,0,0,31.3-10.1a2.128,2.128,0,0,0-.774-1.1,2.232,2.232,0,0,0-1.368-.414,2.279,2.279,0,0,0-1.332.387,2.083,2.083,0,0,0-.792,1.125,3.837,3.837,0,0,0-.2,1.368,3.6,3.6,0,0,0,.234,1.44,2.028,2.028,0,0,0,.756,1.035A2.227,2.227,0,0,0,29.16-5.868Z" transform="translate(1432.223 2221)" fill="#6f7075"/>
    <path id="Trazado_2171" data-name="Trazado 2171" d="M2.736-1.206q-.054.09.036.09H8.424a.159.159,0,0,1,.18.18V-.18a.159.159,0,0,1-.18.18H1.242a.159.159,0,0,1-.18-.18V-.936a.3.3,0,0,1,.09-.216q.612-.72,2.754-3.384L5.238-6.192Q6.93-8.334,6.93-9.522a1.947,1.947,0,0,0-.648-1.53,2.452,2.452,0,0,0-1.692-.576,2.336,2.336,0,0,0-1.656.585A1.948,1.948,0,0,0,2.322-9.5v.558a.159.159,0,0,1-.18.18H1.206a.159.159,0,0,1-.18-.18v-.72A2.886,2.886,0,0,1,2.061-11.9a3.778,3.778,0,0,1,2.529-.846A4.212,4.212,0,0,1,6.5-12.33a3.079,3.079,0,0,1,1.278,1.143,3.072,3.072,0,0,1,.45,1.647A6.467,6.467,0,0,1,6.534-5.85q-.882,1.134-3.4,4.176ZM14.346.18a3.8,3.8,0,0,1-2.754-.99,3.507,3.507,0,0,1-1.026-2.646V-9.144a3.477,3.477,0,0,1,1.026-2.637,3.819,3.819,0,0,1,2.754-.981,3.888,3.888,0,0,1,2.79.99A3.452,3.452,0,0,1,18.18-9.144v5.688A3.475,3.475,0,0,1,17.136-.81,3.888,3.888,0,0,1,14.346.18Zm0-1.116A2.583,2.583,0,0,0,16.2-1.6a2.341,2.341,0,0,0,.7-1.782V-9.2a2.334,2.334,0,0,0-.693-1.764,2.576,2.576,0,0,0-1.863-.666,2.5,2.5,0,0,0-1.818.666A2.35,2.35,0,0,0,11.844-9.2v5.814A2.373,2.373,0,0,0,12.528-1.6,2.5,2.5,0,0,0,14.346-.936Zm7.488-.27q-.054.09.036.09h5.652a.159.159,0,0,1,.18.18V-.18a.159.159,0,0,1-.18.18H20.34a.159.159,0,0,1-.18-.18V-.936a.3.3,0,0,1,.09-.216q.612-.72,2.754-3.384l1.332-1.656q1.692-2.142,1.692-3.33a1.947,1.947,0,0,0-.648-1.53,2.452,2.452,0,0,0-1.692-.576,2.336,2.336,0,0,0-1.656.585A1.948,1.948,0,0,0,21.42-9.5v.558a.159.159,0,0,1-.18.18H20.3a.159.159,0,0,1-.18-.18v-.72A2.886,2.886,0,0,1,21.159-11.9a3.778,3.778,0,0,1,2.529-.846,4.212,4.212,0,0,1,1.908.414,3.079,3.079,0,0,1,1.278,1.143,3.072,3.072,0,0,1,.45,1.647,6.467,6.467,0,0,1-1.692,3.69q-.882,1.134-3.4,4.176ZM33.444.18A3.8,3.8,0,0,1,30.69-.81a3.507,3.507,0,0,1-1.026-2.646V-9.144a3.477,3.477,0,0,1,1.026-2.637,3.819,3.819,0,0,1,2.754-.981,3.888,3.888,0,0,1,2.79.99,3.452,3.452,0,0,1,1.044,2.628v5.688A3.475,3.475,0,0,1,36.234-.81,3.888,3.888,0,0,1,33.444.18Zm0-1.116A2.583,2.583,0,0,0,35.3-1.6,2.341,2.341,0,0,0,36-3.384V-9.2a2.334,2.334,0,0,0-.693-1.764,2.576,2.576,0,0,0-1.863-.666,2.5,2.5,0,0,0-1.818.666A2.35,2.35,0,0,0,30.942-9.2v5.814A2.373,2.373,0,0,0,31.626-1.6,2.5,2.5,0,0,0,33.444-.936Z" transform="translate(1578.112 2221)" fill="#6f7075"/>
    <path id="Trazado_2176" data-name="Trazado 2176" d="M1.066-6.11A.3.3,0,0,1,.845-6.2a.3.3,0,0,1-.091-.221V-8.944a.3.3,0,0,1,.091-.221.3.3,0,0,1,.221-.091h8.5a.3.3,0,0,1,.221.091.3.3,0,0,1,.091.221v2.522a.3.3,0,0,1-.091.221.3.3,0,0,1-.221.091Zm22.048-1.9a5.9,5.9,0,0,1,.6,2.678,5.239,5.239,0,0,1-.65,2.678A4.91,4.91,0,0,1,20.995-.559,6.765,6.765,0,0,1,17.68.208,7.119,7.119,0,0,1,14.4-.533,4.888,4.888,0,0,1,12.22-2.678,5.8,5.8,0,0,1,11.6-5.356a6.117,6.117,0,0,1,.6-2.678,3.7,3.7,0,0,1,1.3-1.482q.1-.078,0-.182a3.987,3.987,0,0,1-1.066-1.248,4.609,4.609,0,0,1-.6-2.34,4.773,4.773,0,0,1,1.04-3.12,4.953,4.953,0,0,1,2.015-1.573,6.822,6.822,0,0,1,2.8-.559,6.553,6.553,0,0,1,2.808.572,5.215,5.215,0,0,1,1.976,1.56,4.976,4.976,0,0,1,1.04,3.12,4.419,4.419,0,0,1-.676,2.418,4.48,4.48,0,0,1-1.066,1.144q-.1.1,0,.182A3.767,3.767,0,0,1,23.114-8.008Zm-7.384-6.24a2.411,2.411,0,0,0-.26,1.092,2.7,2.7,0,0,0,.338,1.352,2.036,2.036,0,0,0,1.846.936,2.165,2.165,0,0,0,1.9-.936,2.662,2.662,0,0,0,.338-1.378,2.411,2.411,0,0,0-.26-1.092,1.92,1.92,0,0,0-.78-.819,2.409,2.409,0,0,0-1.222-.3,2.185,2.185,0,0,0-1.131.3A1.91,1.91,0,0,0,15.73-14.248Zm3.8,10.4a3.094,3.094,0,0,0,.494-1.82,3.261,3.261,0,0,0-.364-1.612,2.066,2.066,0,0,0-2-1.092A2.008,2.008,0,0,0,15.73-7.306a3.252,3.252,0,0,0-.39,1.69,3.027,3.027,0,0,0,.442,1.69,2.055,2.055,0,0,0,1.9.988A2.054,2.054,0,0,0,19.526-3.848Zm10.92-6.37a4.122,4.122,0,0,1-2.093-.546,4.091,4.091,0,0,1-1.508-1.495,4,4,0,0,1-.559-2.067,3.932,3.932,0,0,1,.559-2.054,4.225,4.225,0,0,1,1.508-1.5,4.048,4.048,0,0,1,2.093-.559,3.932,3.932,0,0,1,2.054.559,4.259,4.259,0,0,1,1.5,1.5,3.932,3.932,0,0,1,.559,2.054,4.073,4.073,0,0,1-.546,2.067,3.993,3.993,0,0,1-1.5,1.495A4.073,4.073,0,0,1,30.446-10.218ZM29.432,0Q29.25,0,29.2-.1a.287.287,0,0,1,.026-.26l9.8-17.628a.43.43,0,0,1,.39-.208H41.34q.182,0,.234.1a.287.287,0,0,1-.026.26L31.772-.208a.43.43,0,0,1-.39.208Zm1.014-12.35a1.836,1.836,0,0,0,1.365-.572,1.932,1.932,0,0,0,.559-1.4,1.9,1.9,0,0,0-.559-1.378,1.836,1.836,0,0,0-1.365-.572,1.909,1.909,0,0,0-1.4.572,1.878,1.878,0,0,0-.572,1.378,1.909,1.909,0,0,0,.572,1.4A1.909,1.909,0,0,0,30.446-12.35ZM40.586.234a4,4,0,0,1-2.067-.559,4.192,4.192,0,0,1-1.508-1.508A4,4,0,0,1,36.452-3.9a3.932,3.932,0,0,1,.559-2.054,4.122,4.122,0,0,1,1.508-1.482,4.073,4.073,0,0,1,2.067-.546,4.073,4.073,0,0,1,2.067.546,4.122,4.122,0,0,1,1.508,1.482A3.932,3.932,0,0,1,44.72-3.9a4,4,0,0,1-.559,2.067A4.192,4.192,0,0,1,42.653-.325,4,4,0,0,1,40.586.234Zm0-2.158A1.878,1.878,0,0,0,41.964-2.5a1.909,1.909,0,0,0,.572-1.4,1.878,1.878,0,0,0-.572-1.378,1.878,1.878,0,0,0-1.378-.572,1.9,1.9,0,0,0-1.378.559A1.866,1.866,0,0,0,38.636-3.9a1.932,1.932,0,0,0,.559,1.4A1.866,1.866,0,0,0,40.586-1.924Z" transform="translate(1304.224 2026.16)" fill="#ff6429"/>
    <path id="Trazado_2177" data-name="Trazado 2177" d="M3.75-17.425a.744.744,0,0,1,.375-.075H7.15a.289.289,0,0,1,.212.087.289.289,0,0,1,.088.212V-.3a.289.289,0,0,1-.088.213A.289.289,0,0,1,7.15,0H4.225a.289.289,0,0,1-.212-.088A.289.289,0,0,1,3.925-.3V-14a.144.144,0,0,0-.05-.1.082.082,0,0,0-.1-.025L1.3-13.45l-.1.025q-.225,0-.225-.275L.9-15.85a.354.354,0,0,1,.225-.35Zm9.025,0a.744.744,0,0,1,.375-.075h3.025a.289.289,0,0,1,.212.087.289.289,0,0,1,.088.212V-.3a.289.289,0,0,1-.088.213A.289.289,0,0,1,16.175,0H13.25a.289.289,0,0,1-.212-.088A.289.289,0,0,1,12.95-.3V-14a.144.144,0,0,0-.05-.1.082.082,0,0,0-.1-.025l-2.475.675-.1.025Q10-13.425,10-13.7l-.075-2.15a.354.354,0,0,1,.225-.35ZM23.4-9.825a3.964,3.964,0,0,1-2.012-.525,3.933,3.933,0,0,1-1.45-1.437,3.846,3.846,0,0,1-.538-1.987,3.781,3.781,0,0,1,.538-1.975,4.063,4.063,0,0,1,1.45-1.437,3.892,3.892,0,0,1,2.012-.538,3.781,3.781,0,0,1,1.975.538,4.1,4.1,0,0,1,1.438,1.438,3.781,3.781,0,0,1,.538,1.975,3.916,3.916,0,0,1-.525,1.987,3.839,3.839,0,0,1-1.437,1.438A3.916,3.916,0,0,1,23.4-9.825ZM22.425,0Q22.25,0,22.2-.1a.276.276,0,0,1,.025-.25L31.65-17.3a.413.413,0,0,1,.375-.2h1.85q.175,0,.225.1a.276.276,0,0,1-.025.25L24.675-.2A.413.413,0,0,1,24.3,0ZM23.4-11.875a1.765,1.765,0,0,0,1.313-.55,1.857,1.857,0,0,0,.538-1.35,1.827,1.827,0,0,0-.538-1.325,1.765,1.765,0,0,0-1.312-.55,1.835,1.835,0,0,0-1.35.55,1.806,1.806,0,0,0-.55,1.325,1.835,1.835,0,0,0,.55,1.35A1.835,1.835,0,0,0,23.4-11.875ZM33.15.225a3.846,3.846,0,0,1-1.988-.537,4.031,4.031,0,0,1-1.45-1.45,3.846,3.846,0,0,1-.538-1.988,3.781,3.781,0,0,1,.538-1.975,3.963,3.963,0,0,1,1.45-1.425,3.917,3.917,0,0,1,1.988-.525,3.917,3.917,0,0,1,1.987.525,3.963,3.963,0,0,1,1.45,1.425,3.781,3.781,0,0,1,.537,1.975,3.846,3.846,0,0,1-.537,1.988,4.031,4.031,0,0,1-1.45,1.45A3.846,3.846,0,0,1,33.15.225Zm0-2.075a1.806,1.806,0,0,0,1.325-.55,1.835,1.835,0,0,0,.55-1.35,1.806,1.806,0,0,0-.55-1.325,1.806,1.806,0,0,0-1.325-.55,1.827,1.827,0,0,0-1.325.537,1.794,1.794,0,0,0-.55,1.337,1.857,1.857,0,0,0,.537,1.35A1.794,1.794,0,0,0,33.15-1.85Z" transform="translate(1455.578 1947.796)" fill="#ff6429"/>
    <path id="Trazado_2178" data-name="Trazado 2178" d="M1.025-5.875a.289.289,0,0,1-.212-.088.289.289,0,0,1-.088-.212V-8.6a.289.289,0,0,1,.088-.212A.289.289,0,0,1,1.025-8.9H9.2a.289.289,0,0,1,.213.088A.289.289,0,0,1,9.5-8.6v2.425a.289.289,0,0,1-.087.212.289.289,0,0,1-.213.088ZM22.15-8.35a6.593,6.593,0,0,1,.5,2.65,6.8,6.8,0,0,1-.45,2.5A4.939,4.939,0,0,1,20.188-.7,6.077,6.077,0,0,1,16.85.2a5.913,5.913,0,0,1-3.337-.95A5.285,5.285,0,0,1,11.45-3.325a7.117,7.117,0,0,1-.4-2.1.265.265,0,0,1,.3-.3H14.3a.265.265,0,0,1,.3.3A4.643,4.643,0,0,0,14.875-4.2a2,2,0,0,0,.738,1.012,2.045,2.045,0,0,0,1.213.362A1.919,1.919,0,0,0,18.75-4.05,4.1,4.1,0,0,0,19.1-5.8a4.3,4.3,0,0,0-.375-1.925A1.984,1.984,0,0,0,16.8-8.9a1.208,1.208,0,0,0-.575.163,7.517,7.517,0,0,0-.725.463.332.332,0,0,1-.2.075.24.24,0,0,1-.225-.15L13.6-10.425a.308.308,0,0,1-.05-.175.339.339,0,0,1,.1-.25l3.975-3.475a.1.1,0,0,0,.038-.1q-.012-.05-.087-.05H11.7a.289.289,0,0,1-.213-.087.289.289,0,0,1-.087-.213V-17.2a.289.289,0,0,1,.087-.212A.289.289,0,0,1,11.7-17.5H22.125a.289.289,0,0,1,.213.087.289.289,0,0,1,.087.212v2.75a.526.526,0,0,1-.175.375l-3.275,3a.1.1,0,0,0-.038.1q.012.05.112.05A4.085,4.085,0,0,1,22.15-8.35Zm15.225.725a.289.289,0,0,1,.213.088.289.289,0,0,1,.088.212V-4.8a.289.289,0,0,1-.088.213.289.289,0,0,1-.213.088H36.3a.11.11,0,0,0-.125.125V-.3a.289.289,0,0,1-.087.213A.289.289,0,0,1,35.875,0H32.95a.289.289,0,0,1-.213-.088A.289.289,0,0,1,32.65-.3V-4.375a.11.11,0,0,0-.125-.125H24.85a.289.289,0,0,1-.212-.088A.289.289,0,0,1,24.55-4.8v-2a1.234,1.234,0,0,1,.075-.375l4.5-10.1a.354.354,0,0,1,.35-.225H32.6a.275.275,0,0,1,.238.087.269.269,0,0,1-.013.263L28.65-7.775a.106.106,0,0,0,0,.1.08.08,0,0,0,.075.05h3.8a.11.11,0,0,0,.125-.125v-3.1a.289.289,0,0,1,.087-.213.289.289,0,0,1,.213-.088h2.925a.289.289,0,0,1,.213.088.289.289,0,0,1,.087.213v3.1a.11.11,0,0,0,.125.125Zm7-2.2a3.964,3.964,0,0,1-2.013-.525,3.933,3.933,0,0,1-1.45-1.437,3.846,3.846,0,0,1-.537-1.987,3.781,3.781,0,0,1,.537-1.975,4.063,4.063,0,0,1,1.45-1.437,3.892,3.892,0,0,1,2.013-.538,3.781,3.781,0,0,1,1.975.538,4.1,4.1,0,0,1,1.438,1.438,3.781,3.781,0,0,1,.537,1.975,3.917,3.917,0,0,1-.525,1.987,3.839,3.839,0,0,1-1.437,1.438A3.917,3.917,0,0,1,44.375-9.825ZM43.4,0q-.175,0-.225-.1A.276.276,0,0,1,43.2-.35L52.625-17.3A.413.413,0,0,1,53-17.5h1.85q.175,0,.225.1a.276.276,0,0,1-.025.25L45.65-.2a.413.413,0,0,1-.375.2Zm.975-11.875a1.765,1.765,0,0,0,1.313-.55,1.857,1.857,0,0,0,.537-1.35,1.827,1.827,0,0,0-.537-1.325,1.765,1.765,0,0,0-1.312-.55,1.835,1.835,0,0,0-1.35.55,1.806,1.806,0,0,0-.55,1.325,1.835,1.835,0,0,0,.55,1.35A1.835,1.835,0,0,0,44.375-11.875Zm9.75,12.1a3.846,3.846,0,0,1-1.988-.537,4.031,4.031,0,0,1-1.45-1.45A3.846,3.846,0,0,1,50.15-3.75a3.781,3.781,0,0,1,.538-1.975,3.963,3.963,0,0,1,1.45-1.425,3.917,3.917,0,0,1,1.988-.525,3.917,3.917,0,0,1,1.987.525,3.963,3.963,0,0,1,1.45,1.425A3.781,3.781,0,0,1,58.1-3.75a3.846,3.846,0,0,1-.537,1.988,4.031,4.031,0,0,1-1.45,1.45A3.846,3.846,0,0,1,54.125.225Zm0-2.075A1.806,1.806,0,0,0,55.45-2.4,1.835,1.835,0,0,0,56-3.75a1.806,1.806,0,0,0-.55-1.325,1.806,1.806,0,0,0-1.325-.55,1.827,1.827,0,0,0-1.325.537,1.794,1.794,0,0,0-.55,1.337,1.857,1.857,0,0,0,.537,1.35A1.794,1.794,0,0,0,54.125-1.85Z" transform="translate(1602.873 2061.114)" fill="#ff6429"/>
    <path id="Trazado_1234" data-name="Trazado 1234" d="M0,0H566.814" transform="translate(1105.781 2192)" fill="none" stroke="#5c5a56" stroke-width="0.5"/>
    <path id="Trazado_1236" data-name="Trazado 1236" d="M0,32.805,147.779-17.008,295.255,74.318" transform="translate(1304.057 1969.804)" fill="none" stroke="#ff6429" stroke-linecap="round" stroke-miterlimit="10" stroke-width="1"/>
  </g>
</svg>
