<svg xmlns="http://www.w3.org/2000/svg" xmlns:xlink="http://www.w3.org/1999/xlink" width="805.757" height="600.123" viewBox="0 0 805.757 600.123">
  <defs>
    <clipPath id="clip-path">
      <path id="Trazado_1141" data-name="Trazado 1141" d="M0,442.949H805.757V-157.173H0Z" transform="translate(0 157.173)" fill="none"/>
    </clipPath>
  </defs>
  <g id="Grupo_2041" data-name="Grupo 2041" transform="translate(-281.122 -2031)">
    <g id="Grupo_1031" data-name="Grupo 1031" transform="translate(299.206 2561.82)">
      <path id="Trazado_1138" data-name="Trazado 1138" d="M73.306.5H0A.5.5,0,0,1-.5,0,.5.5,0,0,1,0-.5H73.306a.5.5,0,0,1,.5.5A.5.5,0,0,1,73.306.5Z" fill="#ff6429"/>
    </g>
    <g id="Grupo_1032" data-name="Grupo 1032" transform="translate(554.095 2561.82)">
      <path id="Trazado_1139" data-name="Trazado 1139" d="M73.306.5H0A.5.5,0,0,1-.5,0,.5.5,0,0,1,0-.5H73.306a.5.5,0,0,1,.5.5A.5.5,0,0,1,73.306.5Z" fill="#002945"/>
    </g>
    <path id="Trazado_2096" data-name="Trazado 2096" d="M11.661,0a.289.289,0,0,1-.3-.23L10.6-2.691q-.046-.092-.115-.092H4.416q-.069,0-.115.092L3.542-.23a.289.289,0,0,1-.3.23H.943A.258.258,0,0,1,.736-.08.252.252,0,0,1,.713-.322L5.7-15.87A.289.289,0,0,1,6-16.1H8.878a.289.289,0,0,1,.3.23L14.191-.322a.256.256,0,0,1,.023.115q0,.207-.253.207ZM5.014-5.014q-.023.138.092.138H9.775q.138,0,.092-.138L7.5-12.719q-.023-.092-.069-.092t-.069.092Zm16.077-6.762a.266.266,0,0,1,.2.081.266.266,0,0,1,.081.2v1.817a.266.266,0,0,1-.081.2.266.266,0,0,1-.2.08H18.814a.1.1,0,0,0-.115.115V-.276a.266.266,0,0,1-.08.2.266.266,0,0,1-.2.08H16.307a.266.266,0,0,1-.2-.08.266.266,0,0,1-.08-.2V-9.292a.1.1,0,0,0-.115-.115H14.49a.266.266,0,0,1-.2-.08.266.266,0,0,1-.081-.2V-11.5a.266.266,0,0,1,.081-.2.266.266,0,0,1,.2-.081h1.426a.1.1,0,0,0,.115-.115v-.414a5.483,5.483,0,0,1,.391-2.311,2.268,2.268,0,0,1,1.288-1.161,7.033,7.033,0,0,1,2.53-.322h.805a.266.266,0,0,1,.2.08.266.266,0,0,1,.08.2v1.61a.266.266,0,0,1-.08.2.266.266,0,0,1-.2.08h-.6a1.883,1.883,0,0,0-1.369.391,2.051,2.051,0,0,0-.379,1.426v.23a.1.1,0,0,0,.115.115ZM26.956.184a5.254,5.254,0,0,1-3.116-.92,4.862,4.862,0,0,1-1.829-2.553,8.681,8.681,0,0,1-.391-2.622,8.6,8.6,0,0,1,.368-2.622,4.725,4.725,0,0,1,1.84-2.507,5.444,5.444,0,0,1,3.151-.9,5.126,5.126,0,0,1,3.024.9,4.791,4.791,0,0,1,1.806,2.484,7.469,7.469,0,0,1,.414,2.622,8.261,8.261,0,0,1-.391,2.622A4.945,4.945,0,0,1,30.015-.747,5.08,5.08,0,0,1,26.956.184Zm0-2.3A2.279,2.279,0,0,0,28.417-2.6,2.72,2.72,0,0,0,29.3-3.956a6.794,6.794,0,0,0,.23-1.932A6.368,6.368,0,0,0,29.3-7.82a2.5,2.5,0,0,0-.874-1.345,2.437,2.437,0,0,0-1.518-.472,2.364,2.364,0,0,0-1.472.472,2.621,2.621,0,0,0-.9,1.345,7.1,7.1,0,0,0-.23,1.932,7.1,7.1,0,0,0,.23,1.932A2.533,2.533,0,0,0,25.427-2.6,2.446,2.446,0,0,0,26.956-2.116ZM39.4-11.891a2.663,2.663,0,0,1,1.288.3.285.285,0,0,1,.138.345l-.391,2.07q-.023.276-.322.161a2.548,2.548,0,0,0-.805-.115,3.477,3.477,0,0,0-.46.023,2.376,2.376,0,0,0-1.61.679,2.2,2.2,0,0,0-.644,1.644V-.276a.266.266,0,0,1-.081.2.266.266,0,0,1-.2.08H34.2a.266.266,0,0,1-.2-.08.266.266,0,0,1-.081-.2v-11.2a.266.266,0,0,1,.081-.2.266.266,0,0,1,.2-.08h2.116a.266.266,0,0,1,.2.08.266.266,0,0,1,.081.2v1.035q0,.092.035.1t.08-.057A3.037,3.037,0,0,1,39.4-11.891ZM51.428-7.2a8.2,8.2,0,0,1,.092,1.288L51.5-5.2a.244.244,0,0,1-.276.276h-7.2a.1.1,0,0,0-.115.115,3.29,3.29,0,0,0,.207,1.035,2.528,2.528,0,0,0,2.691,1.679,2.9,2.9,0,0,0,2.484-1.288.27.27,0,0,1,.23-.138.221.221,0,0,1,.161.069l1.426,1.173a.245.245,0,0,1,.069.368,4.7,4.7,0,0,1-1.9,1.564,6.159,6.159,0,0,1-2.633.552A5.523,5.523,0,0,1,43.6-.6a4.632,4.632,0,0,1-1.828-2.254,9.044,9.044,0,0,1-.529-3.45,6.993,6.993,0,0,1,.276-2.162,4.613,4.613,0,0,1,1.736-2.542,5.067,5.067,0,0,1,3.07-.932Q50.853-11.937,51.428-7.2ZM46.322-9.637a2.281,2.281,0,0,0-1.414.425,2.252,2.252,0,0,0-.793,1.184,3.993,3.993,0,0,0-.184,1.012q-.046.115.092.115h4.669a.1.1,0,0,0,.115-.115,4.336,4.336,0,0,0-.138-.874,2.231,2.231,0,0,0-.816-1.288A2.467,2.467,0,0,0,46.322-9.637Z" transform="translate(388.238 2563.249)" fill="#42454a"/>
    <path id="Trazado_2097" data-name="Trazado 2097" d="M6.877.184A7.855,7.855,0,0,1,3.749-.391,4.714,4.714,0,0,1,1.691-2,4.143,4.143,0,0,1,.966-4.439v-.575a.266.266,0,0,1,.081-.2.266.266,0,0,1,.2-.08H3.289a.266.266,0,0,1,.2.08.266.266,0,0,1,.081.2v.437a2.116,2.116,0,0,0,.943,1.76,4.228,4.228,0,0,0,2.576.7,3.225,3.225,0,0,0,2.116-.6,1.919,1.919,0,0,0,.713-1.541,1.6,1.6,0,0,0-.391-1.092,3.658,3.658,0,0,0-1.116-.817q-.725-.368-2.174-.92A22.743,22.743,0,0,1,3.588-8.211,4.937,4.937,0,0,1,1.9-9.648a3.68,3.68,0,0,1-.679-2.266,3.868,3.868,0,0,1,1.472-3.2,6.131,6.131,0,0,1,3.933-1.173,7.328,7.328,0,0,1,3.048.6,4.858,4.858,0,0,1,2.058,1.668,4.255,4.255,0,0,1,.736,2.472v.391a.266.266,0,0,1-.08.2.266.266,0,0,1-.2.081H10.12a.266.266,0,0,1-.2-.081.266.266,0,0,1-.08-.2v-.253a2.307,2.307,0,0,0-.885-1.828,3.682,3.682,0,0,0-2.45-.747,3.207,3.207,0,0,0-1.966.529,1.763,1.763,0,0,0-.7,1.5,1.69,1.69,0,0,0,.368,1.127,3.306,3.306,0,0,0,1.1.793q.736.356,2.277.908A25.89,25.89,0,0,1,10.2-8a5.022,5.022,0,0,1,1.679,1.414,3.6,3.6,0,0,1,.7,2.266,3.986,3.986,0,0,1-1.529,3.289A6.52,6.52,0,0,1,6.877.184Zm14.03,0a6.554,6.554,0,0,1-3.013-.667,4.869,4.869,0,0,1-2.036-1.9,5.493,5.493,0,0,1-.724-2.84v-10.6a.266.266,0,0,1,.08-.2.266.266,0,0,1,.2-.08h2.116a.266.266,0,0,1,.2.08.266.266,0,0,1,.08.2V-5.175a2.987,2.987,0,0,0,.851,2.208,3.047,3.047,0,0,0,2.254.851,3.047,3.047,0,0,0,2.254-.851,2.987,2.987,0,0,0,.851-2.208V-15.824a.266.266,0,0,1,.08-.2.266.266,0,0,1,.2-.08H26.4a.266.266,0,0,1,.2.08.266.266,0,0,1,.08.2v10.6a5.562,5.562,0,0,1-.713,2.84,4.8,4.8,0,0,1-2.024,1.9A6.607,6.607,0,0,1,20.907.184ZM38.939,0a.326.326,0,0,1-.322-.207L35.581-6.831a.147.147,0,0,0-.138-.092h-2.76a.1.1,0,0,0-.115.115V-.276a.266.266,0,0,1-.081.2.266.266,0,0,1-.2.08H30.176a.266.266,0,0,1-.2-.08.266.266,0,0,1-.08-.2V-15.824a.266.266,0,0,1,.08-.2.266.266,0,0,1,.2-.08H36.5a5.126,5.126,0,0,1,2.484.587,4.156,4.156,0,0,1,1.679,1.656,4.933,4.933,0,0,1,.6,2.45,4.45,4.45,0,0,1-.817,2.7A4.224,4.224,0,0,1,38.18-7.153a.074.074,0,0,0-.069.046.1.1,0,0,0,0,.092L41.354-.322a.353.353,0,0,1,.046.138Q41.4,0,41.147,0ZM32.683-13.8a.1.1,0,0,0-.115.115v4.577a.1.1,0,0,0,.115.115h3.45a2.457,2.457,0,0,0,1.783-.655,2.3,2.3,0,0,0,.679-1.737,2.342,2.342,0,0,0-.679-1.748,2.433,2.433,0,0,0-1.783-.667ZM54.51,0a.289.289,0,0,1-.3-.23l-.759-2.461q-.046-.092-.115-.092H47.265q-.069,0-.115.092L46.391-.23a.289.289,0,0,1-.3.23h-2.3a.258.258,0,0,1-.207-.08.252.252,0,0,1-.023-.241L48.553-15.87a.289.289,0,0,1,.3-.23h2.875a.289.289,0,0,1,.3.23L57.04-.322a.256.256,0,0,1,.023.115q0,.207-.253.207ZM47.863-5.014q-.023.138.092.138h4.669q.138,0,.092-.138l-2.369-7.7q-.023-.092-.069-.092t-.069.092ZM64.308,0a.266.266,0,0,1-.2-.08.266.266,0,0,1-.081-.2V-15.824a.266.266,0,0,1,.081-.2.266.266,0,0,1,.2-.08h2.116a.266.266,0,0,1,.2.08.266.266,0,0,1,.08.2V-.276a.266.266,0,0,1-.08.2.266.266,0,0,1-.2.08ZM75.44-11.937a4.049,4.049,0,0,1,2.979,1.1A4.048,4.048,0,0,1,79.534-7.82V-.276a.266.266,0,0,1-.08.2.266.266,0,0,1-.2.08H77.142a.266.266,0,0,1-.2-.08.266.266,0,0,1-.08-.2V-7.268a2.444,2.444,0,0,0-.6-1.714,2.045,2.045,0,0,0-1.587-.655,2.1,2.1,0,0,0-1.6.644,2.374,2.374,0,0,0-.609,1.7V-.276a.266.266,0,0,1-.08.2.266.266,0,0,1-.2.08H70.081a.266.266,0,0,1-.2-.08.266.266,0,0,1-.08-.2v-11.2a.266.266,0,0,1,.08-.2.266.266,0,0,1,.2-.08H72.2a.266.266,0,0,1,.2.08.266.266,0,0,1,.08.2v.736a.093.093,0,0,0,.046.092q.046.023.069-.046A3.353,3.353,0,0,1,75.44-11.937ZM85.077,0a.289.289,0,0,1-.3-.23l-3.7-11.224a.256.256,0,0,1-.023-.115q0-.207.253-.207h2.346a.3.3,0,0,1,.322.23L86.2-3.864q.023.069.069.069t.069-.069l2.231-7.682a.3.3,0,0,1,.322-.23l2.346.046a.258.258,0,0,1,.207.08.252.252,0,0,1,.023.241L87.791-.23a.289.289,0,0,1-.3.23Zm17.71-7.2a8.2,8.2,0,0,1,.092,1.288l-.023.713a.244.244,0,0,1-.276.276h-7.2a.1.1,0,0,0-.115.115,3.29,3.29,0,0,0,.207,1.035,2.528,2.528,0,0,0,2.691,1.679,2.9,2.9,0,0,0,2.484-1.288.27.27,0,0,1,.23-.138.221.221,0,0,1,.161.069l1.426,1.173a.245.245,0,0,1,.069.368,4.7,4.7,0,0,1-1.9,1.564A6.159,6.159,0,0,1,98,.207a5.523,5.523,0,0,1-3.048-.8,4.632,4.632,0,0,1-1.828-2.254A9.044,9.044,0,0,1,92.6-6.3a6.993,6.993,0,0,1,.276-2.162,4.613,4.613,0,0,1,1.736-2.542,5.067,5.067,0,0,1,3.071-.932Q102.212-11.937,102.787-7.2ZM97.681-9.637a2.281,2.281,0,0,0-1.415.425,2.252,2.252,0,0,0-.793,1.184,3.993,3.993,0,0,0-.184,1.012q-.046.115.092.115h4.669a.1.1,0,0,0,.115-.115,4.336,4.336,0,0,0-.138-.874,2.231,2.231,0,0,0-.817-1.288A2.467,2.467,0,0,0,97.681-9.637ZM109.5.138a6.978,6.978,0,0,1-2.541-.425,3.931,3.931,0,0,1-1.69-1.173,2.6,2.6,0,0,1-.6-1.668v-.207a.266.266,0,0,1,.08-.2.266.266,0,0,1,.2-.08h2.024a.266.266,0,0,1,.2.08.266.266,0,0,1,.08.2v.046a1.209,1.209,0,0,0,.632,1,2.8,2.8,0,0,0,1.6.426,2.669,2.669,0,0,0,1.495-.379,1.117,1.117,0,0,0,.575-.955.856.856,0,0,0-.472-.793,7.587,7.587,0,0,0-1.529-.563l-.874-.276a12.933,12.933,0,0,1-1.978-.736,3.951,3.951,0,0,1-1.357-1.07,2.663,2.663,0,0,1-.552-1.736,3.048,3.048,0,0,1,1.265-2.564,5.4,5.4,0,0,1,3.335-.955,6.266,6.266,0,0,1,2.461.449,3.776,3.776,0,0,1,1.633,1.242,3,3,0,0,1,.575,1.806.266.266,0,0,1-.08.2.266.266,0,0,1-.2.081h-1.955a.266.266,0,0,1-.2-.081.266.266,0,0,1-.08-.2,1.185,1.185,0,0,0-.587-1,2.787,2.787,0,0,0-1.6-.4,2.841,2.841,0,0,0-1.46.333,1.034,1.034,0,0,0-.563.932.908.908,0,0,0,.54.839,9.569,9.569,0,0,0,1.805.633l.506.138a16.289,16.289,0,0,1,2.047.747,4,4,0,0,1,1.4,1.058,2.628,2.628,0,0,1,.575,1.759A2.992,2.992,0,0,1,112.93-.794,5.725,5.725,0,0,1,109.5.138Zm13.179-10a.266.266,0,0,1-.08.2.266.266,0,0,1-.2.081H120.06a.1.1,0,0,0-.115.115v5.543a1.77,1.77,0,0,0,.38,1.265,1.621,1.621,0,0,0,1.208.391h.69a.266.266,0,0,1,.2.08.266.266,0,0,1,.08.2V-.276a.284.284,0,0,1-.276.3l-1.2.023a4.8,4.8,0,0,1-2.714-.621,2.716,2.716,0,0,1-.92-2.346V-9.476a.1.1,0,0,0-.115-.115h-1.311a.266.266,0,0,1-.2-.081.266.266,0,0,1-.08-.2v-1.61a.266.266,0,0,1,.08-.2.266.266,0,0,1,.2-.08h1.311a.1.1,0,0,0,.115-.115v-2.691a.266.266,0,0,1,.08-.2.266.266,0,0,1,.2-.08h2a.266.266,0,0,1,.2.08.266.266,0,0,1,.08.2v2.691a.1.1,0,0,0,.115.115h2.346a.266.266,0,0,1,.2.08.266.266,0,0,1,.08.2Zm14.95-2.07a3.61,3.61,0,0,1,2.771,1.069,4.191,4.191,0,0,1,1,2.979V-.276a.266.266,0,0,1-.08.2.266.266,0,0,1-.2.08h-2.093a.266.266,0,0,1-.2-.08.266.266,0,0,1-.08-.2V-7.337a2.4,2.4,0,0,0-.564-1.679,1.935,1.935,0,0,0-1.507-.621,2.045,2.045,0,0,0-1.541.621,2.287,2.287,0,0,0-.6,1.656V-.276a.266.266,0,0,1-.081.2.266.266,0,0,1-.2.08h-2.093a.266.266,0,0,1-.2-.08.266.266,0,0,1-.081-.2V-7.337a2.374,2.374,0,0,0-.575-1.679,1.971,1.971,0,0,0-1.518-.621,2.07,2.07,0,0,0-1.437.506,2.069,2.069,0,0,0-.655,1.38V-.276a.266.266,0,0,1-.08.2.266.266,0,0,1-.2.08h-2.116a.266.266,0,0,1-.2-.08.266.266,0,0,1-.08-.2v-11.2a.266.266,0,0,1,.08-.2.266.266,0,0,1,.2-.08h2.116a.266.266,0,0,1,.2.08.266.266,0,0,1,.08.2v.759a.093.093,0,0,0,.046.092q.046.023.092-.046a3.067,3.067,0,0,1,1.254-.955,4.308,4.308,0,0,1,1.667-.311,4.1,4.1,0,0,1,1.978.46,3.145,3.145,0,0,1,1.311,1.334q.069.092.161,0a3.154,3.154,0,0,1,1.4-1.357A4.508,4.508,0,0,1,137.632-11.937ZM153.939-7.2a8.2,8.2,0,0,1,.092,1.288l-.023.713a.244.244,0,0,1-.276.276h-7.2a.1.1,0,0,0-.115.115,3.29,3.29,0,0,0,.207,1.035,2.528,2.528,0,0,0,2.691,1.679A2.9,2.9,0,0,0,151.8-3.381a.27.27,0,0,1,.23-.138.221.221,0,0,1,.161.069l1.426,1.173a.245.245,0,0,1,.069.368,4.7,4.7,0,0,1-1.9,1.564,6.159,6.159,0,0,1-2.634.552,5.523,5.523,0,0,1-3.047-.8,4.632,4.632,0,0,1-1.829-2.254,9.044,9.044,0,0,1-.529-3.45,6.993,6.993,0,0,1,.276-2.162,4.613,4.613,0,0,1,1.737-2.542,5.067,5.067,0,0,1,3.07-.932Q153.364-11.937,153.939-7.2Zm-5.106-2.438a2.281,2.281,0,0,0-1.415.425,2.252,2.252,0,0,0-.794,1.184,3.993,3.993,0,0,0-.184,1.012q-.046.115.092.115H151.2a.1.1,0,0,0,.115-.115,4.335,4.335,0,0,0-.138-.874,2.231,2.231,0,0,0-.816-1.288A2.467,2.467,0,0,0,148.833-9.637Zm13.271-2.3a4.049,4.049,0,0,1,2.979,1.1A4.048,4.048,0,0,1,166.2-7.82V-.276a.266.266,0,0,1-.081.2.266.266,0,0,1-.2.08h-2.116a.266.266,0,0,1-.2-.08.266.266,0,0,1-.081-.2V-7.268a2.444,2.444,0,0,0-.6-1.714,2.045,2.045,0,0,0-1.587-.655,2.1,2.1,0,0,0-1.6.644,2.374,2.374,0,0,0-.61,1.7V-.276a.266.266,0,0,1-.08.2.266.266,0,0,1-.2.08h-2.116a.266.266,0,0,1-.2-.08.266.266,0,0,1-.081-.2v-11.2a.266.266,0,0,1,.081-.2.266.266,0,0,1,.2-.08h2.116a.266.266,0,0,1,.2.08.266.266,0,0,1,.08.2v.736a.093.093,0,0,0,.046.092q.046.023.069-.046A3.353,3.353,0,0,1,162.1-11.937Zm13.11,2.07a.266.266,0,0,1-.08.2.266.266,0,0,1-.2.081h-2.346a.1.1,0,0,0-.115.115v5.543a1.77,1.77,0,0,0,.38,1.265,1.622,1.622,0,0,0,1.208.391h.69a.266.266,0,0,1,.2.08.266.266,0,0,1,.081.2V-.276a.284.284,0,0,1-.276.3l-1.2.023a4.8,4.8,0,0,1-2.714-.621,2.716,2.716,0,0,1-.92-2.346V-9.476a.1.1,0,0,0-.115-.115H168.5a.266.266,0,0,1-.2-.081.266.266,0,0,1-.08-.2v-1.61a.266.266,0,0,1,.08-.2.266.266,0,0,1,.2-.08h1.311a.1.1,0,0,0,.115-.115v-2.691a.266.266,0,0,1,.08-.2.266.266,0,0,1,.2-.08h2a.266.266,0,0,1,.2.08.266.266,0,0,1,.08.2v2.691a.1.1,0,0,0,.115.115h2.346a.266.266,0,0,1,.2.08.266.266,0,0,1,.08.2ZM12.052,12.084a.36.36,0,0,1,.322-.184H14.49a.275.275,0,0,1,.276.276V27.724A.275.275,0,0,1,14.49,28H12.374a.275.275,0,0,1-.276-.276V16.753a.09.09,0,0,0-.057-.092q-.057-.023-.081.046L9.085,21.123a.36.36,0,0,1-.322.184H7.705a.36.36,0,0,1-.322-.184l-2.9-4.393q-.023-.069-.08-.046a.09.09,0,0,0-.057.092V27.724A.275.275,0,0,1,4.071,28H1.955a.275.275,0,0,1-.276-.276V12.176a.275.275,0,0,1,.276-.276H4.071a.36.36,0,0,1,.322.184l3.749,5.681a.133.133,0,0,0,.092.046.074.074,0,0,0,.069-.046Zm10.3,3.979a6.069,6.069,0,0,1,2.553.506,4.007,4.007,0,0,1,1.7,1.391,3.512,3.512,0,0,1,.6,2.013v7.751a.275.275,0,0,1-.276.276H24.817a.275.275,0,0,1-.276-.276v-.736q0-.069-.046-.081a.1.1,0,0,0-.092.035,4.186,4.186,0,0,1-3.266,1.242,4.467,4.467,0,0,1-2.84-.874,3.1,3.1,0,0,1-1.115-2.6,3.374,3.374,0,0,1,1.253-2.795,5.529,5.529,0,0,1,3.531-1h2.461a.1.1,0,0,0,.115-.115v-.552a1.811,1.811,0,0,0-.529-1.392,2.25,2.25,0,0,0-1.587-.495,2.823,2.823,0,0,0-1.414.311,1.35,1.35,0,0,0-.678.862q-.069.276-.322.23l-2.231-.276a.5.5,0,0,1-.2-.08.131.131,0,0,1-.058-.149,3.224,3.224,0,0,1,1.507-2.3A5.792,5.792,0,0,1,22.356,16.063ZM21.8,26.068a3.149,3.149,0,0,0,1.932-.6,1.819,1.819,0,0,0,.805-1.518V22.871a.1.1,0,0,0-.115-.115H22.494a3.472,3.472,0,0,0-1.92.46,1.477,1.477,0,0,0-.7,1.311,1.336,1.336,0,0,0,.541,1.139A2.269,2.269,0,0,0,21.8,26.068ZM35.512,16.063a3.827,3.827,0,0,1,4.094,4.117v7.544A.275.275,0,0,1,39.33,28H37.214a.275.275,0,0,1-.276-.276V20.732a2.444,2.444,0,0,0-.6-1.714,2.045,2.045,0,0,0-1.587-.656,2.1,2.1,0,0,0-1.6.644,2.374,2.374,0,0,0-.61,1.7v7.015a.275.275,0,0,1-.276.276H30.153a.275.275,0,0,1-.276-.276v-11.2a.275.275,0,0,1,.276-.276h2.116a.275.275,0,0,1,.276.276v.736a.093.093,0,0,0,.046.092q.046.023.069-.046A3.353,3.353,0,0,1,35.512,16.063Zm11.362,0a6.069,6.069,0,0,1,2.553.506,4.007,4.007,0,0,1,1.7,1.391,3.512,3.512,0,0,1,.6,2.013v7.751a.275.275,0,0,1-.276.276H49.335a.275.275,0,0,1-.276-.276v-.736q0-.069-.046-.081a.1.1,0,0,0-.092.035,4.186,4.186,0,0,1-3.266,1.242,4.467,4.467,0,0,1-2.84-.874,3.1,3.1,0,0,1-1.116-2.6,3.374,3.374,0,0,1,1.253-2.795,5.529,5.529,0,0,1,3.531-1h2.461a.1.1,0,0,0,.115-.115v-.552a1.811,1.811,0,0,0-.529-1.392,2.25,2.25,0,0,0-1.587-.495,2.823,2.823,0,0,0-1.414.311,1.35,1.35,0,0,0-.679.862q-.069.276-.322.23L42.3,19.49a.5.5,0,0,1-.2-.08.131.131,0,0,1-.057-.149,3.224,3.224,0,0,1,1.507-2.3A5.792,5.792,0,0,1,46.874,16.063Zm-.552,10.005a3.149,3.149,0,0,0,1.932-.6,1.819,1.819,0,0,0,.805-1.518V22.871a.1.1,0,0,0-.115-.115H47.012a3.472,3.472,0,0,0-1.921.46,1.477,1.477,0,0,0-.7,1.311,1.336,1.336,0,0,0,.541,1.139A2.269,2.269,0,0,0,46.322,26.068Zm15.272-9.545a.275.275,0,0,1,.276-.276h2.116a.275.275,0,0,1,.276.276v10.7a4.8,4.8,0,0,1-1.645,4.105,7.017,7.017,0,0,1-4.312,1.231q-.713,0-1.4-.069a.259.259,0,0,1-.253-.3l.069-1.886q0-.253.322-.253a11.742,11.742,0,0,0,1.2.069,3.934,3.934,0,0,0,2.542-.678,2.825,2.825,0,0,0,.816-2.288v-.184q0-.069-.046-.08a.1.1,0,0,0-.092.035,3.467,3.467,0,0,1-2.668,1.012,5.148,5.148,0,0,1-2.737-.759,3.975,3.975,0,0,1-1.725-2.323,10.7,10.7,0,0,1-.3-2.783,8.957,8.957,0,0,1,.368-2.921A4.446,4.446,0,0,1,55.982,16.9a4.305,4.305,0,0,1,2.645-.84,3.729,3.729,0,0,1,2.829,1.058q.046.069.092.046a.093.093,0,0,0,.046-.092Zm-.161,7.567a4.339,4.339,0,0,0,.126-.747q.034-.4.035-1.3,0-.874-.035-1.253a3.589,3.589,0,0,0-.149-.748,2.294,2.294,0,0,0-3.588-1.219,2.553,2.553,0,0,0-.828,1.219,5.484,5.484,0,0,0-.276,2.024,6.015,6.015,0,0,0,.23,2,2.4,2.4,0,0,0,.84,1.208,2.316,2.316,0,0,0,1.46.472,2.1,2.1,0,0,0,2.185-1.656Zm15.5-3.289a8.2,8.2,0,0,1,.092,1.288L77,22.8a.244.244,0,0,1-.276.276h-7.2a.1.1,0,0,0-.115.115,3.29,3.29,0,0,0,.207,1.035,2.528,2.528,0,0,0,2.691,1.679A2.9,2.9,0,0,0,74.8,24.619a.27.27,0,0,1,.23-.138.221.221,0,0,1,.161.069l1.426,1.173a.245.245,0,0,1,.069.368,4.7,4.7,0,0,1-1.9,1.564,6.159,6.159,0,0,1-2.633.552A5.523,5.523,0,0,1,69.1,27.4a4.632,4.632,0,0,1-1.828-2.254,9.044,9.044,0,0,1-.529-3.45,6.993,6.993,0,0,1,.276-2.162,4.613,4.613,0,0,1,1.736-2.542,5.067,5.067,0,0,1,3.071-.931Q76.36,16.063,76.935,20.8Zm-5.106-2.438a2.281,2.281,0,0,0-1.415.426,2.252,2.252,0,0,0-.793,1.184,3.993,3.993,0,0,0-.184,1.012q-.046.115.092.115H74.2a.1.1,0,0,0,.115-.115,4.336,4.336,0,0,0-.138-.874,2.231,2.231,0,0,0-.817-1.288A2.467,2.467,0,0,0,71.829,18.363Zm20.217-2.3a3.61,3.61,0,0,1,2.771,1.069,4.191,4.191,0,0,1,1,2.979v7.613a.275.275,0,0,1-.276.276H93.449a.275.275,0,0,1-.276-.276V20.663a2.4,2.4,0,0,0-.564-1.679,1.935,1.935,0,0,0-1.506-.621,2.045,2.045,0,0,0-1.541.621,2.287,2.287,0,0,0-.6,1.656v7.084a.275.275,0,0,1-.276.276H86.6a.275.275,0,0,1-.276-.276V20.663a2.374,2.374,0,0,0-.575-1.679,1.971,1.971,0,0,0-1.518-.621,1.985,1.985,0,0,0-2.093,1.886v7.475a.275.275,0,0,1-.276.276H79.741a.275.275,0,0,1-.276-.276v-11.2a.275.275,0,0,1,.276-.276h2.116a.275.275,0,0,1,.276.276v.759a.093.093,0,0,0,.046.092q.046.023.092-.046a3.067,3.067,0,0,1,1.253-.954,4.308,4.308,0,0,1,1.668-.311,4.1,4.1,0,0,1,1.978.46,3.145,3.145,0,0,1,1.311,1.334q.069.092.161,0a3.154,3.154,0,0,1,1.4-1.357A4.508,4.508,0,0,1,92.046,16.063ZM108.353,20.8a8.2,8.2,0,0,1,.092,1.288l-.023.713a.244.244,0,0,1-.276.276h-7.2a.1.1,0,0,0-.115.115,3.29,3.29,0,0,0,.207,1.035,2.528,2.528,0,0,0,2.691,1.679,2.9,2.9,0,0,0,2.484-1.288.27.27,0,0,1,.23-.138.221.221,0,0,1,.161.069l1.426,1.173a.245.245,0,0,1,.069.368,4.7,4.7,0,0,1-1.9,1.564,6.159,6.159,0,0,1-2.633.552,5.523,5.523,0,0,1-3.048-.805,4.632,4.632,0,0,1-1.828-2.254,9.044,9.044,0,0,1-.529-3.45,6.993,6.993,0,0,1,.276-2.162,4.613,4.613,0,0,1,1.736-2.542,5.067,5.067,0,0,1,3.071-.931Q107.778,16.063,108.353,20.8Zm-5.106-2.438a2.281,2.281,0,0,0-1.415.426,2.252,2.252,0,0,0-.793,1.184,3.993,3.993,0,0,0-.184,1.012q-.046.115.092.115h4.669a.1.1,0,0,0,.115-.115,4.336,4.336,0,0,0-.138-.874,2.231,2.231,0,0,0-.817-1.288A2.467,2.467,0,0,0,103.247,18.363Zm13.271-2.3a3.827,3.827,0,0,1,4.094,4.117v7.544a.275.275,0,0,1-.276.276H118.22a.275.275,0,0,1-.276-.276V20.732a2.444,2.444,0,0,0-.6-1.714,2.045,2.045,0,0,0-1.587-.656,2.1,2.1,0,0,0-1.6.644,2.374,2.374,0,0,0-.609,1.7v7.015a.275.275,0,0,1-.276.276h-2.116a.275.275,0,0,1-.276-.276v-11.2a.275.275,0,0,1,.276-.276h2.116a.275.275,0,0,1,.276.276v.736a.093.093,0,0,0,.046.092q.046.023.069-.046A3.353,3.353,0,0,1,116.518,16.063Zm13.11,2.07a.275.275,0,0,1-.276.276h-2.346a.1.1,0,0,0-.115.115v5.543a1.77,1.77,0,0,0,.38,1.265,1.621,1.621,0,0,0,1.207.391h.69a.275.275,0,0,1,.276.276v1.725a.284.284,0,0,1-.276.3l-1.2.023a4.8,4.8,0,0,1-2.714-.621,2.716,2.716,0,0,1-.92-2.346V18.524a.1.1,0,0,0-.115-.115h-1.311a.275.275,0,0,1-.276-.276v-1.61a.275.275,0,0,1,.276-.276h1.311a.1.1,0,0,0,.115-.115V13.441a.275.275,0,0,1,.276-.276h2a.275.275,0,0,1,.276.276v2.691a.1.1,0,0,0,.115.115h2.346a.275.275,0,0,1,.276.276Zm17.6-6.049a.36.36,0,0,1,.322-.184h2.116a.275.275,0,0,1,.276.276V27.724a.275.275,0,0,1-.276.276h-2.116a.275.275,0,0,1-.276-.276V16.753a.09.09,0,0,0-.058-.092q-.057-.023-.08.046l-2.875,4.416a.36.36,0,0,1-.322.184h-1.058a.36.36,0,0,1-.322-.184l-2.9-4.393q-.023-.069-.081-.046a.09.09,0,0,0-.057.092V27.724a.275.275,0,0,1-.276.276h-2.116a.275.275,0,0,1-.276-.276V12.176a.275.275,0,0,1,.276-.276h2.116a.36.36,0,0,1,.322.184l3.749,5.681a.133.133,0,0,0,.092.046.074.074,0,0,0,.069-.046ZM162.955,20.8a8.2,8.2,0,0,1,.092,1.288l-.023.713a.244.244,0,0,1-.276.276h-7.2a.1.1,0,0,0-.115.115,3.29,3.29,0,0,0,.207,1.035,2.528,2.528,0,0,0,2.691,1.679,2.9,2.9,0,0,0,2.484-1.288.27.27,0,0,1,.23-.138.221.221,0,0,1,.161.069l1.426,1.173a.245.245,0,0,1,.069.368,4.7,4.7,0,0,1-1.9,1.564,6.159,6.159,0,0,1-2.634.552,5.523,5.523,0,0,1-3.047-.805,4.632,4.632,0,0,1-1.829-2.254,9.044,9.044,0,0,1-.529-3.45,6.993,6.993,0,0,1,.276-2.162,4.613,4.613,0,0,1,1.737-2.542,5.067,5.067,0,0,1,3.07-.931Q162.38,16.063,162.955,20.8Zm-5.106-2.438a2.281,2.281,0,0,0-1.415.426,2.252,2.252,0,0,0-.794,1.184,3.993,3.993,0,0,0-.184,1.012q-.046.115.092.115h4.669a.1.1,0,0,0,.115-.115,4.335,4.335,0,0,0-.138-.874,2.231,2.231,0,0,0-.816-1.288A2.467,2.467,0,0,0,157.849,18.363Zm-1.127-3.588q-.161,0-.207-.092a.254.254,0,0,1,.023-.23l1.265-2.369a.349.349,0,0,1,.345-.184h1.817a.227.227,0,0,1,.219.1.224.224,0,0,1-.035.241l-1.587,2.346a.36.36,0,0,1-.322.184ZM164.381,28a.227.227,0,0,1-.218-.1.224.224,0,0,1,.035-.241l3.726-5.474a.115.115,0,0,0,0-.138L164.2,16.592a.371.371,0,0,1-.046-.161q0-.184.23-.184h2.254a.36.36,0,0,1,.322.184l2.392,3.542a.133.133,0,0,0,.092.046.074.074,0,0,0,.069-.046l2.392-3.542a.36.36,0,0,1,.322-.184h2.415a.227.227,0,0,1,.218.1.224.224,0,0,1-.035.241L171.1,22.043a.213.213,0,0,0,0,.138l3.726,5.474a.371.371,0,0,1,.046.161q0,.184-.23.184h-2.254a.36.36,0,0,1-.322-.184l-2.392-3.542a.074.074,0,0,0-.069-.046.132.132,0,0,0-.092.046l-2.392,3.542A.36.36,0,0,1,166.8,28Zm14.007-13.363a1.574,1.574,0,1,1,1.173-.46A1.589,1.589,0,0,1,178.388,14.637ZM177.284,28a.275.275,0,0,1-.276-.276V16.5a.275.275,0,0,1,.276-.276H179.4a.275.275,0,0,1,.276.276V27.724A.275.275,0,0,1,179.4,28Zm10.35.184a5.17,5.17,0,0,1-3.059-.909,4.713,4.713,0,0,1-1.794-2.449,8.45,8.45,0,0,1-.368-2.76,8.4,8.4,0,0,1,.368-2.714,4.465,4.465,0,0,1,1.783-2.4,5.32,5.32,0,0,1,3.07-.885,5.472,5.472,0,0,1,3.128.9,4.271,4.271,0,0,1,1.771,2.254,4.217,4.217,0,0,1,.161.736V20a.264.264,0,0,1-.253.276l-2.07.3h-.046a.276.276,0,0,1-.276-.23.6.6,0,0,0-.023-.184q-.046-.184-.092-.322a1.986,1.986,0,0,0-.828-1.058,2.592,2.592,0,0,0-1.472-.414,2.434,2.434,0,0,0-1.483.449,2.162,2.162,0,0,0-.817,1.23,7.157,7.157,0,0,0-.23,2.047,8.244,8.244,0,0,0,.207,2.047,2.421,2.421,0,0,0,.828,1.277,2.34,2.34,0,0,0,1.495.472,2.537,2.537,0,0,0,1.507-.449,2.016,2.016,0,0,0,.816-1.207.256.256,0,0,0,.023-.115.094.094,0,0,0,.023-.069q.069-.276.322-.23l2.07.322a.374.374,0,0,1,.2.1.236.236,0,0,1,.058.219q-.069.368-.115.529a4.1,4.1,0,0,1-1.771,2.335A5.633,5.633,0,0,1,187.634,28.184Zm12.19,0a5.254,5.254,0,0,1-3.117-.92,4.862,4.862,0,0,1-1.829-2.553,9.248,9.248,0,0,1-.023-5.244,4.725,4.725,0,0,1,1.84-2.507,5.444,5.444,0,0,1,3.151-.9,5.126,5.126,0,0,1,3.024.9,4.792,4.792,0,0,1,1.806,2.484,7.469,7.469,0,0,1,.414,2.622,8.261,8.261,0,0,1-.391,2.622,4.945,4.945,0,0,1-1.817,2.565A5.08,5.08,0,0,1,199.824,28.184Zm0-2.3a2.279,2.279,0,0,0,1.46-.483,2.72,2.72,0,0,0,.885-1.357,6.794,6.794,0,0,0,.23-1.932,6.368,6.368,0,0,0-.23-1.932,2.5,2.5,0,0,0-.874-1.346,2.437,2.437,0,0,0-1.518-.472,2.364,2.364,0,0,0-1.472.472,2.621,2.621,0,0,0-.9,1.346,7.1,7.1,0,0,0-.23,1.932,7.1,7.1,0,0,0,.23,1.932,2.533,2.533,0,0,0,.885,1.357A2.446,2.446,0,0,0,199.824,25.884Zm17.848,2.3a7.855,7.855,0,0,1-3.128-.575A4.714,4.714,0,0,1,212.486,26a4.143,4.143,0,0,1-.725-2.438v-.575a.275.275,0,0,1,.276-.276h2.047a.275.275,0,0,1,.276.276v.437a2.116,2.116,0,0,0,.943,1.759,4.228,4.228,0,0,0,2.576.7,3.225,3.225,0,0,0,2.116-.6,1.919,1.919,0,0,0,.713-1.541,1.6,1.6,0,0,0-.391-1.092,3.658,3.658,0,0,0-1.116-.816q-.724-.368-2.173-.92a22.743,22.743,0,0,1-2.645-1.127,4.937,4.937,0,0,1-1.69-1.437,3.68,3.68,0,0,1-.679-2.266,3.868,3.868,0,0,1,1.472-3.2,6.131,6.131,0,0,1,3.933-1.173,7.328,7.328,0,0,1,3.048.6,4.858,4.858,0,0,1,2.059,1.668,4.255,4.255,0,0,1,.736,2.472v.391a.275.275,0,0,1-.276.276h-2.07a.275.275,0,0,1-.276-.276v-.253a2.307,2.307,0,0,0-.885-1.828,3.682,3.682,0,0,0-2.449-.747,3.207,3.207,0,0,0-1.967.529,1.763,1.763,0,0,0-.7,1.5A1.69,1.69,0,0,0,215,17.167a3.306,3.306,0,0,0,1.1.793q.736.357,2.277.909A25.889,25.889,0,0,1,221,20a5.022,5.022,0,0,1,1.679,1.414,3.6,3.6,0,0,1,.7,2.266,3.986,3.986,0,0,1-1.529,3.289A6.52,6.52,0,0,1,217.672,28.184ZM226.343,28a.275.275,0,0,1-.276-.276V12.176a.275.275,0,0,1,.276-.276h2.116a.275.275,0,0,1,.276.276V27.724a.275.275,0,0,1-.276.276Zm16.123-15.916a.36.36,0,0,1,.322-.184H244.9a.275.275,0,0,1,.276.276V27.724A.275.275,0,0,1,244.9,28h-2.116a.275.275,0,0,1-.276-.276V16.753a.09.09,0,0,0-.058-.092q-.057-.023-.081.046L239.5,21.123a.36.36,0,0,1-.322.184h-1.058a.36.36,0,0,1-.322-.184l-2.9-4.393q-.023-.069-.081-.046a.09.09,0,0,0-.057.092V27.724a.275.275,0,0,1-.276.276h-2.116a.275.275,0,0,1-.276-.276V12.176a.275.275,0,0,1,.276-.276h2.116a.36.36,0,0,1,.322.184l3.749,5.681a.133.133,0,0,0,.092.046.074.074,0,0,0,.069-.046Zm16.445,0a.36.36,0,0,1,.322-.184h2.116a.275.275,0,0,1,.276.276V27.724a.275.275,0,0,1-.276.276h-2.116a.275.275,0,0,1-.276-.276V16.753a.09.09,0,0,0-.057-.092q-.058-.023-.081.046l-2.875,4.416a.36.36,0,0,1-.322.184h-1.058a.36.36,0,0,1-.322-.184l-2.9-4.393q-.023-.069-.081-.046a.09.09,0,0,0-.057.092V27.724a.275.275,0,0,1-.276.276h-2.116a.275.275,0,0,1-.276-.276V12.176a.275.275,0,0,1,.276-.276h2.116a.36.36,0,0,1,.322.184L255,17.765a.133.133,0,0,0,.092.046.074.074,0,0,0,.069-.046Z" transform="translate(643.138 2563.249)" fill="#42454a"/>
    <path id="Trazado_2094" data-name="Trazado 2094" d="M3.5-1.541q-.069.115.046.115h7.222a.2.2,0,0,1,.23.23V-.23a.2.2,0,0,1-.23.23H1.587a.2.2,0,0,1-.23-.23V-1.2a.376.376,0,0,1,.115-.276q.782-.92,3.519-4.324l1.7-2.116q2.162-2.737,2.162-4.255a2.488,2.488,0,0,0-.828-1.955,3.133,3.133,0,0,0-2.162-.736,2.986,2.986,0,0,0-2.116.748,2.489,2.489,0,0,0-.782,1.967v.713a.2.2,0,0,1-.23.23h-1.2a.2.2,0,0,1-.23-.23v-.92A3.688,3.688,0,0,1,2.634-15.2a4.827,4.827,0,0,1,3.231-1.081,5.382,5.382,0,0,1,2.438.529,3.934,3.934,0,0,1,1.633,1.46,3.925,3.925,0,0,1,.575,2.1q0,1.955-2.162,4.715Q7.222-6.026,4-2.139ZM18.331.23a4.854,4.854,0,0,1-3.519-1.265A4.481,4.481,0,0,1,13.5-4.416v-7.268a4.443,4.443,0,0,1,1.311-3.37,4.88,4.88,0,0,1,3.519-1.253A4.968,4.968,0,0,1,21.9-15.042a4.411,4.411,0,0,1,1.334,3.358v7.268A4.44,4.44,0,0,1,21.9-1.035,4.968,4.968,0,0,1,18.331.23Zm0-1.426A3.3,3.3,0,0,0,20.7-2.047a2.991,2.991,0,0,0,.9-2.277v-7.429a2.982,2.982,0,0,0-.885-2.254,3.291,3.291,0,0,0-2.381-.851,3.187,3.187,0,0,0-2.323.851,3,3,0,0,0-.874,2.254v7.429a3.032,3.032,0,0,0,.874,2.277A3.187,3.187,0,0,0,18.331-1.2ZM27.9-16.031a.659.659,0,0,1,.3-.069H29.44a.2.2,0,0,1,.23.23V-.23a.2.2,0,0,1-.23.23H28.267a.2.2,0,0,1-.23-.23V-14.237A.077.077,0,0,0,28-14.306a.076.076,0,0,0-.08,0l-2.438.989-.092.023q-.138,0-.184-.184l-.115-.874V-14.4q0-.115.161-.23ZM34.822,0a.2.2,0,0,1-.173-.08.194.194,0,0,1-.011-.2l5.313-14.283a.076.076,0,0,0,0-.08.077.077,0,0,0-.069-.035h-6.21a.081.081,0,0,0-.092.092v1.058a.2.2,0,0,1-.23.23h-.943a.2.2,0,0,1-.23-.23L32.2-15.87a.2.2,0,0,1,.23-.23h9.062a.2.2,0,0,1,.23.23v1.058a1.258,1.258,0,0,1-.046.276L36.386-.184A.268.268,0,0,1,36.11,0Z" transform="translate(476.335 2485.525)" fill="#6f7075"/>
    <path id="Trazado_2095" data-name="Trazado 2095" d="M3.5-1.541q-.069.115.046.115h7.222a.2.2,0,0,1,.23.23V-.23a.2.2,0,0,1-.23.23H1.587a.2.2,0,0,1-.23-.23V-1.2a.376.376,0,0,1,.115-.276q.782-.92,3.519-4.324l1.7-2.116q2.162-2.737,2.162-4.255a2.488,2.488,0,0,0-.828-1.955,3.133,3.133,0,0,0-2.162-.736,2.986,2.986,0,0,0-2.116.748,2.489,2.489,0,0,0-.782,1.967v.713a.2.2,0,0,1-.23.23h-1.2a.2.2,0,0,1-.23-.23v-.92A3.688,3.688,0,0,1,2.634-15.2a4.827,4.827,0,0,1,3.231-1.081,5.382,5.382,0,0,1,2.438.529,3.934,3.934,0,0,1,1.633,1.46,3.925,3.925,0,0,1,.575,2.1q0,1.955-2.162,4.715Q7.222-6.026,4-2.139ZM18.331.23a4.854,4.854,0,0,1-3.519-1.265A4.481,4.481,0,0,1,13.5-4.416v-7.268a4.443,4.443,0,0,1,1.311-3.37,4.88,4.88,0,0,1,3.519-1.253A4.968,4.968,0,0,1,21.9-15.042a4.411,4.411,0,0,1,1.334,3.358v7.268A4.44,4.44,0,0,1,21.9-1.035,4.968,4.968,0,0,1,18.331.23Zm0-1.426A3.3,3.3,0,0,0,20.7-2.047a2.991,2.991,0,0,0,.9-2.277v-7.429a2.982,2.982,0,0,0-.885-2.254,3.291,3.291,0,0,0-2.381-.851,3.187,3.187,0,0,0-2.323.851,3,3,0,0,0-.874,2.254v7.429a3.032,3.032,0,0,0,.874,2.277A3.187,3.187,0,0,0,18.331-1.2ZM27.9-16.031a.659.659,0,0,1,.3-.069H29.44a.2.2,0,0,1,.23.23V-.23a.2.2,0,0,1-.23.23H28.267a.2.2,0,0,1-.23-.23V-14.237A.077.077,0,0,0,28-14.306a.076.076,0,0,0-.08,0l-2.438.989-.092.023q-.138,0-.184-.184l-.115-.874V-14.4q0-.115.161-.23ZM41.561-7.567a6.209,6.209,0,0,1,.483,2.622,6.012,6.012,0,0,1-.368,2.3,4.169,4.169,0,0,1-1.541,2.07A4.522,4.522,0,0,1,37.49.161a4.764,4.764,0,0,1-2.783-.782A4.142,4.142,0,0,1,33.12-2.829a7.558,7.558,0,0,1-.276-2.162v-7.176a3.834,3.834,0,0,1,1.242-3,4.669,4.669,0,0,1,3.243-1.116A4.519,4.519,0,0,1,40.48-15.2a3.66,3.66,0,0,1,1.2,2.852v.322a.2.2,0,0,1-.23.23H40.273a.2.2,0,0,1-.23-.23v-.184a2.541,2.541,0,0,0-.759-1.909,2.691,2.691,0,0,0-1.955-.736,2.84,2.84,0,0,0-2.047.771,2.688,2.688,0,0,0-.805,2.036v3.381a.054.054,0,0,0,.046.057.056.056,0,0,0,.069-.034,3.546,3.546,0,0,1,3.059-1.38,4.318,4.318,0,0,1,2.427.644A4.017,4.017,0,0,1,41.561-7.567ZM40.135-3.2a4.862,4.862,0,0,0,.276-1.748,4.212,4.212,0,0,0-.322-1.84,2.529,2.529,0,0,0-.966-1.334,2.9,2.9,0,0,0-1.7-.483,2.846,2.846,0,0,0-1.7.495,2.587,2.587,0,0,0-.966,1.368,5.248,5.248,0,0,0-.276,1.863,5.218,5.218,0,0,0,.23,1.679,2.744,2.744,0,0,0,.977,1.4,2.84,2.84,0,0,0,1.76.529,2.912,2.912,0,0,0,1.7-.495A2.552,2.552,0,0,0,40.135-3.2Z" transform="translate(311.938 2485.525)" fill="#6f7075"/>
    <path id="Trazado_2093" data-name="Trazado 2093" d="M3.5-1.541q-.069.115.046.115h7.222a.2.2,0,0,1,.23.23V-.23a.2.2,0,0,1-.23.23H1.587a.2.2,0,0,1-.23-.23V-1.2a.376.376,0,0,1,.115-.276q.782-.92,3.519-4.324l1.7-2.116q2.162-2.737,2.162-4.255a2.488,2.488,0,0,0-.828-1.955,3.133,3.133,0,0,0-2.162-.736,2.986,2.986,0,0,0-2.116.748,2.489,2.489,0,0,0-.782,1.967v.713a.2.2,0,0,1-.23.23h-1.2a.2.2,0,0,1-.23-.23v-.92A3.688,3.688,0,0,1,2.634-15.2a4.827,4.827,0,0,1,3.231-1.081,5.382,5.382,0,0,1,2.438.529,3.934,3.934,0,0,1,1.633,1.46,3.925,3.925,0,0,1,.575,2.1q0,1.955-2.162,4.715Q7.222-6.026,4-2.139ZM18.331.23a4.854,4.854,0,0,1-3.519-1.265A4.481,4.481,0,0,1,13.5-4.416v-7.268a4.443,4.443,0,0,1,1.311-3.37,4.88,4.88,0,0,1,3.519-1.253A4.968,4.968,0,0,1,21.9-15.042a4.411,4.411,0,0,1,1.334,3.358v7.268A4.44,4.44,0,0,1,21.9-1.035,4.968,4.968,0,0,1,18.331.23Zm0-1.426A3.3,3.3,0,0,0,20.7-2.047a2.991,2.991,0,0,0,.9-2.277v-7.429a2.982,2.982,0,0,0-.885-2.254,3.291,3.291,0,0,0-2.381-.851,3.187,3.187,0,0,0-2.323.851,3,3,0,0,0-.874,2.254v7.429a3.032,3.032,0,0,0,.874,2.277A3.187,3.187,0,0,0,18.331-1.2ZM27.9-16.031a.659.659,0,0,1,.3-.069H29.44a.2.2,0,0,1,.23.23V-.23a.2.2,0,0,1-.23.23H28.267a.2.2,0,0,1-.23-.23V-14.237A.077.077,0,0,0,28-14.306a.076.076,0,0,0-.08,0l-2.438.989-.092.023q-.138,0-.184-.184l-.115-.874V-14.4q0-.115.161-.23ZM41.492-6.762a5.325,5.325,0,0,1,.437,2.254,5.113,5.113,0,0,1-.667,2.691A3.816,3.816,0,0,1,39.7-.345a4.993,4.993,0,0,1-2.346.529,5.146,5.146,0,0,1-2.415-.541A3.7,3.7,0,0,1,33.35-1.932a5.227,5.227,0,0,1-.644-2.6,5.574,5.574,0,0,1,.483-2.3,3.53,3.53,0,0,1,1.679-1.725q.115-.046,0-.115a3.637,3.637,0,0,1-1.242-1.173,3.844,3.844,0,0,1-.69-2.254,4.2,4.2,0,0,1,.69-2.346,3.733,3.733,0,0,1,1.529-1.391,4.8,4.8,0,0,1,2.2-.495,4.69,4.69,0,0,1,2.208.495,3.788,3.788,0,0,1,1.5,1.391,4.385,4.385,0,0,1,.667,2.346,4.057,4.057,0,0,1-.69,2.3,3.967,3.967,0,0,1-1.219,1.127q-.115.069,0,.115A3.372,3.372,0,0,1,41.492-6.762Zm-6.578-6.693a2.87,2.87,0,0,0-.368,1.357,2.921,2.921,0,0,0,.483,1.679,2.429,2.429,0,0,0,.954.874,2.922,2.922,0,0,0,1.346.3,2.9,2.9,0,0,0,1.357-.31,2.494,2.494,0,0,0,.966-.885,2.868,2.868,0,0,0,.437-1.679,2.793,2.793,0,0,0-.345-1.38,2.639,2.639,0,0,0-.966-1.023,2.768,2.768,0,0,0-1.472-.38,2.619,2.619,0,0,0-1.426.391A2.681,2.681,0,0,0,34.914-13.455ZM39.721-2.438A3.9,3.9,0,0,0,40.3-4.623a4.342,4.342,0,0,0-.368-1.863A2.589,2.589,0,0,0,37.329-8,2.583,2.583,0,0,0,34.8-6.578,4.036,4.036,0,0,0,34.385-4.6a3.881,3.881,0,0,0,.506,2.093,2.682,2.682,0,0,0,2.461,1.265A2.571,2.571,0,0,0,39.721-2.438Z" transform="translate(639.557 2485.525)" fill="#6f7075"/>
    <path id="Trazado_2092" data-name="Trazado 2092" d="M3.5-1.541q-.069.115.046.115h7.222a.2.2,0,0,1,.23.23V-.23a.2.2,0,0,1-.23.23H1.587a.2.2,0,0,1-.23-.23V-1.2a.376.376,0,0,1,.115-.276q.782-.92,3.519-4.324l1.7-2.116q2.162-2.737,2.162-4.255a2.488,2.488,0,0,0-.828-1.955,3.133,3.133,0,0,0-2.162-.736,2.986,2.986,0,0,0-2.116.748,2.489,2.489,0,0,0-.782,1.967v.713a.2.2,0,0,1-.23.23h-1.2a.2.2,0,0,1-.23-.23v-.92A3.688,3.688,0,0,1,2.634-15.2a4.827,4.827,0,0,1,3.231-1.081,5.382,5.382,0,0,1,2.438.529,3.934,3.934,0,0,1,1.633,1.46,3.925,3.925,0,0,1,.575,2.1q0,1.955-2.162,4.715Q7.222-6.026,4-2.139ZM18.331.23a4.854,4.854,0,0,1-3.519-1.265A4.481,4.481,0,0,1,13.5-4.416v-7.268a4.443,4.443,0,0,1,1.311-3.37,4.88,4.88,0,0,1,3.519-1.253A4.968,4.968,0,0,1,21.9-15.042a4.411,4.411,0,0,1,1.334,3.358v7.268A4.44,4.44,0,0,1,21.9-1.035,4.968,4.968,0,0,1,18.331.23Zm0-1.426A3.3,3.3,0,0,0,20.7-2.047a2.991,2.991,0,0,0,.9-2.277v-7.429a2.982,2.982,0,0,0-.885-2.254,3.291,3.291,0,0,0-2.381-.851,3.187,3.187,0,0,0-2.323.851,3,3,0,0,0-.874,2.254v7.429a3.032,3.032,0,0,0,.874,2.277A3.187,3.187,0,0,0,18.331-1.2ZM27.9-16.031a.659.659,0,0,1,.3-.069H29.44a.2.2,0,0,1,.23.23V-.23a.2.2,0,0,1-.23.23H28.267a.2.2,0,0,1-.23-.23V-14.237A.077.077,0,0,0,28-14.306a.076.076,0,0,0-.08,0l-2.438.989-.092.023q-.138,0-.184-.184l-.115-.874V-14.4q0-.115.161-.23Zm13.662,2.76a7.558,7.558,0,0,1,.276,2.162v7.176a3.834,3.834,0,0,1-1.242,3A4.669,4.669,0,0,1,37.352.184,4.5,4.5,0,0,1,34.212-.909,3.652,3.652,0,0,1,33-3.749v-.322a.2.2,0,0,1,.23-.23h1.173a.2.2,0,0,1,.23.23v.184A2.541,2.541,0,0,0,35.4-1.978a2.691,2.691,0,0,0,1.955.736A2.84,2.84,0,0,0,39.4-2.013,2.688,2.688,0,0,0,40.2-4.048V-7.406a.054.054,0,0,0-.046-.057.056.056,0,0,0-.069.034,3.545,3.545,0,0,1-3.036,1.357,4.318,4.318,0,0,1-2.426-.644,4.017,4.017,0,0,1-1.484-1.817,5.927,5.927,0,0,1-.483-2.622,6.49,6.49,0,0,1,.345-2.3,4.144,4.144,0,0,1,1.553-2.07,4.535,4.535,0,0,1,2.633-.736,4.767,4.767,0,0,1,2.794.793A4.063,4.063,0,0,1,41.561-13.271ZM37.26-7.5a2.9,2.9,0,0,0,1.714-.494,2.565,2.565,0,0,0,.978-1.369,5.439,5.439,0,0,0,.253-1.863A5.9,5.9,0,0,0,40-12.9a2.719,2.719,0,0,0-.989-1.4,2.852,2.852,0,0,0-1.748-.529,2.912,2.912,0,0,0-1.7.494A2.661,2.661,0,0,0,34.546-12.9a4.9,4.9,0,0,0-.253,1.748,4.6,4.6,0,0,0,.3,1.84,2.592,2.592,0,0,0,.966,1.322A2.846,2.846,0,0,0,37.26-7.5Z" transform="translate(813.393 2485.525)" fill="#6f7075"/>
    <path id="Trazado_2091" data-name="Trazado 2091" d="M3.5-1.541q-.069.115.046.115h7.222a.2.2,0,0,1,.23.23V-.23a.2.2,0,0,1-.23.23H1.587a.2.2,0,0,1-.23-.23V-1.2a.376.376,0,0,1,.115-.276q.782-.92,3.519-4.324l1.7-2.116q2.162-2.737,2.162-4.255a2.488,2.488,0,0,0-.828-1.955,3.133,3.133,0,0,0-2.162-.736,2.986,2.986,0,0,0-2.116.748,2.489,2.489,0,0,0-.782,1.967v.713a.2.2,0,0,1-.23.23h-1.2a.2.2,0,0,1-.23-.23v-.92A3.688,3.688,0,0,1,2.634-15.2a4.827,4.827,0,0,1,3.231-1.081,5.382,5.382,0,0,1,2.438.529,3.934,3.934,0,0,1,1.633,1.46,3.925,3.925,0,0,1,.575,2.1q0,1.955-2.162,4.715Q7.222-6.026,4-2.139ZM18.331.23a4.854,4.854,0,0,1-3.519-1.265A4.481,4.481,0,0,1,13.5-4.416v-7.268a4.443,4.443,0,0,1,1.311-3.37,4.88,4.88,0,0,1,3.519-1.253A4.968,4.968,0,0,1,21.9-15.042a4.411,4.411,0,0,1,1.334,3.358v7.268A4.44,4.44,0,0,1,21.9-1.035,4.968,4.968,0,0,1,18.331.23Zm0-1.426A3.3,3.3,0,0,0,20.7-2.047a2.991,2.991,0,0,0,.9-2.277v-7.429a2.982,2.982,0,0,0-.885-2.254,3.291,3.291,0,0,0-2.381-.851,3.187,3.187,0,0,0-2.323.851,3,3,0,0,0-.874,2.254v7.429a3.032,3.032,0,0,0,.874,2.277A3.187,3.187,0,0,0,18.331-1.2ZM27.9-1.541q-.069.115.046.115h7.222a.2.2,0,0,1,.23.23V-.23a.2.2,0,0,1-.23.23H25.99a.2.2,0,0,1-.23-.23V-1.2a.376.376,0,0,1,.115-.276q.782-.92,3.519-4.324l1.7-2.116q2.162-2.737,2.162-4.255a2.488,2.488,0,0,0-.828-1.955,3.133,3.133,0,0,0-2.162-.736,2.986,2.986,0,0,0-2.116.748,2.489,2.489,0,0,0-.782,1.967v.713a.2.2,0,0,1-.23.23h-1.2a.2.2,0,0,1-.23-.23v-.92A3.688,3.688,0,0,1,27.036-15.2a4.827,4.827,0,0,1,3.232-1.081,5.382,5.382,0,0,1,2.438.529,3.934,3.934,0,0,1,1.633,1.46,3.925,3.925,0,0,1,.575,2.1q0,1.955-2.162,4.715Q31.625-6.026,28.4-2.139ZM42.734.23a4.854,4.854,0,0,1-3.519-1.265A4.481,4.481,0,0,1,37.9-4.416v-7.268a4.443,4.443,0,0,1,1.311-3.37,4.88,4.88,0,0,1,3.519-1.253A4.968,4.968,0,0,1,46.3-15.042a4.411,4.411,0,0,1,1.334,3.358v7.268A4.44,4.44,0,0,1,46.3-1.035,4.968,4.968,0,0,1,42.734.23Zm0-1.426A3.3,3.3,0,0,0,45.1-2.047,2.991,2.991,0,0,0,46-4.324v-7.429a2.982,2.982,0,0,0-.885-2.254,3.291,3.291,0,0,0-2.381-.851,3.187,3.187,0,0,0-2.323.851,3,3,0,0,0-.874,2.254v7.429a3.032,3.032,0,0,0,.874,2.277A3.187,3.187,0,0,0,42.734-1.2Z" transform="translate(983.781 2485.525)" fill="#6f7075"/>
    <g id="Grupo_1034" data-name="Grupo 1034" transform="translate(281.122 2031)" clip-path="url(#clip-path)">
      <g id="Grupo_1033" data-name="Grupo 1033" transform="translate(0 418.328)">
        <path id="Trazado_1140" data-name="Trazado 1140" d="M805.757.25H0v-.5H805.757Z" fill="#5c5a56"/>
      </g>
    </g>
    <g id="Grupo_1035" data-name="Grupo 1035" transform="translate(321.649 2171.947)">
      <path id="Trazado_1142" data-name="Trazado 1142" d="M0,51.9a.5.5,0,0,1-.463-.31.5.5,0,0,1,.272-.653L169.1-18.74H671.168a.5.5,0,0,1,.5.5.5.5,0,0,1-.5.5H169.3L.19,51.867A.5.5,0,0,1,0,51.9Z" transform="translate(0 18.24)" fill="#ff6429"/>
    </g>
    <g id="Grupo_1036" data-name="Grupo 1036" transform="translate(324.355 2283.98)">
      <path id="Trazado_1143" data-name="Trazado 1143" d="M668.461.5H0A.5.5,0,0,1-.5,0,.5.5,0,0,1,0-.5H668.461a.5.5,0,0,1,.5.5A.5.5,0,0,1,668.461.5Z" fill="#002945"/>
    </g>
    <g id="Grupo_1037" data-name="Grupo 1037" transform="translate(323.362 2031)">
      <path id="Trazado_1144" data-name="Trazado 1144" d="M0,0V418.321M168.239,0V418.321M335.278,0V418.321M502.307,0V418.321M670.545,0V418.321" fill="none" stroke="#d7d6d3" stroke-linejoin="round" stroke-width="0.25"/>
    </g>
    <g id="Grupo_1048" data-name="Grupo 1048" transform="translate(281.122 2031)" clip-path="url(#clip-path)">
      <g id="Grupo_1038" data-name="Grupo 1038" transform="translate(207.023 135.538)">
        <path id="Trazado_1145" data-name="Trazado 1145" d="M7.99,3.993a5.412,5.412,0,1,1-5.41-5.41,5.411,5.411,0,0,1,5.41,5.41" transform="translate(2.835 1.417)" fill="#ff6429"/>
      </g>
      <g id="Grupo_1039" data-name="Grupo 1039" transform="translate(207.023 247.569)">
        <path id="Trazado_1146" data-name="Trazado 1146" d="M7.99,3.993a5.412,5.412,0,1,1-5.41-5.41,5.411,5.411,0,0,1,5.41,5.41" transform="translate(2.835 1.417)" fill="#002945"/>
      </g>
      <g id="Grupo_1040" data-name="Grupo 1040" transform="translate(39.285 247.569)">
        <path id="Trazado_1147" data-name="Trazado 1147" d="M7.99,3.993a5.412,5.412,0,1,1-5.41-5.41,5.411,5.411,0,0,1,5.41,5.41" transform="translate(2.835 1.417)" fill="#002945"/>
      </g>
      <g id="Grupo_1041" data-name="Grupo 1041" transform="translate(37.821 205.181)">
        <path id="Trazado_1148" data-name="Trazado 1148" d="M7.99,3.993a5.412,5.412,0,1,1-5.41-5.41,5.411,5.411,0,0,1,5.41,5.41" transform="translate(2.835 1.417)" fill="#ff6429"/>
      </g>
      <g id="Grupo_1042" data-name="Grupo 1042" transform="translate(373.442 135.538)">
        <path id="Trazado_1149" data-name="Trazado 1149" d="M7.99,3.993a5.412,5.412,0,1,1-5.41-5.41,5.411,5.411,0,0,1,5.41,5.41" transform="translate(2.835 1.417)" fill="#ff6429"/>
      </g>
      <g id="Grupo_1043" data-name="Grupo 1043" transform="translate(373.442 247.569)">
        <path id="Trazado_1150" data-name="Trazado 1150" d="M7.99,3.993a5.412,5.412,0,1,1-5.41-5.41,5.411,5.411,0,0,1,5.41,5.41" transform="translate(2.835 1.417)" fill="#002945"/>
      </g>
      <g id="Grupo_1044" data-name="Grupo 1044" transform="translate(539.862 135.538)">
        <path id="Trazado_1151" data-name="Trazado 1151" d="M7.99,3.993a5.412,5.412,0,1,1-5.41-5.41,5.411,5.411,0,0,1,5.41,5.41" transform="translate(2.835 1.417)" fill="#ff6429"/>
      </g>
      <g id="Grupo_1045" data-name="Grupo 1045" transform="translate(539.862 247.569)">
        <path id="Trazado_1152" data-name="Trazado 1152" d="M7.99,3.993a5.412,5.412,0,1,1-5.41-5.41,5.411,5.411,0,0,1,5.41,5.41" transform="translate(2.835 1.417)" fill="#002945"/>
      </g>
      <g id="Grupo_1046" data-name="Grupo 1046" transform="translate(706.282 135.538)">
        <path id="Trazado_1153" data-name="Trazado 1153" d="M7.99,3.993a5.412,5.412,0,1,1-5.41-5.41,5.411,5.411,0,0,1,5.41,5.41" transform="translate(2.835 1.417)" fill="#ff6429"/>
      </g>
      <g id="Grupo_1047" data-name="Grupo 1047" transform="translate(706.282 247.569)">
        <path id="Trazado_1154" data-name="Trazado 1154" d="M7.99,3.993a5.412,5.412,0,1,1-5.41-5.41,5.411,5.411,0,0,1,5.41,5.41" transform="translate(2.835 1.417)" fill="#002945"/>
      </g>
    </g>
    <path id="Trazado_2087" data-name="Trazado 2087" d="M15.912-10.54a12.709,12.709,0,0,1,.374,3.094,10.254,10.254,0,0,1-.408,2.958,6.268,6.268,0,0,1-2.465,3.451A7.36,7.36,0,0,1,9.078.238,7.28,7.28,0,0,1,4.828-.986,6.456,6.456,0,0,1,2.346-4.318a5.9,5.9,0,0,1-.374-1.666v-.068q0-.272.306-.272H4.964a.307.307,0,0,1,.34.306,5.929,5.929,0,0,0,.17.714A3.83,3.83,0,0,0,6.783-3.315a3.559,3.559,0,0,0,2.261.731,3.7,3.7,0,0,0,2.363-.765,3.776,3.776,0,0,0,1.309-2.125,6.474,6.474,0,0,0,.238-1.972,9.9,9.9,0,0,0-.2-2.074,3.014,3.014,0,0,0-1.207-1.989,4,4,0,0,0-2.4-.7,4.756,4.756,0,0,0-2.38.6,2.743,2.743,0,0,0-1.36,1.581.381.381,0,0,1-.374.306H2.312a.3.3,0,0,1-.34-.34v-13.4a.3.3,0,0,1,.34-.34H15.028a.3.3,0,0,1,.34.34v2.142a.3.3,0,0,1-.34.34H5.372a.12.12,0,0,0-.136.136L5.2-13.736q0,.2.17.1A5.449,5.449,0,0,1,7.259-14.7a7.1,7.1,0,0,1,2.261-.357,7.012,7.012,0,0,1,4.1,1.19A5.721,5.721,0,0,1,15.912-10.54ZM22.542,0a.293.293,0,0,1-.255-.119.287.287,0,0,1-.017-.289l7.718-20.4a.112.112,0,0,0,0-.119.114.114,0,0,0-.1-.051H21.692a.12.12,0,0,0-.136.136v1.6a.3.3,0,0,1-.34.34h-2.04a.3.3,0,0,1-.34-.34V-23.46a.3.3,0,0,1,.34-.34H33.15a.3.3,0,0,1,.34.34v2.278a1.86,1.86,0,0,1-.068.408L25.738-.272A.374.374,0,0,1,25.364,0ZM42.024-14.042a5.028,5.028,0,0,1-2.567-.68A5.052,5.052,0,0,1,37.6-16.558a4.937,4.937,0,0,1-.68-2.55,4.874,4.874,0,0,1,.68-2.516,4.923,4.923,0,0,1,1.853-1.819,5.128,5.128,0,0,1,2.567-.663,4.874,4.874,0,0,1,2.516.68,5.135,5.135,0,0,1,1.836,1.819,4.785,4.785,0,0,1,.68,2.5,4.937,4.937,0,0,1-.68,2.55,5.092,5.092,0,0,1-1.836,1.836A4.874,4.874,0,0,1,42.024-14.042ZM41.038,0a.286.286,0,0,1-.272-.119A.277.277,0,0,1,40.8-.408L53.652-23.562a.441.441,0,0,1,.408-.238h1.666a.286.286,0,0,1,.272.119.277.277,0,0,1-.034.289L43.112-.238A.4.4,0,0,1,42.7,0Zm.986-16.048a2.807,2.807,0,0,0,2.108-.884,3.019,3.019,0,0,0,.85-2.176,2.89,2.89,0,0,0-.867-2.125,2.85,2.85,0,0,0-2.091-.867,2.946,2.946,0,0,0-2.142.867A2.861,2.861,0,0,0,39-19.108a2.957,2.957,0,0,0,.884,2.176A2.917,2.917,0,0,0,42.024-16.048ZM54.978.306a5.028,5.028,0,0,1-2.567-.68A5.051,5.051,0,0,1,50.558-2.21a4.874,4.874,0,0,1-.68-2.516,4.874,4.874,0,0,1,.68-2.516,5.052,5.052,0,0,1,1.853-1.836,5.028,5.028,0,0,1,2.567-.68,4.874,4.874,0,0,1,2.516.68A5.092,5.092,0,0,1,59.33-7.242a4.874,4.874,0,0,1,.68,2.516,4.874,4.874,0,0,1-.68,2.516A5.092,5.092,0,0,1,57.494-.374,4.874,4.874,0,0,1,54.978.306Zm0-2.006a2.807,2.807,0,0,0,2.108-.884,2.977,2.977,0,0,0,.85-2.142,2.946,2.946,0,0,0-.867-2.142,2.822,2.822,0,0,0-2.091-.884,2.917,2.917,0,0,0-2.142.884,2.917,2.917,0,0,0-.884,2.142,2.917,2.917,0,0,0,.884,2.142A2.917,2.917,0,0,0,54.978-1.7Z" transform="translate(463.342 2155)" fill="#ff6429"/>
    <path id="Trazado_2084" data-name="Trazado 2084" d="M17.136-9.316a.3.3,0,0,1,.34.34v2.244a.3.3,0,0,1-.34.34H15.674a.12.12,0,0,0-.136.136V-.34A.3.3,0,0,1,15.2,0H12.614a.3.3,0,0,1-.34-.34V-6.256a.12.12,0,0,0-.136-.136H1.8a.3.3,0,0,1-.34-.34V-8.568a1.07,1.07,0,0,1,.1-.408l6.7-14.586a.373.373,0,0,1,.374-.238h2.72a.293.293,0,0,1,.255.119.287.287,0,0,1,.017.289L5.236-9.486a.112.112,0,0,0,0,.119.114.114,0,0,0,.1.051h6.8a.12.12,0,0,0,.136-.136v-5.066a.3.3,0,0,1,.34-.34H15.2a.3.3,0,0,1,.34.34v5.066a.12.12,0,0,0,.136.136ZM28.968.34a7.52,7.52,0,0,1-5.457-1.955,6.966,6.966,0,0,1-2.023-5.253V-16.932a6.91,6.91,0,0,1,2.023-5.236,7.559,7.559,0,0,1,5.457-1.938,7.681,7.681,0,0,1,5.491,1.938,6.85,6.85,0,0,1,2.057,5.236V-6.868a6.905,6.905,0,0,1-2.057,5.253A7.641,7.641,0,0,1,28.968.34Zm0-2.822A4.263,4.263,0,0,0,32.1-3.621a4.079,4.079,0,0,0,1.156-3.043v-10.4A4.079,4.079,0,0,0,32.1-20.111a4.263,4.263,0,0,0-3.128-1.139,4.171,4.171,0,0,0-3.06,1.139,4.079,4.079,0,0,0-1.156,3.043v10.4a4.079,4.079,0,0,0,1.156,3.043A4.171,4.171,0,0,0,28.968-2.482Zm17.544-11.56a5.028,5.028,0,0,1-2.567-.68,5.052,5.052,0,0,1-1.853-1.836,4.937,4.937,0,0,1-.68-2.55,4.874,4.874,0,0,1,.68-2.516,4.923,4.923,0,0,1,1.853-1.819,5.128,5.128,0,0,1,2.567-.663,4.874,4.874,0,0,1,2.516.68,5.135,5.135,0,0,1,1.836,1.819,4.785,4.785,0,0,1,.68,2.5,4.937,4.937,0,0,1-.68,2.55,5.092,5.092,0,0,1-1.836,1.836A4.874,4.874,0,0,1,46.512-14.042ZM45.526,0a.286.286,0,0,1-.272-.119.277.277,0,0,1,.034-.289L58.14-23.562a.441.441,0,0,1,.408-.238h1.666a.286.286,0,0,1,.272.119.277.277,0,0,1-.034.289L47.6-.238A.4.4,0,0,1,47.192,0Zm.986-16.048a2.807,2.807,0,0,0,2.108-.884,3.019,3.019,0,0,0,.85-2.176,2.89,2.89,0,0,0-.867-2.125,2.85,2.85,0,0,0-2.091-.867,2.946,2.946,0,0,0-2.142.867,2.861,2.861,0,0,0-.884,2.125,2.957,2.957,0,0,0,.884,2.176A2.917,2.917,0,0,0,46.512-16.048ZM59.466.306A5.028,5.028,0,0,1,56.9-.374,5.051,5.051,0,0,1,55.046-2.21a4.874,4.874,0,0,1-.68-2.516,4.874,4.874,0,0,1,.68-2.516A5.052,5.052,0,0,1,56.9-9.078a5.028,5.028,0,0,1,2.567-.68,4.874,4.874,0,0,1,2.516.68,5.092,5.092,0,0,1,1.836,1.836,4.874,4.874,0,0,1,.68,2.516,4.874,4.874,0,0,1-.68,2.516A5.092,5.092,0,0,1,61.982-.374,4.874,4.874,0,0,1,59.466.306Zm0-2.006a2.807,2.807,0,0,0,2.108-.884,2.977,2.977,0,0,0,.85-2.142,2.946,2.946,0,0,0-.867-2.142,2.822,2.822,0,0,0-2.091-.884,2.917,2.917,0,0,0-2.142.884,2.917,2.917,0,0,0-.884,2.142,2.917,2.917,0,0,0,.884,2.142A2.917,2.917,0,0,0,59.466-1.7Z" transform="translate(466.022 2328.298)" fill="#002945"/>
    <path id="Trazado_2085" data-name="Trazado 2085" d="M17.136-9.316a.3.3,0,0,1,.34.34v2.244a.3.3,0,0,1-.34.34H15.674a.12.12,0,0,0-.136.136V-.34A.3.3,0,0,1,15.2,0H12.614a.3.3,0,0,1-.34-.34V-6.256a.12.12,0,0,0-.136-.136H1.8a.3.3,0,0,1-.34-.34V-8.568a1.07,1.07,0,0,1,.1-.408l6.7-14.586a.373.373,0,0,1,.374-.238h2.72a.293.293,0,0,1,.255.119.287.287,0,0,1,.017.289L5.236-9.486a.112.112,0,0,0,0,.119.114.114,0,0,0,.1.051h6.8a.12.12,0,0,0,.136-.136v-5.066a.3.3,0,0,1,.34-.34H15.2a.3.3,0,0,1,.34.34v5.066a.12.12,0,0,0,.136.136ZM28.968.34a7.52,7.52,0,0,1-5.457-1.955,6.966,6.966,0,0,1-2.023-5.253V-16.932a6.91,6.91,0,0,1,2.023-5.236,7.559,7.559,0,0,1,5.457-1.938,7.681,7.681,0,0,1,5.491,1.938,6.85,6.85,0,0,1,2.057,5.236V-6.868a6.905,6.905,0,0,1-2.057,5.253A7.641,7.641,0,0,1,28.968.34Zm0-2.822A4.263,4.263,0,0,0,32.1-3.621a4.079,4.079,0,0,0,1.156-3.043v-10.4A4.079,4.079,0,0,0,32.1-20.111a4.263,4.263,0,0,0-3.128-1.139,4.171,4.171,0,0,0-3.06,1.139,4.079,4.079,0,0,0-1.156,3.043v10.4a4.079,4.079,0,0,0,1.156,3.043A4.171,4.171,0,0,0,28.968-2.482Zm17.544-11.56a5.028,5.028,0,0,1-2.567-.68,5.052,5.052,0,0,1-1.853-1.836,4.937,4.937,0,0,1-.68-2.55,4.874,4.874,0,0,1,.68-2.516,4.923,4.923,0,0,1,1.853-1.819,5.128,5.128,0,0,1,2.567-.663,4.874,4.874,0,0,1,2.516.68,5.135,5.135,0,0,1,1.836,1.819,4.785,4.785,0,0,1,.68,2.5,4.937,4.937,0,0,1-.68,2.55,5.092,5.092,0,0,1-1.836,1.836A4.874,4.874,0,0,1,46.512-14.042ZM45.526,0a.286.286,0,0,1-.272-.119.277.277,0,0,1,.034-.289L58.14-23.562a.441.441,0,0,1,.408-.238h1.666a.286.286,0,0,1,.272.119.277.277,0,0,1-.034.289L47.6-.238A.4.4,0,0,1,47.192,0Zm.986-16.048a2.807,2.807,0,0,0,2.108-.884,3.019,3.019,0,0,0,.85-2.176,2.89,2.89,0,0,0-.867-2.125,2.85,2.85,0,0,0-2.091-.867,2.946,2.946,0,0,0-2.142.867,2.861,2.861,0,0,0-.884,2.125,2.957,2.957,0,0,0,.884,2.176A2.917,2.917,0,0,0,46.512-16.048ZM59.466.306A5.028,5.028,0,0,1,56.9-.374,5.051,5.051,0,0,1,55.046-2.21a4.874,4.874,0,0,1-.68-2.516,4.874,4.874,0,0,1,.68-2.516A5.052,5.052,0,0,1,56.9-9.078a5.028,5.028,0,0,1,2.567-.68,4.874,4.874,0,0,1,2.516.68,5.092,5.092,0,0,1,1.836,1.836,4.874,4.874,0,0,1,.68,2.516,4.874,4.874,0,0,1-.68,2.516A5.092,5.092,0,0,1,61.982-.374,4.874,4.874,0,0,1,59.466.306Zm0-2.006a2.807,2.807,0,0,0,2.108-.884,2.977,2.977,0,0,0,.85-2.142,2.946,2.946,0,0,0-.867-2.142,2.822,2.822,0,0,0-2.091-.884,2.917,2.917,0,0,0-2.142.884,2.917,2.917,0,0,0-.884,2.142,2.917,2.917,0,0,0,.884,2.142A2.917,2.917,0,0,0,59.466-1.7Z" transform="translate(299.7 2328.298)" fill="#002945"/>
    <path id="Trazado_2086" data-name="Trazado 2086" d="M17.136-9.316a.3.3,0,0,1,.34.34v2.244a.3.3,0,0,1-.34.34H15.674a.12.12,0,0,0-.136.136V-.34A.3.3,0,0,1,15.2,0H12.614a.3.3,0,0,1-.34-.34V-6.256a.12.12,0,0,0-.136-.136H1.8a.3.3,0,0,1-.34-.34V-8.568a1.07,1.07,0,0,1,.1-.408l6.7-14.586a.373.373,0,0,1,.374-.238h2.72a.293.293,0,0,1,.255.119.287.287,0,0,1,.017.289L5.236-9.486a.112.112,0,0,0,0,.119.114.114,0,0,0,.1.051h6.8a.12.12,0,0,0,.136-.136v-5.066a.3.3,0,0,1,.34-.34H15.2a.3.3,0,0,1,.34.34v5.066a.12.12,0,0,0,.136.136Zm8.33,6.324a.112.112,0,0,0,0,.119.114.114,0,0,0,.1.051H35.8a.3.3,0,0,1,.34.34V-.34A.3.3,0,0,1,35.8,0H21.556a.3.3,0,0,1-.34-.34V-2.414a.556.556,0,0,1,.17-.408q1.156-1.326,5.3-6.222l2.346-2.822Q32.2-15.64,32.2-17.714a3.3,3.3,0,0,0-1.071-2.567,4.07,4.07,0,0,0-2.839-.969,3.964,3.964,0,0,0-2.822.986,3.272,3.272,0,0,0-1.02,2.584v1.02a.3.3,0,0,1-.34.34H21.488a.3.3,0,0,1-.34-.34v-1.462a5.8,5.8,0,0,1,1-3.128,6.058,6.058,0,0,1,2.533-2.091,8.568,8.568,0,0,1,3.6-.731,8.413,8.413,0,0,1,3.808.816,6.07,6.07,0,0,1,2.516,2.244,6.011,6.011,0,0,1,.884,3.23q0,2.822-3.06,6.664-1.36,1.734-3.23,3.893T25.466-2.992Zm20.3-11.05a5.028,5.028,0,0,1-2.567-.68,5.052,5.052,0,0,1-1.853-1.836,4.937,4.937,0,0,1-.68-2.55,4.874,4.874,0,0,1,.68-2.516A4.923,4.923,0,0,1,43.2-23.443a5.128,5.128,0,0,1,2.567-.663,4.874,4.874,0,0,1,2.516.68,5.135,5.135,0,0,1,1.836,1.819,4.785,4.785,0,0,1,.68,2.5,4.937,4.937,0,0,1-.68,2.55,5.092,5.092,0,0,1-1.836,1.836A4.874,4.874,0,0,1,45.764-14.042ZM44.778,0a.286.286,0,0,1-.272-.119.277.277,0,0,1,.034-.289L57.392-23.562A.441.441,0,0,1,57.8-23.8h1.666a.286.286,0,0,1,.272.119.277.277,0,0,1-.034.289L46.852-.238A.4.4,0,0,1,46.444,0Zm.986-16.048a2.807,2.807,0,0,0,2.108-.884,3.019,3.019,0,0,0,.85-2.176,2.89,2.89,0,0,0-.867-2.125,2.85,2.85,0,0,0-2.091-.867,2.946,2.946,0,0,0-2.142.867,2.861,2.861,0,0,0-.884,2.125,2.957,2.957,0,0,0,.884,2.176A2.917,2.917,0,0,0,45.764-16.048ZM58.718.306a5.028,5.028,0,0,1-2.567-.68A5.051,5.051,0,0,1,54.3-2.21a4.874,4.874,0,0,1-.68-2.516,4.874,4.874,0,0,1,.68-2.516,5.052,5.052,0,0,1,1.853-1.836,5.028,5.028,0,0,1,2.567-.68,4.874,4.874,0,0,1,2.516.68A5.092,5.092,0,0,1,63.07-7.242a4.874,4.874,0,0,1,.68,2.516,4.874,4.874,0,0,1-.68,2.516A5.092,5.092,0,0,1,61.234-.374,4.874,4.874,0,0,1,58.718.306Zm0-2.006a2.807,2.807,0,0,0,2.108-.884,2.977,2.977,0,0,0,.85-2.142,2.946,2.946,0,0,0-.867-2.142,2.822,2.822,0,0,0-2.091-.884,2.917,2.917,0,0,0-2.142.884,2.917,2.917,0,0,0-.884,2.142,2.917,2.917,0,0,0,.884,2.142A2.917,2.917,0,0,0,58.718-1.7Z" transform="translate(297.673 2211.838)" fill="#ff6429"/>
    <path id="Trazado_2088" data-name="Trazado 2088" d="M15.912-10.54a12.709,12.709,0,0,1,.374,3.094,10.254,10.254,0,0,1-.408,2.958,6.268,6.268,0,0,1-2.465,3.451A7.36,7.36,0,0,1,9.078.238,7.28,7.28,0,0,1,4.828-.986,6.456,6.456,0,0,1,2.346-4.318a5.9,5.9,0,0,1-.374-1.666v-.068q0-.272.306-.272H4.964a.307.307,0,0,1,.34.306,5.929,5.929,0,0,0,.17.714A3.83,3.83,0,0,0,6.783-3.315a3.559,3.559,0,0,0,2.261.731,3.7,3.7,0,0,0,2.363-.765,3.776,3.776,0,0,0,1.309-2.125,6.474,6.474,0,0,0,.238-1.972,9.9,9.9,0,0,0-.2-2.074,3.014,3.014,0,0,0-1.207-1.989,4,4,0,0,0-2.4-.7,4.756,4.756,0,0,0-2.38.6,2.743,2.743,0,0,0-1.36,1.581.381.381,0,0,1-.374.306H2.312a.3.3,0,0,1-.34-.34v-13.4a.3.3,0,0,1,.34-.34H15.028a.3.3,0,0,1,.34.34v2.142a.3.3,0,0,1-.34.34H5.372a.12.12,0,0,0-.136.136L5.2-13.736q0,.2.17.1A5.449,5.449,0,0,1,7.259-14.7a7.1,7.1,0,0,1,2.261-.357,7.012,7.012,0,0,1,4.1,1.19A5.721,5.721,0,0,1,15.912-10.54ZM22.542,0a.293.293,0,0,1-.255-.119.287.287,0,0,1-.017-.289l7.718-20.4a.112.112,0,0,0,0-.119.114.114,0,0,0-.1-.051H21.692a.12.12,0,0,0-.136.136v1.6a.3.3,0,0,1-.34.34h-2.04a.3.3,0,0,1-.34-.34V-23.46a.3.3,0,0,1,.34-.34H33.15a.3.3,0,0,1,.34.34v2.278a1.86,1.86,0,0,1-.068.408L25.738-.272A.374.374,0,0,1,25.364,0ZM42.024-14.042a5.028,5.028,0,0,1-2.567-.68A5.052,5.052,0,0,1,37.6-16.558a4.937,4.937,0,0,1-.68-2.55,4.874,4.874,0,0,1,.68-2.516,4.923,4.923,0,0,1,1.853-1.819,5.128,5.128,0,0,1,2.567-.663,4.874,4.874,0,0,1,2.516.68,5.135,5.135,0,0,1,1.836,1.819,4.785,4.785,0,0,1,.68,2.5,4.937,4.937,0,0,1-.68,2.55,5.092,5.092,0,0,1-1.836,1.836A4.874,4.874,0,0,1,42.024-14.042ZM41.038,0a.286.286,0,0,1-.272-.119A.277.277,0,0,1,40.8-.408L53.652-23.562a.441.441,0,0,1,.408-.238h1.666a.286.286,0,0,1,.272.119.277.277,0,0,1-.034.289L43.112-.238A.4.4,0,0,1,42.7,0Zm.986-16.048a2.807,2.807,0,0,0,2.108-.884,3.019,3.019,0,0,0,.85-2.176,2.89,2.89,0,0,0-.867-2.125,2.85,2.85,0,0,0-2.091-.867,2.946,2.946,0,0,0-2.142.867A2.861,2.861,0,0,0,39-19.108a2.957,2.957,0,0,0,.884,2.176A2.917,2.917,0,0,0,42.024-16.048ZM54.978.306a5.028,5.028,0,0,1-2.567-.68A5.051,5.051,0,0,1,50.558-2.21a4.874,4.874,0,0,1-.68-2.516,4.874,4.874,0,0,1,.68-2.516,5.052,5.052,0,0,1,1.853-1.836,5.028,5.028,0,0,1,2.567-.68,4.874,4.874,0,0,1,2.516.68A5.092,5.092,0,0,1,59.33-7.242a4.874,4.874,0,0,1,.68,2.516,4.874,4.874,0,0,1-.68,2.516A5.092,5.092,0,0,1,57.494-.374,4.874,4.874,0,0,1,54.978.306Zm0-2.006a2.807,2.807,0,0,0,2.108-.884,2.977,2.977,0,0,0,.85-2.142,2.946,2.946,0,0,0-.867-2.142,2.822,2.822,0,0,0-2.091-.884,2.917,2.917,0,0,0-2.142.884,2.917,2.917,0,0,0-.884,2.142,2.917,2.917,0,0,0,.884,2.142A2.917,2.917,0,0,0,54.978-1.7Z" transform="translate(629.286 2155)" fill="#ff6429"/>
    <path id="Trazado_2083" data-name="Trazado 2083" d="M17.136-9.316a.3.3,0,0,1,.34.34v2.244a.3.3,0,0,1-.34.34H15.674a.12.12,0,0,0-.136.136V-.34A.3.3,0,0,1,15.2,0H12.614a.3.3,0,0,1-.34-.34V-6.256a.12.12,0,0,0-.136-.136H1.8a.3.3,0,0,1-.34-.34V-8.568a1.07,1.07,0,0,1,.1-.408l6.7-14.586a.373.373,0,0,1,.374-.238h2.72a.293.293,0,0,1,.255.119.287.287,0,0,1,.017.289L5.236-9.486a.112.112,0,0,0,0,.119.114.114,0,0,0,.1.051h6.8a.12.12,0,0,0,.136-.136v-5.066a.3.3,0,0,1,.34-.34H15.2a.3.3,0,0,1,.34.34v5.066a.12.12,0,0,0,.136.136ZM28.968.34a7.52,7.52,0,0,1-5.457-1.955,6.966,6.966,0,0,1-2.023-5.253V-16.932a6.91,6.91,0,0,1,2.023-5.236,7.559,7.559,0,0,1,5.457-1.938,7.681,7.681,0,0,1,5.491,1.938,6.85,6.85,0,0,1,2.057,5.236V-6.868a6.905,6.905,0,0,1-2.057,5.253A7.641,7.641,0,0,1,28.968.34Zm0-2.822A4.263,4.263,0,0,0,32.1-3.621a4.079,4.079,0,0,0,1.156-3.043v-10.4A4.079,4.079,0,0,0,32.1-20.111a4.263,4.263,0,0,0-3.128-1.139,4.171,4.171,0,0,0-3.06,1.139,4.079,4.079,0,0,0-1.156,3.043v10.4a4.079,4.079,0,0,0,1.156,3.043A4.171,4.171,0,0,0,28.968-2.482Zm17.544-11.56a5.028,5.028,0,0,1-2.567-.68,5.052,5.052,0,0,1-1.853-1.836,4.937,4.937,0,0,1-.68-2.55,4.874,4.874,0,0,1,.68-2.516,4.923,4.923,0,0,1,1.853-1.819,5.128,5.128,0,0,1,2.567-.663,4.874,4.874,0,0,1,2.516.68,5.135,5.135,0,0,1,1.836,1.819,4.785,4.785,0,0,1,.68,2.5,4.937,4.937,0,0,1-.68,2.55,5.092,5.092,0,0,1-1.836,1.836A4.874,4.874,0,0,1,46.512-14.042ZM45.526,0a.286.286,0,0,1-.272-.119.277.277,0,0,1,.034-.289L58.14-23.562a.441.441,0,0,1,.408-.238h1.666a.286.286,0,0,1,.272.119.277.277,0,0,1-.034.289L47.6-.238A.4.4,0,0,1,47.192,0Zm.986-16.048a2.807,2.807,0,0,0,2.108-.884,3.019,3.019,0,0,0,.85-2.176,2.89,2.89,0,0,0-.867-2.125,2.85,2.85,0,0,0-2.091-.867,2.946,2.946,0,0,0-2.142.867,2.861,2.861,0,0,0-.884,2.125,2.957,2.957,0,0,0,.884,2.176A2.917,2.917,0,0,0,46.512-16.048ZM59.466.306A5.028,5.028,0,0,1,56.9-.374,5.051,5.051,0,0,1,55.046-2.21a4.874,4.874,0,0,1-.68-2.516,4.874,4.874,0,0,1,.68-2.516A5.052,5.052,0,0,1,56.9-9.078a5.028,5.028,0,0,1,2.567-.68,4.874,4.874,0,0,1,2.516.68,5.092,5.092,0,0,1,1.836,1.836,4.874,4.874,0,0,1,.68,2.516,4.874,4.874,0,0,1-.68,2.516A5.092,5.092,0,0,1,61.982-.374,4.874,4.874,0,0,1,59.466.306Zm0-2.006a2.807,2.807,0,0,0,2.108-.884,2.977,2.977,0,0,0,.85-2.142,2.946,2.946,0,0,0-.867-2.142,2.822,2.822,0,0,0-2.091-.884,2.917,2.917,0,0,0-2.142.884,2.917,2.917,0,0,0-.884,2.142,2.917,2.917,0,0,0,.884,2.142A2.917,2.917,0,0,0,59.466-1.7Z" transform="translate(627.018 2328.298)" fill="#002945"/>
    <path id="Trazado_2089" data-name="Trazado 2089" d="M15.912-10.54a12.709,12.709,0,0,1,.374,3.094,10.254,10.254,0,0,1-.408,2.958,6.268,6.268,0,0,1-2.465,3.451A7.36,7.36,0,0,1,9.078.238,7.28,7.28,0,0,1,4.828-.986,6.456,6.456,0,0,1,2.346-4.318a5.9,5.9,0,0,1-.374-1.666v-.068q0-.272.306-.272H4.964a.307.307,0,0,1,.34.306,5.929,5.929,0,0,0,.17.714A3.83,3.83,0,0,0,6.783-3.315a3.559,3.559,0,0,0,2.261.731,3.7,3.7,0,0,0,2.363-.765,3.776,3.776,0,0,0,1.309-2.125,6.474,6.474,0,0,0,.238-1.972,9.9,9.9,0,0,0-.2-2.074,3.014,3.014,0,0,0-1.207-1.989,4,4,0,0,0-2.4-.7,4.756,4.756,0,0,0-2.38.6,2.743,2.743,0,0,0-1.36,1.581.381.381,0,0,1-.374.306H2.312a.3.3,0,0,1-.34-.34v-13.4a.3.3,0,0,1,.34-.34H15.028a.3.3,0,0,1,.34.34v2.142a.3.3,0,0,1-.34.34H5.372a.12.12,0,0,0-.136.136L5.2-13.736q0,.2.17.1A5.449,5.449,0,0,1,7.259-14.7a7.1,7.1,0,0,1,2.261-.357,7.012,7.012,0,0,1,4.1,1.19A5.721,5.721,0,0,1,15.912-10.54ZM22.542,0a.293.293,0,0,1-.255-.119.287.287,0,0,1-.017-.289l7.718-20.4a.112.112,0,0,0,0-.119.114.114,0,0,0-.1-.051H21.692a.12.12,0,0,0-.136.136v1.6a.3.3,0,0,1-.34.34h-2.04a.3.3,0,0,1-.34-.34V-23.46a.3.3,0,0,1,.34-.34H33.15a.3.3,0,0,1,.34.34v2.278a1.86,1.86,0,0,1-.068.408L25.738-.272A.374.374,0,0,1,25.364,0ZM42.024-14.042a5.028,5.028,0,0,1-2.567-.68A5.052,5.052,0,0,1,37.6-16.558a4.937,4.937,0,0,1-.68-2.55,4.874,4.874,0,0,1,.68-2.516,4.923,4.923,0,0,1,1.853-1.819,5.128,5.128,0,0,1,2.567-.663,4.874,4.874,0,0,1,2.516.68,5.135,5.135,0,0,1,1.836,1.819,4.785,4.785,0,0,1,.68,2.5,4.937,4.937,0,0,1-.68,2.55,5.092,5.092,0,0,1-1.836,1.836A4.874,4.874,0,0,1,42.024-14.042ZM41.038,0a.286.286,0,0,1-.272-.119A.277.277,0,0,1,40.8-.408L53.652-23.562a.441.441,0,0,1,.408-.238h1.666a.286.286,0,0,1,.272.119.277.277,0,0,1-.034.289L43.112-.238A.4.4,0,0,1,42.7,0Zm.986-16.048a2.807,2.807,0,0,0,2.108-.884,3.019,3.019,0,0,0,.85-2.176,2.89,2.89,0,0,0-.867-2.125,2.85,2.85,0,0,0-2.091-.867,2.946,2.946,0,0,0-2.142.867A2.861,2.861,0,0,0,39-19.108a2.957,2.957,0,0,0,.884,2.176A2.917,2.917,0,0,0,42.024-16.048ZM54.978.306a5.028,5.028,0,0,1-2.567-.68A5.051,5.051,0,0,1,50.558-2.21a4.874,4.874,0,0,1-.68-2.516,4.874,4.874,0,0,1,.68-2.516,5.052,5.052,0,0,1,1.853-1.836,5.028,5.028,0,0,1,2.567-.68,4.874,4.874,0,0,1,2.516.68A5.092,5.092,0,0,1,59.33-7.242a4.874,4.874,0,0,1,.68,2.516,4.874,4.874,0,0,1-.68,2.516A5.092,5.092,0,0,1,57.494-.374,4.874,4.874,0,0,1,54.978.306Zm0-2.006a2.807,2.807,0,0,0,2.108-.884,2.977,2.977,0,0,0,.85-2.142,2.946,2.946,0,0,0-.867-2.142,2.822,2.822,0,0,0-2.091-.884,2.917,2.917,0,0,0-2.142.884,2.917,2.917,0,0,0-.884,2.142,2.917,2.917,0,0,0,.884,2.142A2.917,2.917,0,0,0,54.978-1.7Z" transform="translate(800.625 2155)" fill="#ff6429"/>
    <path id="Trazado_2082" data-name="Trazado 2082" d="M17.136-9.316a.3.3,0,0,1,.34.34v2.244a.3.3,0,0,1-.34.34H15.674a.12.12,0,0,0-.136.136V-.34A.3.3,0,0,1,15.2,0H12.614a.3.3,0,0,1-.34-.34V-6.256a.12.12,0,0,0-.136-.136H1.8a.3.3,0,0,1-.34-.34V-8.568a1.07,1.07,0,0,1,.1-.408l6.7-14.586a.373.373,0,0,1,.374-.238h2.72a.293.293,0,0,1,.255.119.287.287,0,0,1,.017.289L5.236-9.486a.112.112,0,0,0,0,.119.114.114,0,0,0,.1.051h6.8a.12.12,0,0,0,.136-.136v-5.066a.3.3,0,0,1,.34-.34H15.2a.3.3,0,0,1,.34.34v5.066a.12.12,0,0,0,.136.136ZM28.968.34a7.52,7.52,0,0,1-5.457-1.955,6.966,6.966,0,0,1-2.023-5.253V-16.932a6.91,6.91,0,0,1,2.023-5.236,7.559,7.559,0,0,1,5.457-1.938,7.681,7.681,0,0,1,5.491,1.938,6.85,6.85,0,0,1,2.057,5.236V-6.868a6.905,6.905,0,0,1-2.057,5.253A7.641,7.641,0,0,1,28.968.34Zm0-2.822A4.263,4.263,0,0,0,32.1-3.621a4.079,4.079,0,0,0,1.156-3.043v-10.4A4.079,4.079,0,0,0,32.1-20.111a4.263,4.263,0,0,0-3.128-1.139,4.171,4.171,0,0,0-3.06,1.139,4.079,4.079,0,0,0-1.156,3.043v10.4a4.079,4.079,0,0,0,1.156,3.043A4.171,4.171,0,0,0,28.968-2.482Zm17.544-11.56a5.028,5.028,0,0,1-2.567-.68,5.052,5.052,0,0,1-1.853-1.836,4.937,4.937,0,0,1-.68-2.55,4.874,4.874,0,0,1,.68-2.516,4.923,4.923,0,0,1,1.853-1.819,5.128,5.128,0,0,1,2.567-.663,4.874,4.874,0,0,1,2.516.68,5.135,5.135,0,0,1,1.836,1.819,4.785,4.785,0,0,1,.68,2.5,4.937,4.937,0,0,1-.68,2.55,5.092,5.092,0,0,1-1.836,1.836A4.874,4.874,0,0,1,46.512-14.042ZM45.526,0a.286.286,0,0,1-.272-.119.277.277,0,0,1,.034-.289L58.14-23.562a.441.441,0,0,1,.408-.238h1.666a.286.286,0,0,1,.272.119.277.277,0,0,1-.034.289L47.6-.238A.4.4,0,0,1,47.192,0Zm.986-16.048a2.807,2.807,0,0,0,2.108-.884,3.019,3.019,0,0,0,.85-2.176,2.89,2.89,0,0,0-.867-2.125,2.85,2.85,0,0,0-2.091-.867,2.946,2.946,0,0,0-2.142.867,2.861,2.861,0,0,0-.884,2.125,2.957,2.957,0,0,0,.884,2.176A2.917,2.917,0,0,0,46.512-16.048ZM59.466.306A5.028,5.028,0,0,1,56.9-.374,5.051,5.051,0,0,1,55.046-2.21a4.874,4.874,0,0,1-.68-2.516,4.874,4.874,0,0,1,.68-2.516A5.052,5.052,0,0,1,56.9-9.078a5.028,5.028,0,0,1,2.567-.68,4.874,4.874,0,0,1,2.516.68,5.092,5.092,0,0,1,1.836,1.836,4.874,4.874,0,0,1,.68,2.516,4.874,4.874,0,0,1-.68,2.516A5.092,5.092,0,0,1,61.982-.374,4.874,4.874,0,0,1,59.466.306Zm0-2.006a2.807,2.807,0,0,0,2.108-.884,2.977,2.977,0,0,0,.85-2.142,2.946,2.946,0,0,0-.867-2.142,2.822,2.822,0,0,0-2.091-.884,2.917,2.917,0,0,0-2.142.884,2.917,2.917,0,0,0-.884,2.142,2.917,2.917,0,0,0,.884,2.142A2.917,2.917,0,0,0,59.466-1.7Z" transform="translate(798.357 2328.298)" fill="#002945"/>
    <path id="Trazado_2081" data-name="Trazado 2081" d="M17.136-9.316a.3.3,0,0,1,.34.34v2.244a.3.3,0,0,1-.34.34H15.674a.12.12,0,0,0-.136.136V-.34A.3.3,0,0,1,15.2,0H12.614a.3.3,0,0,1-.34-.34V-6.256a.12.12,0,0,0-.136-.136H1.8a.3.3,0,0,1-.34-.34V-8.568a1.07,1.07,0,0,1,.1-.408l6.7-14.586a.373.373,0,0,1,.374-.238h2.72a.293.293,0,0,1,.255.119.287.287,0,0,1,.017.289L5.236-9.486a.112.112,0,0,0,0,.119.114.114,0,0,0,.1.051h6.8a.12.12,0,0,0,.136-.136v-5.066a.3.3,0,0,1,.34-.34H15.2a.3.3,0,0,1,.34.34v5.066a.12.12,0,0,0,.136.136ZM28.968.34a7.52,7.52,0,0,1-5.457-1.955,6.966,6.966,0,0,1-2.023-5.253V-16.932a6.91,6.91,0,0,1,2.023-5.236,7.559,7.559,0,0,1,5.457-1.938,7.681,7.681,0,0,1,5.491,1.938,6.85,6.85,0,0,1,2.057,5.236V-6.868a6.905,6.905,0,0,1-2.057,5.253A7.641,7.641,0,0,1,28.968.34Zm0-2.822A4.263,4.263,0,0,0,32.1-3.621a4.079,4.079,0,0,0,1.156-3.043v-10.4A4.079,4.079,0,0,0,32.1-20.111a4.263,4.263,0,0,0-3.128-1.139,4.171,4.171,0,0,0-3.06,1.139,4.079,4.079,0,0,0-1.156,3.043v10.4a4.079,4.079,0,0,0,1.156,3.043A4.171,4.171,0,0,0,28.968-2.482Zm17.544-11.56a5.028,5.028,0,0,1-2.567-.68,5.052,5.052,0,0,1-1.853-1.836,4.937,4.937,0,0,1-.68-2.55,4.874,4.874,0,0,1,.68-2.516,4.923,4.923,0,0,1,1.853-1.819,5.128,5.128,0,0,1,2.567-.663,4.874,4.874,0,0,1,2.516.68,5.135,5.135,0,0,1,1.836,1.819,4.785,4.785,0,0,1,.68,2.5,4.937,4.937,0,0,1-.68,2.55,5.092,5.092,0,0,1-1.836,1.836A4.874,4.874,0,0,1,46.512-14.042ZM45.526,0a.286.286,0,0,1-.272-.119.277.277,0,0,1,.034-.289L58.14-23.562a.441.441,0,0,1,.408-.238h1.666a.286.286,0,0,1,.272.119.277.277,0,0,1-.034.289L47.6-.238A.4.4,0,0,1,47.192,0Zm.986-16.048a2.807,2.807,0,0,0,2.108-.884,3.019,3.019,0,0,0,.85-2.176,2.89,2.89,0,0,0-.867-2.125,2.85,2.85,0,0,0-2.091-.867,2.946,2.946,0,0,0-2.142.867,2.861,2.861,0,0,0-.884,2.125,2.957,2.957,0,0,0,.884,2.176A2.917,2.917,0,0,0,46.512-16.048ZM59.466.306A5.028,5.028,0,0,1,56.9-.374,5.051,5.051,0,0,1,55.046-2.21a4.874,4.874,0,0,1-.68-2.516,4.874,4.874,0,0,1,.68-2.516A5.052,5.052,0,0,1,56.9-9.078a5.028,5.028,0,0,1,2.567-.68,4.874,4.874,0,0,1,2.516.68,5.092,5.092,0,0,1,1.836,1.836,4.874,4.874,0,0,1,.68,2.516,4.874,4.874,0,0,1-.68,2.516A5.092,5.092,0,0,1,61.982-.374,4.874,4.874,0,0,1,59.466.306Zm0-2.006a2.807,2.807,0,0,0,2.108-.884,2.977,2.977,0,0,0,.85-2.142,2.946,2.946,0,0,0-.867-2.142,2.822,2.822,0,0,0-2.091-.884,2.917,2.917,0,0,0-2.142.884,2.917,2.917,0,0,0-.884,2.142,2.917,2.917,0,0,0,.884,2.142A2.917,2.917,0,0,0,59.466-1.7Z" transform="translate(961.826 2328.298)" fill="#002945"/>
    <path id="Trazado_2090" data-name="Trazado 2090" d="M15.912-10.54a12.709,12.709,0,0,1,.374,3.094,10.254,10.254,0,0,1-.408,2.958,6.268,6.268,0,0,1-2.465,3.451A7.36,7.36,0,0,1,9.078.238,7.28,7.28,0,0,1,4.828-.986,6.456,6.456,0,0,1,2.346-4.318a5.9,5.9,0,0,1-.374-1.666v-.068q0-.272.306-.272H4.964a.307.307,0,0,1,.34.306,5.929,5.929,0,0,0,.17.714A3.83,3.83,0,0,0,6.783-3.315a3.559,3.559,0,0,0,2.261.731,3.7,3.7,0,0,0,2.363-.765,3.776,3.776,0,0,0,1.309-2.125,6.474,6.474,0,0,0,.238-1.972,9.9,9.9,0,0,0-.2-2.074,3.014,3.014,0,0,0-1.207-1.989,4,4,0,0,0-2.4-.7,4.756,4.756,0,0,0-2.38.6,2.743,2.743,0,0,0-1.36,1.581.381.381,0,0,1-.374.306H2.312a.3.3,0,0,1-.34-.34v-13.4a.3.3,0,0,1,.34-.34H15.028a.3.3,0,0,1,.34.34v2.142a.3.3,0,0,1-.34.34H5.372a.12.12,0,0,0-.136.136L5.2-13.736q0,.2.17.1A5.449,5.449,0,0,1,7.259-14.7a7.1,7.1,0,0,1,2.261-.357,7.012,7.012,0,0,1,4.1,1.19A5.721,5.721,0,0,1,15.912-10.54ZM22.542,0a.293.293,0,0,1-.255-.119.287.287,0,0,1-.017-.289l7.718-20.4a.112.112,0,0,0,0-.119.114.114,0,0,0-.1-.051H21.692a.12.12,0,0,0-.136.136v1.6a.3.3,0,0,1-.34.34h-2.04a.3.3,0,0,1-.34-.34V-23.46a.3.3,0,0,1,.34-.34H33.15a.3.3,0,0,1,.34.34v2.278a1.86,1.86,0,0,1-.068.408L25.738-.272A.374.374,0,0,1,25.364,0ZM42.024-14.042a5.028,5.028,0,0,1-2.567-.68A5.052,5.052,0,0,1,37.6-16.558a4.937,4.937,0,0,1-.68-2.55,4.874,4.874,0,0,1,.68-2.516,4.923,4.923,0,0,1,1.853-1.819,5.128,5.128,0,0,1,2.567-.663,4.874,4.874,0,0,1,2.516.68,5.135,5.135,0,0,1,1.836,1.819,4.785,4.785,0,0,1,.68,2.5,4.937,4.937,0,0,1-.68,2.55,5.092,5.092,0,0,1-1.836,1.836A4.874,4.874,0,0,1,42.024-14.042ZM41.038,0a.286.286,0,0,1-.272-.119A.277.277,0,0,1,40.8-.408L53.652-23.562a.441.441,0,0,1,.408-.238h1.666a.286.286,0,0,1,.272.119.277.277,0,0,1-.034.289L43.112-.238A.4.4,0,0,1,42.7,0Zm.986-16.048a2.807,2.807,0,0,0,2.108-.884,3.019,3.019,0,0,0,.85-2.176,2.89,2.89,0,0,0-.867-2.125,2.85,2.85,0,0,0-2.091-.867,2.946,2.946,0,0,0-2.142.867A2.861,2.861,0,0,0,39-19.108a2.957,2.957,0,0,0,.884,2.176A2.917,2.917,0,0,0,42.024-16.048ZM54.978.306a5.028,5.028,0,0,1-2.567-.68A5.051,5.051,0,0,1,50.558-2.21a4.874,4.874,0,0,1-.68-2.516,4.874,4.874,0,0,1,.68-2.516,5.052,5.052,0,0,1,1.853-1.836,5.028,5.028,0,0,1,2.567-.68,4.874,4.874,0,0,1,2.516.68A5.092,5.092,0,0,1,59.33-7.242a4.874,4.874,0,0,1,.68,2.516,4.874,4.874,0,0,1-.68,2.516A5.092,5.092,0,0,1,57.494-.374,4.874,4.874,0,0,1,54.978.306Zm0-2.006a2.807,2.807,0,0,0,2.108-.884,2.977,2.977,0,0,0,.85-2.142,2.946,2.946,0,0,0-.867-2.142,2.822,2.822,0,0,0-2.091-.884,2.917,2.917,0,0,0-2.142.884,2.917,2.917,0,0,0-.884,2.142,2.917,2.917,0,0,0,.884,2.142A2.917,2.917,0,0,0,54.978-1.7Z" transform="translate(966.569 2155)" fill="#ff6429"/>
  </g>
</svg>
