<svg id="Capa_1" data-name="Capa 1" xmlns="http://www.w3.org/2000/svg" viewBox="0 0 682.01 51.83"><defs><style>.cls-1,.cls-2{fill:#ff521d;}.cls-1{isolation:isolate;}.cls-1,.cls-3{opacity:0.16;}</style></defs><g id="Grupo_1020" data-name="Grupo 1020"><path id="Trazado_1047" data-name="Trazado 1047" class="cls-1" d="M94.58,19.26,69.68,62.39h49.8Zm0,6.73,19.08,33h-8.33L94.58,40.41,83.83,59H75.51Zm6.87,33H87.72l6.86-11.9Z" transform="translate(-8.71 -10.58)"/><path id="Trazado_1048" data-name="Trazado 1048" class="cls-1" d="M348.49,10.58,323.66,34.16,298.82,10.58V62.39L323.66,38.8l24.83,23.59Zm-46.31,44V18.42l19,18.06h0Zm42.95,0-19-18.07h0l19-18.07Z" transform="translate(-8.71 -10.58)"/><path id="Trazado_1049" data-name="Trazado 1049" class="cls-2" d="M46,62.39,28.24,31.64a7.45,7.45,0,1,0-1.78,0L8.71,62.39ZM14.54,59,27.35,36.84,40.16,59Zm8.72-34.75a4.09,4.09,0,1,1,4.09,4.09h0a4.09,4.09,0,0,1-4.09-4.09Z" transform="translate(-8.71 -10.58)"/><g id="Grupo_1016" data-name="Grupo 1016" class="cls-3"><path id="Trazado_1050" data-name="Trazado 1050" class="cls-2" d="M478.45,19.26l-24.9,43.13h49.8Zm0,6.73,19.08,33H459.38Z" transform="translate(-8.71 -10.58)"/><path id="Trazado_1051" data-name="Trazado 1051" class="cls-2" d="M478.46,36.48A3.53,3.53,0,1,0,482,40a3.53,3.53,0,0,0-3.52-3.52Z" transform="translate(-8.71 -10.58)"/><path id="Trazado_1052" data-name="Trazado 1052" class="cls-2" d="M485.5,48.4A3.53,3.53,0,1,0,489,51.92h0a3.53,3.53,0,0,0-3.53-3.52Z" transform="translate(-8.71 -10.58)"/><path id="Trazado_1053" data-name="Trazado 1053" class="cls-2" d="M471.4,48.4a3.53,3.53,0,1,0,3.53,3.52h0a3.53,3.53,0,0,0-3.53-3.52Z" transform="translate(-8.71 -10.58)"/></g><path id="Trazado_1054" data-name="Trazado 1054" class="cls-1" d="M197.24,18H143.18v3.36H169l-23.69,41h49.8l-23.69-41h25.82Zm-46.1,41,19.07-33,19.07,33Z" transform="translate(-8.71 -10.58)"/><path id="Trazado_1055" data-name="Trazado 1055" class="cls-1" d="M428.57,19.21h-49.8L391.23,40.8,378.77,62.39h49.8L416.11,40.8Zm-14.4,18.23-8.58-14.86h17.16Zm-1.94,3.36-8.55,14.81L395.12,40.8,403.68,26ZM384.6,22.57h17.16l-8.58,14.87Zm8.58,21.59L401.76,59H384.6ZM422.75,59H405.59l8.58-14.87Z" transform="translate(-8.71 -10.58)"/><g id="Grupo_1017" data-name="Grupo 1017" class="cls-3"><path id="Trazado_1056" data-name="Trazado 1056" class="cls-2" d="M547.69,18.27a22.06,22.06,0,1,0,22,22.06,22.06,22.06,0,0,0-22-22.06" transform="translate(-8.71 -10.58)"/></g><path id="Trazado_1057" data-name="Trazado 1057" class="cls-1" d="M611.05,29l-.83-.12,8.16-14.17-19.64,0,8.18,14.15-.84.12a16.82,16.82,0,1,0,5,0Zm-6.66-11h8.35l-4.17,7.23Zm4.17,41.18a13.55,13.55,0,0,1-.18-27.1h.38a13.55,13.55,0,0,1-.2,27.1Z" transform="translate(-8.71 -10.58)"/><g id="Grupo_1018" data-name="Grupo 1018" class="cls-3"><path id="Trazado_1058" data-name="Trazado 1058" class="cls-2" d="M669.15,19.25a21.57,21.57,0,1,0,21.57,21.57A21.58,21.58,0,0,0,669.15,19.25Zm0,39.88a18.31,18.31,0,1,1,18.3-18.31h0a18.32,18.32,0,0,1-18.3,18.31Z" transform="translate(-8.71 -10.58)"/><path id="Trazado_1059" data-name="Trazado 1059" class="cls-2" d="M669.15,30.19a3.7,3.7,0,1,0,3.7,3.7h0A3.7,3.7,0,0,0,669.15,30.19Z" transform="translate(-8.71 -10.58)"/><path id="Trazado_1060" data-name="Trazado 1060" class="cls-2" d="M676.54,42.7a3.7,3.7,0,1,0,3.7,3.7h0A3.7,3.7,0,0,0,676.54,42.7Z" transform="translate(-8.71 -10.58)"/><path id="Trazado_1061" data-name="Trazado 1061" class="cls-2" d="M661.75,42.7a3.7,3.7,0,1,0,3.7,3.7h0A3.7,3.7,0,0,0,661.75,42.7Z" transform="translate(-8.71 -10.58)"/></g><g id="Grupo_1019" data-name="Grupo 1019" class="cls-3"><path id="Trazado_1062" data-name="Trazado 1062" class="cls-2" d="M245.83,19.26l-24.9,43.13h49.8Zm0,6.73,19.08,33H226.76Z" transform="translate(-8.71 -10.58)"/><path id="Trazado_1063" data-name="Trazado 1063" class="cls-2" d="M245.83,44.09a3.53,3.53,0,1,0,3.53,3.52,3.53,3.53,0,0,0-3.53-3.52Z" transform="translate(-8.71 -10.58)"/></g></g></svg>