<?xml version="1.0" encoding="utf-8"?>
<!-- Generator: Adobe Illustrator 25.4.1, SVG Export Plug-In . SVG Version: 6.00 Build 0)  -->
<svg version="1.1" id="Capa_1" xmlns="http://www.w3.org/2000/svg" xmlns:xlink="http://www.w3.org/1999/xlink" x="0px" y="0px"
	 viewBox="0 0 157 54" style="enable-background:new 0 0 157 54;" xml:space="preserve">
<style type="text/css">
	.st0{clip-path:url(#SVGID_00000061462895420825848770000017445182481365877376_);}
	.st1{fill:#84754F;}
	.st2{fill:#7B6E5F;}
</style>
<g>
	<defs>
		<rect id="SVGID_1_" x="5.5" y="1.7" width="146" height="50.7"/>
	</defs>
	<clipPath id="SVGID_00000029737075826505518550000016420622517169769402_">
		<use xlink:href="#SVGID_1_"  style="overflow:visible;"/>
	</clipPath>
	<g id="Logo_Sura" style="clip-path:url(#SVGID_00000029737075826505518550000016420622517169769402_);">
		<g id="Grupo_23" transform="translate(109.91 42.819)">
			<path id="Trazado_19" class="st1" d="M22.2,1.7c0,0,0.1,0.1,0.1,0.2c-0.7,0.9-1.6,1.7-2.6,2.3c-1.2,0.9-2.5,1.6-3.9,2.3
				c-1.3,0.7-2.7,1.2-4.1,1.7c-1.3,0.4-2.6,0.5-4,0.4C6.9,8.5,6.2,8.2,5.5,7.7c0,0,0-0.1,0-0.1c0-0.1,0.1-0.1,0.1-0.1
				C8.9,7,12,6.1,15.1,5.1C17.6,4.2,20,3.1,22.2,1.7"/>
		</g>
		<g id="Grupo_24" transform="translate(104.943 40.993)">
			<path id="Trazado_20" class="st1" d="M26.9,1.8c-2.8,1.6-5.9,2.8-9,3.7c-4,1.1-7.1,1.7-9.3,1.4C7.5,6.8,6.4,6.3,5.6,5.5
				c0,0-0.1-0.1-0.1-0.1c0-0.1,0.1-0.1,0.1-0.1l0.7-0.1C7.9,5,10.8,5,14.1,4.5c3.8-0.6,9.9-1.7,12.8-2.8C26.9,1.7,26.9,1.7,26.9,1.8
				"/>
		</g>
		<g id="Grupo_25" transform="translate(118.728 46.048)">
			<path id="Trazado_21" class="st1" d="M12.8,1.7c0.1,0,0.1,0,0.1,0.1c-0.5,1.6-1.6,2.9-3,3.7C7.2,6.8,5.8,6.1,5.6,6
				C5.5,6,5.5,5.9,5.5,5.8c0-0.1,0.1-0.1,0.1-0.1C8.2,4.9,10.7,3.5,12.8,1.7C12.7,1.7,12.8,1.7,12.8,1.7"/>
		</g>
		<g id="Grupo_26" transform="translate(110.829 7.966)">
			<path id="Trazado_22" class="st1" d="M38.4,14.3C38.4,14.3,38.5,14.3,38.4,14.3c0.1,0.2,0,0.2-0.1,0.2c-0.8-0.2-2.5-0.7-4.7-1.3
				C28.7,11.8,10,6.9,9.7,6.8l-0.1,0c-1-0.3-2-0.9-2.7-1.7C6.7,4.9,6.5,4.7,6.3,4.4C5.9,3.6,5.6,2.7,5.5,1.8c0,0,0-0.1,0-0.1
				c0,0,0.1,0,0.2,0l3.1,1.2C16,5.6,35.3,13,38.4,14.3"/>
		</g>
		<g id="Grupo_27" transform="translate(111.91 0)">
			<path id="Trazado_23" class="st1" d="M34.2,19.3c0,0.1,0,0.2-0.1,0.1c-1.1-0.5-3.6-1.7-6.1-3c-2.1-1-16.5-7.8-17.5-8.3L8.7,7.3
				C8.5,7.2,8.3,7.1,8,6.9C7.5,6.6,7,6.2,6.6,5.8C6.3,5.3,6.1,4.9,5.9,4.4C5.6,3.6,5.5,2.7,5.5,1.8c0,0,0-0.1,0.1-0.1
				c0,0,0.1,0,0.2,0l1.8,1.1l1,0.6l5.3,3.2C21.2,11.1,31.5,17.6,34.2,19.3"/>
		</g>
		<g id="Grupo_28" transform="translate(113.104 16.75)">
			<path id="Trazado_24" class="st1" d="M38.3,7.5C38.4,7.5,38.4,7.5,38.3,7.5c0.1,0.2,0,0.2,0,0.2C35.4,7.5,9.9,5.8,9.9,5.8
				c-0.2,0-0.4-0.1-0.7-0.1c-1.8-0.6-3.2-2-3.7-3.8c0-0.1,0-0.1,0-0.2c0,0,0.1-0.1,0.2-0.1C5.7,1.7,35.8,7,38.3,7.5"/>
		</g>
		<g id="Grupo_29" transform="translate(119.841 24.277)">
			<path id="Trazado_25" class="st1" d="M30.3,1.7c0.1,0,0.1,0.1,0.1,0.1c0,0,0,0.1-0.1,0.1C29.3,2,9.9,4.8,9.7,4.8
				c-0.1,0-0.2,0-0.3,0c-0.1,0-0.2,0-0.3,0c-1-0.1-2-0.6-2.6-1.4C6,3,5.7,2.5,5.5,2c0,0,0-0.1,0-0.1c0,0,0.1-0.1,0.1-0.1
				c0,0,6.5,0,10.6-0.1c3.1,0,6.3,0,9,0C27.6,1.7,29.4,1.7,30.3,1.7"/>
		</g>
		<g id="Grupo_30" transform="translate(125.679 26.275)">
			<path id="Trazado_26" class="st1" d="M23,1.7c0,0,0.1,0,0.1,0c0,0,0.1,0.1,0,0.1C22.5,2.3,8.5,8.1,8.4,8.1
				C7.6,8.6,6.6,8.3,6.2,7.5c0,0,0,0,0,0C5.9,7,5.7,6.7,5.6,6.5c0-0.1-0.2-0.2,0.2-0.3c0,0,3.9-1.1,7.4-2C17.2,3.2,21.8,2,23,1.7"/>
		</g>
		<g id="Grupo_31" transform="translate(128.3 35.949)">
			<path id="Trazado_27" class="st1" d="M14.3,1.7c0.1,0,0.1,0.1,0.1,0.2C13,3.4,8,8.9,5.8,11.3c-0.2,0.2-0.4,0.1-0.3-0.1
				C5.8,10.6,6,9.9,6.1,9.3c0-0.4,0.2-0.8,0.5-1.1C9.5,5.7,12.3,3.2,14.3,1.7L14.3,1.7z"/>
		</g>
		<g id="Grupo_32" transform="translate(128.801 28.99)">
			<path id="Trazado_28" class="st1" d="M18.3,1.7c0.1,0,0.1,0.1,0.1,0.2C17.1,3,10.8,8.2,7.5,11l-0.1,0.1c-1,0.7-1.6,0.9-1.7-0.7
				c0-0.4-0.1-0.7-0.1-0.7c-0.1-0.3,0-0.3,0.2-0.4c1.1-0.7,3.2-1.9,4.9-2.9C13.5,4.6,17,2.5,18.3,1.7"/>
		</g>
		<g id="Grupo_33" transform="translate(0 11.492)">
			<path id="Trazado_29" class="st2" d="M20.3,14.6l-6.1-1.7c-1.7-0.5-3.2-1.2-3.2-3.3c0-2.2,1.3-3.2,4-3.2h5.5
				c2.4,0,5.3-0.8,5.3-4.7l-10.3,0c-6.3,0-10,3.2-10,7.8c0,4.3,2.7,6.7,7.5,7.9l5.4,1.4c2.2,0.6,3,2,3,3.4c0,2.2-1.4,3.5-4.7,3.5
				L6.4,25.8v4.6h10.4c6.3,0,10-3.4,10-7.9C26.8,18.1,25.1,15.8,20.3,14.6 M70.7,1.7c-6.2,0-10.5,3.6-10.5,11v17.8h5V12.5
				c0-3.8,2-6.1,5.9-6.1h1.5c4.4,0,5.1-2.3,5.1-4.7L70.7,1.7z M48.4,1.7l0,20c0,2.9-2.4,4.4-5.6,4.4c-3.3,0-5.5-1.5-5.5-4.4l0-14.9
				c0-4.3-2.7-5-5-5v21.2c0,5.3,4.8,8,10.4,8c5.4,0,10.8-2.6,10.8-8l0-15.5C53.4,3.2,51.9,1.7,48.4,1.7 M92.2,1.7L92.2,1.7h-1.3
				c-6.7,0-13,4.9-13.2,14.5C77.4,24.9,82,31,89.7,31c6.3,0,8.5-4.4,8.5-4.4c0.4,2.9,2,3.8,5.1,3.8V5.8l0,0V1.7L92.2,1.7z
				 M97.9,18.6c0,4-2.3,7.8-7.2,7.8c-4.4,0-7.6-3-7.4-10.2c0.2-6.9,3.5-9.9,7.9-9.9c0.3,0,0.7,0,1,0v0h5.8V18.6z"/>
		</g>
	</g>
</g>
</svg>
