<?xml version="1.0" encoding="utf-8"?>
<!-- Generator: Adobe Illustrator 25.4.1, SVG Export Plug-In . SVG Version: 6.00 Build 0)  -->
<svg version="1.1" id="Capa_1" xmlns="http://www.w3.org/2000/svg" xmlns:xlink="http://www.w3.org/1999/xlink" x="0px" y="0px"
	 viewBox="0 0 682 51.9" style="enable-background:new 0 0 682 51.9;" xml:space="preserve">
<style type="text/css">
	.st0{opacity:0.16;fill:#FF521D;enable-background:new    ;}
	.st1{opacity:0.16;}
	.st2{fill:#FF521D;}
</style>
<path id="Trazado_1047" class="st0" d="M85.9,8.7L61,51.8h49.8L85.9,8.7z M85.9,15.4l19.1,33h-8.3L85.9,29.8L75.1,48.4h-8.3
	L85.9,15.4z M92.7,48.4H79l6.9-11.9L92.7,48.4z"/>
<path id="Trazado_1048" class="st0" d="M339.8,0L315,23.6L290.1,0v51.8L315,28.2l24.8,23.6L339.8,0z M293.5,44V7.8l19,18.1l0,0
	L293.5,44z M336.4,44l-19-18.1l0,0l19-18.1V44z"/>
<path id="Trazado_1049" class="st0" d="M37.3,51.8L19.5,21.1c4.1-0.5,7-4.2,6.5-8.3s-4.2-7-8.3-6.5s-7,4.2-6.5,8.3
	c0.4,3.4,3.1,6.1,6.5,6.5L0,51.8H37.3z M5.8,48.4l12.8-22.2l12.8,22.2H5.8z M14.6,13.7c0-2.3,1.8-4.1,4.1-4.1s4.1,1.8,4.1,4.1
	s-1.8,4.1-4.1,4.1c0,0,0,0,0,0l0,0C16.4,17.8,14.6,15.9,14.6,13.7z"/>
<g id="Grupo_1016" class="st1">
	<path id="Trazado_1050" class="st2" d="M469.7,8.7l-24.9,43.1h49.8L469.7,8.7z M469.7,15.4l19.1,33h-38.1L469.7,15.4z"/>
	<path id="Trazado_1051" class="st2" d="M469.8,25.9c-1.9,0-3.5,1.6-3.5,3.5c0,1.9,1.6,3.5,3.5,3.5c1.9,0,3.5-1.6,3.5-3.5
		C473.3,27.5,471.7,25.9,469.8,25.9L469.8,25.9z"/>
	<path id="Trazado_1052" class="st2" d="M476.8,37.8c-1.9,0-3.5,1.6-3.6,3.5c0,1.9,1.6,3.5,3.5,3.6c1.9,0,3.5-1.6,3.6-3.5l0,0
		C480.3,39.4,478.7,37.9,476.8,37.8L476.8,37.8z"/>
	<path id="Trazado_1053" class="st2" d="M462.7,37.8c-1.9,0-3.5,1.6-3.5,3.5s1.6,3.5,3.5,3.5c1.9,0,3.5-1.6,3.5-3.5c0,0,0,0,0,0l0,0
		C466.2,39.4,464.6,37.8,462.7,37.8z"/>
</g>
<path id="Trazado_1054" class="st0" d="M188.5,7.4h-54.1v3.4h25.8l-23.7,41h49.8l-23.7-41h25.8V7.4z M142.4,48.4l19.1-33l19.1,33
	H142.4z"/>
<path id="Trazado_1055" class="st0" d="M419.9,8.6h-49.8l12.5,21.6l-12.5,21.6h49.8l-12.5-21.6L419.9,8.6z M405.5,26.9L396.9,12H414
	L405.5,26.9z M403.5,30.2L395,45l-8.6-14.8l8.6-14.8L403.5,30.2z M375.9,12h17.2l-8.6,14.9L375.9,12z M384.5,33.6l8.6,14.8h-17.2
	L384.5,33.6z M414,48.4h-17.1l8.6-14.9L414,48.4z"/>
<g id="Grupo_1017" class="st1">
	<path id="Trazado_1056" class="st2" d="M539,7.7c-12.2,0-22.1,9.8-22.1,22c0,12.2,9.8,22.1,22,22.1c12.2,0,22.1-9.8,22.1-22v-0.1
		C561,17.6,551.2,7.7,539,7.7"/>
</g>
<path id="Trazado_1057" class="st0" d="M602.3,18.4l-0.8-0.1l8.2-14.2H590l8.2,14.1l-0.8,0.1c-9.2,1.4-15.5,9.9-14.1,19.1
	c1.4,9.2,9.9,15.5,19.1,14.1c9.2-1.4,15.5-9.9,14.1-19.1C615.4,25.2,609.6,19.5,602.3,18.4L602.3,18.4z M595.7,7.4h8.3l-4.2,7.2
	L595.7,7.4z M599.9,48.6c-7.5,0-13.6-6-13.6-13.5c0-7.5,6-13.6,13.5-13.6l0,0h0.4c7.5,0.1,13.5,6.2,13.5,13.7S607.3,48.7,599.9,48.6
	z"/>
<g id="Grupo_1018">
	<path id="Trazado_1058" class="st2" d="M660.4,8.7c-11.9,0-21.6,9.6-21.6,21.6c0,11.9,9.6,21.6,21.6,21.6
		c11.9,0,21.6-9.6,21.6-21.6l0,0C682,18.3,672.4,8.7,660.4,8.7L660.4,8.7z M660.4,48.6c-10.1,0-18.3-8.2-18.3-18.3
		s8.2-18.3,18.3-18.3s18.3,8.2,18.3,18.3c0,0,0,0,0,0l0,0C678.7,40.3,670.6,48.5,660.4,48.6z"/>
	<path id="Trazado_1059" class="st2" d="M660.4,19.6c-2,0-3.7,1.7-3.7,3.7c0,2,1.7,3.7,3.7,3.7c2,0,3.7-1.7,3.7-3.7l0,0
		C664.1,21.3,662.5,19.6,660.4,19.6L660.4,19.6z"/>
	<path id="Trazado_1060" class="st2" d="M667.8,32.1c-2,0-3.7,1.7-3.7,3.7c0,2,1.7,3.7,3.7,3.7c2,0,3.7-1.7,3.7-3.7l0,0
		C671.5,33.8,669.9,32.1,667.8,32.1L667.8,32.1z"/>
	<path id="Trazado_1061" class="st2" d="M653,32.1c-2,0-3.7,1.7-3.7,3.7c0,2,1.7,3.7,3.7,3.7c2,0,3.7-1.7,3.7-3.7l0,0
		C656.7,33.8,655,32.1,653,32.1L653,32.1z"/>
</g>
<g id="Grupo_1019" class="st1">
	<path id="Trazado_1062" class="st2" d="M237.1,8.7l-24.9,43.1H262L237.1,8.7z M237.1,15.4l19.1,33h-38.1L237.1,15.4z"/>
	<path id="Trazado_1063" class="st2" d="M237.1,33.5c-1.9,0-3.5,1.6-3.5,3.5c0,1.9,1.6,3.5,3.5,3.5c1.9,0,3.5-1.6,3.5-3.5
		c0,0,0,0,0,0l0,0l0,0C240.6,35.1,239.1,33.5,237.1,33.5z"/>
</g>
</svg>
