<svg xmlns="http://www.w3.org/2000/svg" width="355.281" height="165.911" viewBox="0 0 355.281 165.911">
  <g id="Grupo_2040" data-name="Grupo 2040" transform="translate(-1052.719 -5503.339)">
    <path id="Trazado_1833" data-name="Trazado 1833" d="M0,0H128.705" transform="translate(1054.609 5586.294)" fill="none" stroke="#fff" stroke-width="0.25"/>
    <path id="Trazado_1834" data-name="Trazado 1834" d="M0,0H100.94" transform="translate(1183.316 5586.294)" fill="none" stroke="#fff" stroke-width="0.25"/>
    <path id="Trazado_1835" data-name="Trazado 1835" d="M0,0H121.853" transform="translate(1284.256 5586.294)" fill="none" stroke="#fff" stroke-width="0.25"/>
    <path id="Trazado_1836" data-name="Trazado 1836" d="M0,0H128.705" transform="translate(1054.609 5627.647)" fill="none" stroke="#fff" stroke-width="0.25"/>
    <path id="Trazado_1837" data-name="Trazado 1837" d="M0,0H100.94" transform="translate(1183.316 5627.647)" fill="none" stroke="#fff" stroke-width="0.25"/>
    <path id="Trazado_1838" data-name="Trazado 1838" d="M0,0H121.853" transform="translate(1284.256 5627.647)" fill="none" stroke="#fff" stroke-width="0.25"/>
    <path id="Trazado_1839" data-name="Trazado 1839" d="M0,0H130.6" transform="translate(1052.719 5503.589)" fill="none" stroke="#ffc000" stroke-width="0.5"/>
    <path id="Trazado_1840" data-name="Trazado 1840" d="M0,26.67V-13.169" transform="translate(1053.475 5517.515)" fill="none" stroke="#ffc000" stroke-width="0.5"/>
    <path id="Trazado_1841" data-name="Trazado 1841" d="M0,0H100.94" transform="translate(1183.316 5503.589)" fill="none" stroke="#ffc000" stroke-width="0.5"/>
    <path id="Trazado_1842" data-name="Trazado 1842" d="M0,0H123.744" transform="translate(1284.256 5503.589)" fill="none" stroke="#ffc000" stroke-width="0.5"/>
    <path id="Trazado_1843" data-name="Trazado 1843" d="M0,26.67V-13.169" transform="translate(1407.242 5517.515)" fill="none" stroke="#ffc000" stroke-width="0.5"/>
    <path id="Trazado_1844" data-name="Trazado 1844" d="M0,27.177v-40.6" transform="translate(1053.475 5559.118)" fill="none" stroke="#ffc000" stroke-width="0.5"/>
    <path id="Trazado_1845" data-name="Trazado 1845" d="M0,27.177v-40.6" transform="translate(1407.242 5559.118)" fill="none" stroke="#ffc000" stroke-width="0.5"/>
    <path id="Trazado_1846" data-name="Trazado 1846" d="M0,27.683V-13.669" transform="translate(1053.475 5599.964)" fill="none" stroke="#ffc000" stroke-width="0.5"/>
    <path id="Trazado_1847" data-name="Trazado 1847" d="M0,27.683V-13.669" transform="translate(1407.242 5599.964)" fill="none" stroke="#ffc000" stroke-width="0.5"/>
    <path id="Trazado_1848" data-name="Trazado 1848" d="M0,27.177v-40.6" transform="translate(1053.475 5641.067)" fill="none" stroke="#ffc000" stroke-width="0.5"/>
    <path id="Trazado_1849" data-name="Trazado 1849" d="M0,27.177v-40.6" transform="translate(1407.242 5641.067)" fill="none" stroke="#ffc000" stroke-width="0.5"/>
    <path id="Trazado_1850" data-name="Trazado 1850" d="M0,0H130.6" transform="translate(1052.719 5544.941)" fill="none" stroke="#ffc000" stroke-width="0.5"/>
    <path id="Trazado_1851" data-name="Trazado 1851" d="M0,0H100.94" transform="translate(1183.316 5544.941)" fill="none" stroke="#ffc000" stroke-width="0.5"/>
    <path id="Trazado_1852" data-name="Trazado 1852" d="M0,0H123.744" transform="translate(1284.256 5544.941)" fill="none" stroke="#ffc000" stroke-width="0.5"/>
    <path id="Trazado_1853" data-name="Trazado 1853" d="M0,0H130.6" transform="translate(1052.719 5669)" fill="none" stroke="#ffc000" stroke-width="0.5"/>
    <path id="Trazado_1854" data-name="Trazado 1854" d="M0,0H100.94" transform="translate(1183.316 5669)" fill="none" stroke="#ffc000" stroke-width="0.5"/>
    <path id="Trazado_1855" data-name="Trazado 1855" d="M0,0H123.744" transform="translate(1284.256 5669)" fill="none" stroke="#ffc000" stroke-width="0.5"/>
    <path id="Trazado_1856" data-name="Trazado 1856" d="M0,0H125.32" transform="translate(1056.867 5586.294)" fill="none" stroke="#ffc000" stroke-linecap="round" stroke-linejoin="round" stroke-width="0.25" stroke-dasharray="0 0.746"/>
    <path id="Trazado_1857" data-name="Trazado 1857" d="M0,0H0M128.705,0h0" transform="translate(1054.609 5586.294)" fill="none" stroke="#ffc000" stroke-linecap="round" stroke-linejoin="round" stroke-width="0.25"/>
    <path id="Trazado_1858" data-name="Trazado 1858" d="M0,0H97.5" transform="translate(1185.609 5586.294)" fill="none" stroke="#ffc000" stroke-linecap="round" stroke-linejoin="round" stroke-width="0.25" stroke-dasharray="0 0.758"/>
    <path id="Trazado_1859" data-name="Trazado 1859" d="M0,0H0M100.94,0h0" transform="translate(1183.316 5586.294)" fill="none" stroke="#ffc000" stroke-linecap="round" stroke-linejoin="round" stroke-width="0.25"/>
    <path id="Trazado_1860" data-name="Trazado 1860" d="M0,0H118.468" transform="translate(1286.512 5586.294)" fill="none" stroke="#ffc000" stroke-linecap="round" stroke-linejoin="round" stroke-width="0.25" stroke-dasharray="0 0.746"/>
    <path id="Trazado_1861" data-name="Trazado 1861" d="M0,0H0M121.853,0h0" transform="translate(1284.256 5586.294)" fill="none" stroke="#ffc000" stroke-linecap="round" stroke-linejoin="round" stroke-width="0.25"/>
    <path id="Trazado_1862" data-name="Trazado 1862" d="M0,0H125.32" transform="translate(1056.867 5627.647)" fill="none" stroke="#ffc000" stroke-linecap="round" stroke-linejoin="round" stroke-width="0.25" stroke-dasharray="0 0.746"/>
    <path id="Trazado_1863" data-name="Trazado 1863" d="M0,0H0M128.705,0h0" transform="translate(1054.609 5627.647)" fill="none" stroke="#ffc000" stroke-linecap="round" stroke-linejoin="round" stroke-width="0.25"/>
    <path id="Trazado_1864" data-name="Trazado 1864" d="M0,0H97.5" transform="translate(1185.609 5627.647)" fill="none" stroke="#ffc000" stroke-linecap="round" stroke-linejoin="round" stroke-width="0.25" stroke-dasharray="0 0.758"/>
    <path id="Trazado_1865" data-name="Trazado 1865" d="M0,0H0M100.94,0h0" transform="translate(1183.316 5627.647)" fill="none" stroke="#ffc000" stroke-linecap="round" stroke-linejoin="round" stroke-width="0.25"/>
    <path id="Trazado_1866" data-name="Trazado 1866" d="M0,0H118.468" transform="translate(1286.512 5627.647)" fill="none" stroke="#ffc000" stroke-linecap="round" stroke-linejoin="round" stroke-width="0.25" stroke-dasharray="0 0.746"/>
    <path id="Trazado_1867" data-name="Trazado 1867" d="M0,0H0M121.853,0h0" transform="translate(1284.256 5627.647)" fill="none" stroke="#ffc000" stroke-linecap="round" stroke-linejoin="round" stroke-width="0.25"/>
    <path id="Trazado_2069" data-name="Trazado 2069" d="M11.638,0a.289.289,0,0,1-.3-.23l-.69-2.254q-.046-.092-.115-.092H4.876q-.069,0-.115.092L4.094-.23A.289.289,0,0,1,3.8,0H.874A.258.258,0,0,1,.667-.08.252.252,0,0,1,.644-.322L5.612-15.87a.289.289,0,0,1,.3-.23H9.522a.289.289,0,0,1,.3.23L14.789-.322a.256.256,0,0,1,.023.115q0,.207-.253.207ZM5.589-5.221q-.023.138.092.138H9.729q.138,0,.092-.138l-2.07-6.831q-.023-.092-.069-.08t-.069.08ZM16.9,0a.266.266,0,0,1-.2-.08.266.266,0,0,1-.08-.2V-15.824a.266.266,0,0,1,.08-.2.266.266,0,0,1,.2-.08H19.6a.266.266,0,0,1,.2.08.266.266,0,0,1,.08.2V-.276a.266.266,0,0,1-.08.2.266.266,0,0,1-.2.08ZM27.439.184a5.505,5.505,0,0,1-3.185-.92,5.021,5.021,0,0,1-1.92-2.53,8.449,8.449,0,0,1-.391-2.714,8.157,8.157,0,0,1,.391-2.668,4.773,4.773,0,0,1,1.909-2.461,5.664,5.664,0,0,1,3.2-.9,5.724,5.724,0,0,1,3.232.92,4.41,4.41,0,0,1,1.851,2.323,2.92,2.92,0,0,1,.184.828v.046a.244.244,0,0,1-.23.253l-2.645.391h-.046a.276.276,0,0,1-.276-.23l-.069-.368a1.75,1.75,0,0,0-.713-.989,2.209,2.209,0,0,0-1.311-.391,2.055,2.055,0,0,0-1.242.368,1.949,1.949,0,0,0-.713,1.012,5.648,5.648,0,0,0-.253,1.886,6.174,6.174,0,0,0,.23,1.886,2.047,2.047,0,0,0,.725,1.081,2.019,2.019,0,0,0,1.253.391,2.126,2.126,0,0,0,1.253-.38,1.94,1.94,0,0,0,.747-1.046.32.32,0,0,0,.023-.138.094.094,0,0,0,.023-.069q.023-.276.322-.23l2.645.414a.244.244,0,0,1,.23.253,3.237,3.237,0,0,1-.138.69A4.288,4.288,0,0,1,30.647-.69,5.9,5.9,0,0,1,27.439.184Zm11.868-12.19a6.547,6.547,0,0,1,2.668.517A4.4,4.4,0,0,1,43.8-10.074a3.311,3.311,0,0,1,.656,2v7.8a.266.266,0,0,1-.08.2.266.266,0,0,1-.2.08H41.492a.266.266,0,0,1-.2-.08.266.266,0,0,1-.081-.2v-.759a.093.093,0,0,0-.046-.092q-.046-.023-.092.046a3.658,3.658,0,0,1-3.1,1.265,4.532,4.532,0,0,1-2.9-.874,3.088,3.088,0,0,1-1.1-2.576,3.3,3.3,0,0,1,1.242-2.749,5.614,5.614,0,0,1,3.542-.977H41.1a.1.1,0,0,0,.115-.115v-.506a1.533,1.533,0,0,0-.46-1.184,1.97,1.97,0,0,0-1.38-.425,2.486,2.486,0,0,0-1.185.253,1.181,1.181,0,0,0-.609.713.264.264,0,0,1-.3.23L34.5-8.4q-.276-.046-.253-.207a3.062,3.062,0,0,1,.771-1.748,4.49,4.49,0,0,1,1.794-1.219A6.792,6.792,0,0,1,39.307-12.006Zm-.46,9.775a2.678,2.678,0,0,0,1.679-.529,1.637,1.637,0,0,0,.69-1.357v-.828A.1.1,0,0,0,41.1-5.06H39.445a2.9,2.9,0,0,0-1.621.391,1.252,1.252,0,0,0-.587,1.1,1.193,1.193,0,0,0,.437.978A1.8,1.8,0,0,0,38.847-2.231ZM52.9-12.006a4.011,4.011,0,0,1,2.967,1.127A4.133,4.133,0,0,1,56.994-7.82V-.276a.266.266,0,0,1-.08.2.266.266,0,0,1-.2.08H54.027a.266.266,0,0,1-.2-.08.266.266,0,0,1-.081-.2V-7.153a2.15,2.15,0,0,0-.517-1.495,1.752,1.752,0,0,0-1.368-.575,1.752,1.752,0,0,0-1.368.575,2.15,2.15,0,0,0-.518,1.495V-.276a.266.266,0,0,1-.08.2.266.266,0,0,1-.2.08H47.012a.266.266,0,0,1-.2-.08.266.266,0,0,1-.081-.2v-11.27a.266.266,0,0,1,.081-.2.266.266,0,0,1,.2-.08H49.7a.266.266,0,0,1,.2.08.266.266,0,0,1,.08.2v.8a.093.093,0,0,0,.046.092.045.045,0,0,0,.069-.023A3.212,3.212,0,0,1,52.9-12.006ZM64.446.184a5.505,5.505,0,0,1-3.186-.92,5.021,5.021,0,0,1-1.921-2.53,8.449,8.449,0,0,1-.391-2.714,8.157,8.157,0,0,1,.391-2.668,4.773,4.773,0,0,1,1.909-2.461,5.664,5.664,0,0,1,3.2-.9,5.724,5.724,0,0,1,3.231.92,4.41,4.41,0,0,1,1.852,2.323,2.92,2.92,0,0,1,.184.828v.046a.244.244,0,0,1-.23.253l-2.645.391h-.046a.276.276,0,0,1-.276-.23l-.069-.368a1.75,1.75,0,0,0-.713-.989,2.209,2.209,0,0,0-1.311-.391,2.055,2.055,0,0,0-1.242.368,1.949,1.949,0,0,0-.713,1.012,5.648,5.648,0,0,0-.253,1.886,6.173,6.173,0,0,0,.23,1.886,2.047,2.047,0,0,0,.724,1.081,2.019,2.019,0,0,0,1.253.391,2.126,2.126,0,0,0,1.254-.38,1.94,1.94,0,0,0,.747-1.046.32.32,0,0,0,.023-.138.094.094,0,0,0,.023-.069q.023-.276.322-.23l2.645.414a.244.244,0,0,1,.23.253,3.237,3.237,0,0,1-.138.69A4.288,4.288,0,0,1,67.654-.69,5.9,5.9,0,0,1,64.446.184ZM81.926-7.13a9.9,9.9,0,0,1,.092,1.955.268.268,0,0,1-.3.276H74.612q-.138,0-.092.115a4.118,4.118,0,0,0,.253.92,2.412,2.412,0,0,0,2.438,1.288,2.775,2.775,0,0,0,2.323-1.2.256.256,0,0,1,.207-.138.252.252,0,0,1,.161.092l1.656,1.633a.317.317,0,0,1,.115.207.474.474,0,0,1-.092.184A5.016,5.016,0,0,1,79.626-.333,6.533,6.533,0,0,1,77,.184a5.973,5.973,0,0,1-3.346-.9A4.981,4.981,0,0,1,71.691-3.22a7.886,7.886,0,0,1-.483-3.013,6.62,6.62,0,0,1,.345-2.231,5.056,5.056,0,0,1,1.852-2.6,5.178,5.178,0,0,1,3.139-.966,5.111,5.111,0,0,1,3.691,1.334A5.837,5.837,0,0,1,81.926-7.13ZM76.567-9.223a1.843,1.843,0,0,0-1.909,1.357,5.428,5.428,0,0,0-.161.736.1.1,0,0,0,.115.115h3.979q.138,0,.092-.115-.115-.667-.115-.644a1.987,1.987,0,0,0-.725-1.069A2.1,2.1,0,0,0,76.567-9.223Z" transform="translate(1065.576 5535.165)" fill="#5c5a56"/>
    <path id="Trazado_2070" data-name="Trazado 2070" d="M5.681,0a.289.289,0,0,1-.3-.23L.644-15.778.621-15.87q0-.23.253-.23h2.9a.3.3,0,0,1,.322.23L7.153-4.646q.023.069.069.069t.069-.069L10.3-15.87a.3.3,0,0,1,.322-.23h2.829a.242.242,0,0,1,.207.092.238.238,0,0,1,.023.23L8.878-.23a.289.289,0,0,1-.3.23ZM18.837-12.006a6.547,6.547,0,0,1,2.668.517,4.4,4.4,0,0,1,1.829,1.415,3.311,3.311,0,0,1,.655,2v7.8a.266.266,0,0,1-.08.2.266.266,0,0,1-.2.08H21.022a.266.266,0,0,1-.2-.08.266.266,0,0,1-.08-.2v-.759a.093.093,0,0,0-.046-.092q-.046-.023-.092.046A3.658,3.658,0,0,1,17.5.184,4.532,4.532,0,0,1,14.6-.69a3.088,3.088,0,0,1-1.1-2.576,3.3,3.3,0,0,1,1.242-2.749,5.614,5.614,0,0,1,3.542-.977h2.346a.1.1,0,0,0,.115-.115v-.506a1.533,1.533,0,0,0-.46-1.184,1.97,1.97,0,0,0-1.38-.425,2.486,2.486,0,0,0-1.184.253,1.181,1.181,0,0,0-.61.713.264.264,0,0,1-.3.23L14.03-8.4q-.276-.046-.253-.207a3.062,3.062,0,0,1,.771-1.748,4.49,4.49,0,0,1,1.794-1.219A6.792,6.792,0,0,1,18.837-12.006Zm-.46,9.775a2.678,2.678,0,0,0,1.679-.529,1.637,1.637,0,0,0,.69-1.357v-.828a.1.1,0,0,0-.115-.115H18.975a2.9,2.9,0,0,0-1.622.391,1.252,1.252,0,0,0-.587,1.1,1.193,1.193,0,0,0,.437.978A1.8,1.8,0,0,0,18.377-2.231Zm13.777-9.752a2.336,2.336,0,0,1,1.311.322.285.285,0,0,1,.138.345L33.12-8.694q-.023.276-.322.161a2.548,2.548,0,0,0-.805-.115,3.8,3.8,0,0,0-.506.046,2.26,2.26,0,0,0-1.4.61,1.88,1.88,0,0,0-.575,1.438V-.276a.266.266,0,0,1-.08.2.266.266,0,0,1-.2.08H26.542a.266.266,0,0,1-.2-.08.266.266,0,0,1-.081-.2v-11.27a.266.266,0,0,1,.081-.2.266.266,0,0,1,.2-.08h2.691a.266.266,0,0,1,.2.08.266.266,0,0,1,.08.2v.874a.093.093,0,0,0,.046.092.045.045,0,0,0,.069-.023A2.922,2.922,0,0,1,32.154-11.983ZM35.949.092a1.762,1.762,0,0,1-1.3-.518,1.762,1.762,0,0,1-.517-1.3,1.774,1.774,0,0,1,.506-1.311,1.774,1.774,0,0,1,1.311-.506,1.774,1.774,0,0,1,1.311.506,1.774,1.774,0,0,1,.506,1.311,1.762,1.762,0,0,1-.517,1.3A1.762,1.762,0,0,1,35.949.092ZM49.128-2.921a.075.075,0,0,0-.023.092.093.093,0,0,0,.092.046H55.43a.266.266,0,0,1,.2.08.266.266,0,0,1,.08.2V-.276a.266.266,0,0,1-.08.2.266.266,0,0,1-.2.08H45.08a.266.266,0,0,1-.2-.08.266.266,0,0,1-.081-.2V-2.392a.468.468,0,0,1,.138-.345q1.127-1.1,2.3-2.4t1.472-1.622q.644-.759,1.311-1.449,2.093-2.323,2.093-3.45a1.7,1.7,0,0,0-.575-1.322,2.15,2.15,0,0,0-1.495-.518,2.15,2.15,0,0,0-1.495.518,1.752,1.752,0,0,0-.575,1.368v.575a.266.266,0,0,1-.081.2.266.266,0,0,1-.2.081H44.988a.266.266,0,0,1-.2-.081.266.266,0,0,1-.08-.2v-1.081a3.953,3.953,0,0,1,.782-2.2,4.537,4.537,0,0,1,1.9-1.46,6.7,6.7,0,0,1,2.656-.506,6.23,6.23,0,0,1,2.84.609,4.6,4.6,0,0,1,1.863,1.644,4.211,4.211,0,0,1,.655,2.3,4.574,4.574,0,0,1-.483,1.978,10.937,10.937,0,0,1-1.449,2.185q-.713.9-1.541,1.771t-2.461,2.53ZM63.181.253a5.534,5.534,0,0,1-4-1.415,5.092,5.092,0,0,1-1.472-3.852v-6.072a5,5,0,0,1,1.472-3.8,5.561,5.561,0,0,1,4-1.4,5.6,5.6,0,0,1,4.013,1.4,4.974,4.974,0,0,1,1.484,3.8v6.072a5.071,5.071,0,0,1-1.484,3.852A5.575,5.575,0,0,1,63.181.253Zm0-2.783a2.177,2.177,0,0,0,1.645-.633,2.333,2.333,0,0,0,.609-1.69v-6.325a2.333,2.333,0,0,0-.609-1.69,2.177,2.177,0,0,0-1.645-.633,2.148,2.148,0,0,0-1.622.633,2.333,2.333,0,0,0-.61,1.69v6.325a2.333,2.333,0,0,0,.61,1.69A2.148,2.148,0,0,0,63.181-2.53Zm9.775-13.5A.684.684,0,0,1,73.3-16.1h2.783a.266.266,0,0,1,.2.08.266.266,0,0,1,.081.2V-.276a.266.266,0,0,1-.081.2.266.266,0,0,1-.2.08H73.393a.266.266,0,0,1-.2-.08.266.266,0,0,1-.08-.2v-12.6a.133.133,0,0,0-.046-.092.075.075,0,0,0-.092-.023l-2.277.621-.092.023q-.207,0-.207-.253l-.069-1.978a.326.326,0,0,1,.207-.322Zm15.525,2.852a5.871,5.871,0,0,1,.391,2.254V-4a3.834,3.834,0,0,1-.644,2.2A4.146,4.146,0,0,1,86.411-.333,6.608,6.608,0,0,1,83.72.184a6.386,6.386,0,0,1-2.645-.518,4.231,4.231,0,0,1-1.794-1.449,3.689,3.689,0,0,1-.644-2.151v-.644a.266.266,0,0,1,.08-.2.266.266,0,0,1,.2-.08H81.6a.266.266,0,0,1,.2.08.266.266,0,0,1,.081.2v.207A1.7,1.7,0,0,0,82.4-3.105,1.813,1.813,0,0,0,83.72-2.6a1.889,1.889,0,0,0,1.38-.517,1.77,1.77,0,0,0,.529-1.323V-6.578a.093.093,0,0,0-.046-.092.075.075,0,0,0-.092.023,3.694,3.694,0,0,1-2.484.805,4.844,4.844,0,0,1-2.473-.633A4.395,4.395,0,0,1,78.821-8.3a5.574,5.574,0,0,1-.575-2.645,5.84,5.84,0,0,1,.46-2.392,4.527,4.527,0,0,1,1.852-2.139,5.631,5.631,0,0,1,3-.782,5.608,5.608,0,0,1,3.048.816A4.617,4.617,0,0,1,88.481-13.179ZM83.559-8.556A1.826,1.826,0,0,0,85.284-9.5a3.058,3.058,0,0,0,.345-1.541,3.29,3.29,0,0,0-.3-1.4,1.793,1.793,0,0,0-1.748-1.012,1.852,1.852,0,0,0-1.748,1.012,3.02,3.02,0,0,0-.345,1.449,2.868,2.868,0,0,0,.391,1.518A1.86,1.86,0,0,0,83.559-8.556Z" transform="translate(1298.834 5535.165)" fill="#5c5a56"/>
    <path id="Trazado_2071" data-name="Trazado 2071" d="M11.707,0a.268.268,0,0,1-.276-.184l-.92-2.9a.09.09,0,0,0-.092-.069H3.542a.09.09,0,0,0-.092.069l-.92,2.9A.268.268,0,0,1,2.254,0H1.012Q.759,0,.828-.253L5.911-15.916a.268.268,0,0,1,.276-.184H7.751a.268.268,0,0,1,.276.184L13.133-.253l.023.092q0,.161-.207.161ZM3.91-4.6a.064.064,0,0,0,.011.08A.11.11,0,0,0,4-4.485H9.936a.11.11,0,0,0,.08-.035.064.064,0,0,0,.012-.08l-2.99-9.384a.074.074,0,0,0-.069-.046.074.074,0,0,0-.069.046ZM16.031,0a.2.2,0,0,1-.23-.23V-15.87a.2.2,0,0,1,.23-.23H17.2a.2.2,0,0,1,.23.23V-.23A.2.2,0,0,1,17.2,0Zm9.453.184a4.694,4.694,0,0,1-2.84-.863,4.32,4.32,0,0,1-1.622-2.335,10.561,10.561,0,0,1-.3-2.852,11.311,11.311,0,0,1,.3-2.806,4.182,4.182,0,0,1,1.61-2.288,4.745,4.745,0,0,1,2.852-.862,4.987,4.987,0,0,1,2.91.851,3.862,3.862,0,0,1,1.6,2.116,3.882,3.882,0,0,1,.138.69v.046q0,.161-.207.207l-1.15.161h-.046q-.161,0-.207-.207L28.451-8.3a2.585,2.585,0,0,0-1.012-1.483,3.145,3.145,0,0,0-1.955-.609,3,3,0,0,0-1.92.609,2.787,2.787,0,0,0-1,1.622,10.457,10.457,0,0,0-.207,2.323A10.218,10.218,0,0,0,22.563-3.5a2.8,2.8,0,0,0,1,1.644,3,3,0,0,0,1.92.61,3.243,3.243,0,0,0,1.944-.586,2.484,2.484,0,0,0,1.024-1.506v-.092l.023-.092q.023-.23.276-.184l1.127.184q.23.046.207.253l-.092.46A3.643,3.643,0,0,1,28.4-.644,5.142,5.142,0,0,1,25.484.184ZM37.076-11.822a4.494,4.494,0,0,1,3.2,1.058A3.667,3.667,0,0,1,41.4-7.958V-.23a.2.2,0,0,1-.23.23H40a.2.2,0,0,1-.23-.23v-.943a.077.077,0,0,0-.035-.069q-.034-.023-.08.023A3.592,3.592,0,0,1,38.157-.172,5.624,5.624,0,0,1,36.11.184a4.432,4.432,0,0,1-2.737-.828,2.958,2.958,0,0,1-1.1-2.53A3.3,3.3,0,0,1,33.522-5.9a5.448,5.448,0,0,1,3.485-1h2.668a.081.081,0,0,0,.092-.092v-.874a2.552,2.552,0,0,0-.655-1.852,2.717,2.717,0,0,0-2.035-.678,3.378,3.378,0,0,0-1.794.425,1.782,1.782,0,0,0-.851,1.184.244.244,0,0,1-.276.207L32.913-8.74q-.253-.046-.207-.184a2.966,2.966,0,0,1,1.38-2.093A5.239,5.239,0,0,1,37.076-11.822Zm-.644,10.6A4.045,4.045,0,0,0,38.778-1.9a2.111,2.111,0,0,0,.989-1.829V-5.52a.081.081,0,0,0-.092-.092H37.26a4.288,4.288,0,0,0-2.438.621,1.969,1.969,0,0,0-.92,1.725,1.78,1.78,0,0,0,.7,1.53A3,3,0,0,0,36.432-1.219Zm13.2-10.58a3.987,3.987,0,0,1,2.933,1.081,3.893,3.893,0,0,1,1.092,2.9V-.23a.2.2,0,0,1-.23.23H52.256a.2.2,0,0,1-.23-.23V-7.5a2.871,2.871,0,0,0-.771-2.07,2.631,2.631,0,0,0-1.99-.805,2.768,2.768,0,0,0-2.047.782,2.768,2.768,0,0,0-.782,2.047V-.23a.2.2,0,0,1-.23.23H45.034a.2.2,0,0,1-.23-.23V-11.408a.2.2,0,0,1,.23-.23h1.173a.2.2,0,0,1,.23.23v.989a.077.077,0,0,0,.035.069q.034.023.057-.023A3.55,3.55,0,0,1,49.634-11.8ZM61.433.184a4.694,4.694,0,0,1-2.84-.863,4.32,4.32,0,0,1-1.621-2.335,10.561,10.561,0,0,1-.3-2.852,11.311,11.311,0,0,1,.3-2.806,4.182,4.182,0,0,1,1.61-2.288,4.745,4.745,0,0,1,2.852-.862,4.987,4.987,0,0,1,2.91.851,3.862,3.862,0,0,1,1.6,2.116,3.882,3.882,0,0,1,.138.69v.046q0,.161-.207.207l-1.15.161h-.046q-.161,0-.207-.207L64.4-8.3a2.585,2.585,0,0,0-1.012-1.483,3.145,3.145,0,0,0-1.955-.609,3,3,0,0,0-1.92.609,2.787,2.787,0,0,0-1,1.622,10.457,10.457,0,0,0-.207,2.323A10.218,10.218,0,0,0,58.512-3.5a2.8,2.8,0,0,0,1,1.644,3,3,0,0,0,1.92.61,3.243,3.243,0,0,0,1.944-.586A2.484,2.484,0,0,0,64.4-3.335v-.092l.023-.092q.023-.23.276-.184l1.127.184q.23.046.207.253l-.092.46A3.643,3.643,0,0,1,64.354-.644,5.142,5.142,0,0,1,61.433.184ZM77.855-7.774a11.7,11.7,0,0,1,.092,1.61v.736a.2.2,0,0,1-.23.23H70.288a.081.081,0,0,0-.092.092,10.266,10.266,0,0,0,.138,1.633A2.751,2.751,0,0,0,71.415-1.84a3.525,3.525,0,0,0,2.116.6,3.27,3.27,0,0,0,1.7-.437,3.006,3.006,0,0,0,1.15-1.242q.138-.207.322-.092l.9.529a.229.229,0,0,1,.092.322A4.138,4.138,0,0,1,75.969-.426a5.4,5.4,0,0,1-2.645.632,4.843,4.843,0,0,1-2.737-.782A4.194,4.194,0,0,1,69-2.691a9.446,9.446,0,0,1-.414-3.174q0-.966.035-1.576a5.018,5.018,0,0,1,.173-1.092,4.26,4.26,0,0,1,1.575-2.392,4.606,4.606,0,0,1,2.864-.9,4.529,4.529,0,0,1,3.22,1.058A4.9,4.9,0,0,1,77.855-7.774ZM73.232-10.4a2.944,2.944,0,0,0-1.874.587,2.717,2.717,0,0,0-.978,1.575A7.448,7.448,0,0,0,70.2-6.67a.081.081,0,0,0,.092.092h5.957a.081.081,0,0,0,.092-.092A10.34,10.34,0,0,0,76.2-8.142a2.906,2.906,0,0,0-1.023-1.644A3.036,3.036,0,0,0,73.232-10.4ZM88.09-16.031a.659.659,0,0,1,.3-.069h1.242a.2.2,0,0,1,.23.23V-.23a.2.2,0,0,1-.23.23H88.458a.2.2,0,0,1-.23-.23V-14.237a.077.077,0,0,0-.035-.069.076.076,0,0,0-.08,0l-2.438.989-.092.023q-.138,0-.184-.184l-.115-.874V-14.4q0-.115.161-.23Z" transform="translate(1065.576 5576.525)" fill="#5c5a56"/>
    <path id="Trazado_2072" data-name="Trazado 2072" d="M11.52-6.168a.212.212,0,0,1,.24.24v1.056a.212.212,0,0,1-.24.24H10.488a.085.085,0,0,0-.1.1v4.3a.212.212,0,0,1-.24.24H8.928a.212.212,0,0,1-.24-.24v-4.3a.085.085,0,0,0-.1-.1H1.416a.212.212,0,0,1-.24-.24V-5.76a.756.756,0,0,1,.072-.288l4.92-10.584a.263.263,0,0,1,.264-.168H7.7a.207.207,0,0,1,.18.084.2.2,0,0,1,.012.2L3.12-6.288a.079.079,0,0,0,0,.084.081.081,0,0,0,.072.036h5.4a.085.085,0,0,0,.1-.1v-3.864a.212.212,0,0,1,.24-.24h1.224a.212.212,0,0,1,.24.24v3.864a.085.085,0,0,0,.1.1Zm13.224,0a.212.212,0,0,1,.24.24v1.056a.212.212,0,0,1-.24.24H23.712a.085.085,0,0,0-.1.1v4.3a.212.212,0,0,1-.24.24H22.152a.212.212,0,0,1-.24-.24v-4.3a.085.085,0,0,0-.1-.1H14.64a.212.212,0,0,1-.24-.24V-5.76a.756.756,0,0,1,.072-.288l4.92-10.584a.263.263,0,0,1,.264-.168h1.272a.207.207,0,0,1,.18.084.2.2,0,0,1,.012.2L16.344-6.288a.079.079,0,0,0,0,.084.081.081,0,0,0,.072.036h5.4a.085.085,0,0,0,.1-.1v-3.864a.212.212,0,0,1,.24-.24h1.224a.212.212,0,0,1,.24.24v3.864a.085.085,0,0,0,.1.1Zm3.816-10.56a.688.688,0,0,1,.312-.072h1.3a.212.212,0,0,1,.24.24V-.24a.212.212,0,0,1-.24.24H28.944a.212.212,0,0,1-.24-.24V-14.856a.081.081,0,0,0-.036-.072.079.079,0,0,0-.084,0L26.04-13.9l-.1.024q-.144,0-.192-.192l-.12-.912v-.048q0-.12.168-.24ZM34.464,1.9a.2.2,0,0,1-.216-.264L35.3-3.5a.247.247,0,0,1,.264-.216h1.056a.221.221,0,0,1,.18.072.219.219,0,0,1,.036.192L35.5,1.68a.247.247,0,0,1-.264.216ZM42.6,0a.207.207,0,0,1-.18-.084.2.2,0,0,1-.012-.2l5.544-14.9a.079.079,0,0,0,0-.084.081.081,0,0,0-.072-.036H41.4a.085.085,0,0,0-.1.1v1.1a.212.212,0,0,1-.24.24H40.08a.212.212,0,0,1-.24-.24l.024-2.448a.212.212,0,0,1,.24-.24H49.56a.212.212,0,0,1,.24.24v1.1a1.313,1.313,0,0,1-.048.288L44.232-.192A.28.28,0,0,1,43.944,0ZM60.984-13.848a7.887,7.887,0,0,1,.288,2.256V-4.1a4,4,0,0,1-1.3,3.132A4.872,4.872,0,0,1,56.592.192a4.7,4.7,0,0,1-3.276-1.14,3.811,3.811,0,0,1-1.26-2.964v-.336a.212.212,0,0,1,.24-.24H53.52a.212.212,0,0,1,.24.24v.192a2.651,2.651,0,0,0,.792,1.992,2.808,2.808,0,0,0,2.04.768,2.964,2.964,0,0,0,2.136-.8,2.8,2.8,0,0,0,.84-2.124v-3.5a.057.057,0,0,0-.048-.06.058.058,0,0,0-.072.036A3.7,3.7,0,0,1,56.28-6.336a4.506,4.506,0,0,1-2.532-.672A4.191,4.191,0,0,1,52.2-8.9a6.185,6.185,0,0,1-.5-2.736,6.772,6.772,0,0,1,.36-2.4,4.324,4.324,0,0,1,1.62-2.16,4.732,4.732,0,0,1,2.748-.768,4.974,4.974,0,0,1,2.916.828A4.24,4.24,0,0,1,60.984-13.848ZM56.5-7.824a3.024,3.024,0,0,0,1.788-.516A2.676,2.676,0,0,0,59.3-9.768a5.676,5.676,0,0,0,.264-1.944,6.162,6.162,0,0,0-.216-1.752,2.838,2.838,0,0,0-1.032-1.464A2.976,2.976,0,0,0,56.5-15.48a3.038,3.038,0,0,0-1.776.516,2.777,2.777,0,0,0-1.056,1.5A5.116,5.116,0,0,0,53.4-11.64a4.8,4.8,0,0,0,.312,1.92A2.7,2.7,0,0,0,54.72-8.34,2.97,2.97,0,0,0,56.5-7.824ZM74.352-6.168a.212.212,0,0,1,.24.24v1.056a.212.212,0,0,1-.24.24H73.32a.085.085,0,0,0-.1.1v4.3a.212.212,0,0,1-.24.24H71.76a.212.212,0,0,1-.24-.24v-4.3a.085.085,0,0,0-.1-.1H64.248a.212.212,0,0,1-.24-.24V-5.76a.756.756,0,0,1,.072-.288L69-16.632a.263.263,0,0,1,.264-.168h1.272a.207.207,0,0,1,.18.084.2.2,0,0,1,.012.2L65.952-6.288a.079.079,0,0,0,0,.084.081.081,0,0,0,.072.036h5.4a.085.085,0,0,0,.1-.1v-3.864a.212.212,0,0,1,.24-.24h1.224a.212.212,0,0,1,.24.24v3.864a.085.085,0,0,0,.1.1Z" transform="translate(1204.977 5577.525)" fill="#5c5a56"/>
    <path id="Trazado_2073" data-name="Trazado 2073" d="M1.127-6.44A.2.2,0,0,1,.9-6.67v-.966a.2.2,0,0,1,.23-.23H7.935a.2.2,0,0,1,.23.23v.966a.2.2,0,0,1-.23.23ZM13.2-16.031a.659.659,0,0,1,.3-.069h1.242a.2.2,0,0,1,.23.23V-.23a.2.2,0,0,1-.23.23H13.57a.2.2,0,0,1-.23-.23V-14.237a.077.077,0,0,0-.035-.069.076.076,0,0,0-.08,0l-2.438.989-.092.023q-.138,0-.184-.184l-.115-.874V-14.4q0-.115.161-.23ZM27.577-7.038a10.3,10.3,0,0,1,.207,2.07,7.846,7.846,0,0,1-.207,1.932A4.115,4.115,0,0,1,26.013-.7a4.643,4.643,0,0,1-2.829.862A4.636,4.636,0,0,1,20.4-.667a4.1,4.1,0,0,1-1.564-2.208,4.749,4.749,0,0,1-.207-1.012v-.046q0-.184.207-.184h1.219a.228.228,0,0,1,.253.23,1.949,1.949,0,0,0,.092.46,2.764,2.764,0,0,0,.955,1.576,2.777,2.777,0,0,0,1.806.587,2.8,2.8,0,0,0,1.851-.621,2.923,2.923,0,0,0,.978-1.7,5.631,5.631,0,0,0,.138-1.38,9.383,9.383,0,0,0-.115-1.495,2.325,2.325,0,0,0-.92-1.61,3.121,3.121,0,0,0-1.886-.552,3.6,3.6,0,0,0-1.817.46,2.1,2.1,0,0,0-1.035,1.219.258.258,0,0,1-.253.207H18.86a.2.2,0,0,1-.23-.23v-8.9a.2.2,0,0,1,.23-.23h8.05a.2.2,0,0,1,.23.23v.966a.2.2,0,0,1-.23.23H20.355a.081.081,0,0,0-.092.092L20.24-9.016a.077.077,0,0,0,.035.069q.035.023.08-.023a4.036,4.036,0,0,1,1.357-.817,4.761,4.761,0,0,1,1.656-.287,4.673,4.673,0,0,1,2.76.793A3.582,3.582,0,0,1,27.577-7.038Zm6.831-2.737a3.261,3.261,0,0,1-1.656-.437A3.313,3.313,0,0,1,31.545-11.4a3.137,3.137,0,0,1-.448-1.644,3.137,3.137,0,0,1,.448-1.644,3.313,3.313,0,0,1,1.207-1.185,3.261,3.261,0,0,1,1.656-.437,3.261,3.261,0,0,1,1.656.437,3.224,3.224,0,0,1,1.2,1.185,3.2,3.2,0,0,1,.437,1.644A3.2,3.2,0,0,1,37.26-11.4a3.224,3.224,0,0,1-1.2,1.184A3.261,3.261,0,0,1,34.408-9.775ZM33.879,0a.194.194,0,0,1-.184-.08.187.187,0,0,1,.023-.2l8.717-15.663a.334.334,0,0,1,.276-.161h.736a.194.194,0,0,1,.184.08.187.187,0,0,1-.023.2L34.914-.161A.27.27,0,0,1,34.638,0Zm.529-10.833a2.092,2.092,0,0,0,1.552-.644,2.149,2.149,0,0,0,.632-1.564A2.149,2.149,0,0,0,35.96-14.6a2.092,2.092,0,0,0-1.552-.644,2.149,2.149,0,0,0-1.564.632,2.119,2.119,0,0,0-.644,1.576,2.129,2.129,0,0,0,.644,1.564A2.129,2.129,0,0,0,34.408-10.833ZM43.056.207A3.261,3.261,0,0,1,41.4-.23a3.285,3.285,0,0,1-1.208-1.2,3.2,3.2,0,0,1-.449-1.656A3.1,3.1,0,0,1,40.193-4.7,3.313,3.313,0,0,1,41.4-5.888a3.261,3.261,0,0,1,1.656-.437,3.218,3.218,0,0,1,1.633.437,3.224,3.224,0,0,1,1.2,1.185,3.157,3.157,0,0,1,.437,1.622,3.261,3.261,0,0,1-.437,1.656A3.224,3.224,0,0,1,44.7-.23,3.2,3.2,0,0,1,43.056.207Zm0-1.058a2.092,2.092,0,0,0,1.553-.644,2.177,2.177,0,0,0,.632-1.587A2.092,2.092,0,0,0,44.6-4.635a2.122,2.122,0,0,0-1.541-.633,2.177,2.177,0,0,0-1.587.633,2.092,2.092,0,0,0-.644,1.553,2.157,2.157,0,0,0,.644,1.587A2.157,2.157,0,0,0,43.056-.851Z" transform="translate(1327.164 5576.525)" fill="#5c5a56"/>
    <path id="Trazado_2074" data-name="Trazado 2074" d="M11.707,0a.268.268,0,0,1-.276-.184l-.92-2.9a.09.09,0,0,0-.092-.069H3.542a.09.09,0,0,0-.092.069l-.92,2.9A.268.268,0,0,1,2.254,0H1.012Q.759,0,.828-.253L5.911-15.916a.268.268,0,0,1,.276-.184H7.751a.268.268,0,0,1,.276.184L13.133-.253l.023.092q0,.161-.207.161ZM3.91-4.6a.064.064,0,0,0,.011.08A.11.11,0,0,0,4-4.485H9.936a.11.11,0,0,0,.08-.035.064.064,0,0,0,.012-.08l-2.99-9.384a.074.074,0,0,0-.069-.046.074.074,0,0,0-.069.046ZM16.031,0a.2.2,0,0,1-.23-.23V-15.87a.2.2,0,0,1,.23-.23H17.2a.2.2,0,0,1,.23.23V-.23A.2.2,0,0,1,17.2,0Zm9.453.184a4.694,4.694,0,0,1-2.84-.863,4.32,4.32,0,0,1-1.622-2.335,10.561,10.561,0,0,1-.3-2.852,11.311,11.311,0,0,1,.3-2.806,4.182,4.182,0,0,1,1.61-2.288,4.745,4.745,0,0,1,2.852-.862,4.987,4.987,0,0,1,2.91.851,3.862,3.862,0,0,1,1.6,2.116,3.882,3.882,0,0,1,.138.69v.046q0,.161-.207.207l-1.15.161h-.046q-.161,0-.207-.207L28.451-8.3a2.585,2.585,0,0,0-1.012-1.483,3.145,3.145,0,0,0-1.955-.609,3,3,0,0,0-1.92.609,2.787,2.787,0,0,0-1,1.622,10.457,10.457,0,0,0-.207,2.323A10.218,10.218,0,0,0,22.563-3.5a2.8,2.8,0,0,0,1,1.644,3,3,0,0,0,1.92.61,3.243,3.243,0,0,0,1.944-.586,2.484,2.484,0,0,0,1.024-1.506v-.092l.023-.092q.023-.23.276-.184l1.127.184q.23.046.207.253l-.092.46A3.643,3.643,0,0,1,28.4-.644,5.142,5.142,0,0,1,25.484.184ZM37.076-11.822a4.494,4.494,0,0,1,3.2,1.058A3.667,3.667,0,0,1,41.4-7.958V-.23a.2.2,0,0,1-.23.23H40a.2.2,0,0,1-.23-.23v-.943a.077.077,0,0,0-.035-.069q-.034-.023-.08.023A3.592,3.592,0,0,1,38.157-.172,5.624,5.624,0,0,1,36.11.184a4.432,4.432,0,0,1-2.737-.828,2.958,2.958,0,0,1-1.1-2.53A3.3,3.3,0,0,1,33.522-5.9a5.448,5.448,0,0,1,3.485-1h2.668a.081.081,0,0,0,.092-.092v-.874a2.552,2.552,0,0,0-.655-1.852,2.717,2.717,0,0,0-2.035-.678,3.378,3.378,0,0,0-1.794.425,1.782,1.782,0,0,0-.851,1.184.244.244,0,0,1-.276.207L32.913-8.74q-.253-.046-.207-.184a2.966,2.966,0,0,1,1.38-2.093A5.239,5.239,0,0,1,37.076-11.822Zm-.644,10.6A4.045,4.045,0,0,0,38.778-1.9a2.111,2.111,0,0,0,.989-1.829V-5.52a.081.081,0,0,0-.092-.092H37.26a4.288,4.288,0,0,0-2.438.621,1.969,1.969,0,0,0-.92,1.725,1.78,1.78,0,0,0,.7,1.53A3,3,0,0,0,36.432-1.219Zm13.2-10.58a3.987,3.987,0,0,1,2.933,1.081,3.893,3.893,0,0,1,1.092,2.9V-.23a.2.2,0,0,1-.23.23H52.256a.2.2,0,0,1-.23-.23V-7.5a2.871,2.871,0,0,0-.771-2.07,2.631,2.631,0,0,0-1.99-.805,2.768,2.768,0,0,0-2.047.782,2.768,2.768,0,0,0-.782,2.047V-.23a.2.2,0,0,1-.23.23H45.034a.2.2,0,0,1-.23-.23V-11.408a.2.2,0,0,1,.23-.23h1.173a.2.2,0,0,1,.23.23v.989a.077.077,0,0,0,.035.069q.034.023.057-.023A3.55,3.55,0,0,1,49.634-11.8ZM61.433.184a4.694,4.694,0,0,1-2.84-.863,4.32,4.32,0,0,1-1.621-2.335,10.561,10.561,0,0,1-.3-2.852,11.311,11.311,0,0,1,.3-2.806,4.182,4.182,0,0,1,1.61-2.288,4.745,4.745,0,0,1,2.852-.862,4.987,4.987,0,0,1,2.91.851,3.862,3.862,0,0,1,1.6,2.116,3.882,3.882,0,0,1,.138.69v.046q0,.161-.207.207l-1.15.161h-.046q-.161,0-.207-.207L64.4-8.3a2.585,2.585,0,0,0-1.012-1.483,3.145,3.145,0,0,0-1.955-.609,3,3,0,0,0-1.92.609,2.787,2.787,0,0,0-1,1.622,10.457,10.457,0,0,0-.207,2.323A10.218,10.218,0,0,0,58.512-3.5a2.8,2.8,0,0,0,1,1.644,3,3,0,0,0,1.92.61,3.243,3.243,0,0,0,1.944-.586A2.484,2.484,0,0,0,64.4-3.335v-.092l.023-.092q.023-.23.276-.184l1.127.184q.23.046.207.253l-.092.46A3.643,3.643,0,0,1,64.354-.644,5.142,5.142,0,0,1,61.433.184ZM77.855-7.774a11.7,11.7,0,0,1,.092,1.61v.736a.2.2,0,0,1-.23.23H70.288a.081.081,0,0,0-.092.092,10.266,10.266,0,0,0,.138,1.633A2.751,2.751,0,0,0,71.415-1.84a3.525,3.525,0,0,0,2.116.6,3.27,3.27,0,0,0,1.7-.437,3.006,3.006,0,0,0,1.15-1.242q.138-.207.322-.092l.9.529a.229.229,0,0,1,.092.322A4.138,4.138,0,0,1,75.969-.426a5.4,5.4,0,0,1-2.645.632,4.843,4.843,0,0,1-2.737-.782A4.194,4.194,0,0,1,69-2.691a9.446,9.446,0,0,1-.414-3.174q0-.966.035-1.576a5.018,5.018,0,0,1,.173-1.092,4.26,4.26,0,0,1,1.575-2.392,4.606,4.606,0,0,1,2.864-.9,4.529,4.529,0,0,1,3.22,1.058A4.9,4.9,0,0,1,77.855-7.774ZM73.232-10.4a2.944,2.944,0,0,0-1.874.587,2.717,2.717,0,0,0-.978,1.575A7.448,7.448,0,0,0,70.2-6.67a.081.081,0,0,0,.092.092h5.957a.081.081,0,0,0,.092-.092A10.34,10.34,0,0,0,76.2-8.142a2.906,2.906,0,0,0-1.023-1.644A3.036,3.036,0,0,0,73.232-10.4ZM87.446-1.541q-.069.115.046.115h7.222a.2.2,0,0,1,.23.23V-.23a.2.2,0,0,1-.23.23H85.537a.2.2,0,0,1-.23-.23V-1.2a.376.376,0,0,1,.115-.276q.782-.92,3.519-4.324l1.7-2.116Q92.8-10.649,92.8-12.167a2.488,2.488,0,0,0-.828-1.955,3.133,3.133,0,0,0-2.162-.736,2.986,2.986,0,0,0-2.116.748,2.489,2.489,0,0,0-.782,1.967v.713a.2.2,0,0,1-.23.23h-1.2a.2.2,0,0,1-.23-.23v-.92A3.688,3.688,0,0,1,86.583-15.2a4.827,4.827,0,0,1,3.231-1.081,5.382,5.382,0,0,1,2.438.529,3.934,3.934,0,0,1,1.633,1.46,3.925,3.925,0,0,1,.575,2.1q0,1.955-2.162,4.715-1.127,1.449-4.347,5.336Z" transform="translate(1065.576 5617.886)" fill="#5c5a56"/>
    <path id="Trazado_2075" data-name="Trazado 2075" d="M4.14-16.031a.659.659,0,0,1,.3-.069H5.681a.2.2,0,0,1,.23.23V-.23a.2.2,0,0,1-.23.23H4.508a.2.2,0,0,1-.23-.23V-14.237a.077.077,0,0,0-.035-.069.076.076,0,0,0-.08,0l-2.438.989-.092.023q-.138,0-.184-.184l-.115-.874V-14.4q0-.115.161-.23ZM9.775,1.817a.194.194,0,0,1-.207-.253L10.58-3.358a.237.237,0,0,1,.253-.207h1.012a.212.212,0,0,1,.172.069.21.21,0,0,1,.035.184L10.764,1.61a.237.237,0,0,1-.253.207Zm14.191-9.43a7.107,7.107,0,0,1,.46,2.691,6.62,6.62,0,0,1-.345,2.231A4.032,4.032,0,0,1,22.528-.563a4.674,4.674,0,0,1-2.7.748,4.553,4.553,0,0,1-2.76-.84,4.27,4.27,0,0,1-1.587-2.266,6.85,6.85,0,0,1-.253-1.748.2.2,0,0,1,.23-.23h1.173a.2.2,0,0,1,.23.23,9.772,9.772,0,0,0,.161,1.242A2.887,2.887,0,0,0,18-1.828a2.777,2.777,0,0,0,1.806.586,2.565,2.565,0,0,0,2.691-1.84,5.567,5.567,0,0,0,.276-1.886A5.866,5.866,0,0,0,22.4-7.222a2.622,2.622,0,0,0-2.6-1.656,2,2,0,0,0-.851.253.353.353,0,0,1-.138.046.194.194,0,0,1-.161-.115l-.6-.8a.236.236,0,0,1,.023-.322l4.048-4.738q.069-.115-.046-.115H15.594a.2.2,0,0,1-.23-.23v-.966a.2.2,0,0,1,.23-.23H24.1a.2.2,0,0,1,.23.23v1.127a.506.506,0,0,1-.115.276l-3.68,4.416q-.046.046-.023.081a.1.1,0,0,0,.092.035A3.6,3.6,0,0,1,23.966-7.613ZM32.361.23a4.854,4.854,0,0,1-3.519-1.265,4.481,4.481,0,0,1-1.311-3.381v-7.268a4.443,4.443,0,0,1,1.311-3.37,4.88,4.88,0,0,1,3.519-1.253,4.968,4.968,0,0,1,3.565,1.265,4.411,4.411,0,0,1,1.334,3.358v7.268a4.44,4.44,0,0,1-1.334,3.381A4.968,4.968,0,0,1,32.361.23Zm0-1.426a3.3,3.3,0,0,0,2.369-.851,2.991,2.991,0,0,0,.9-2.277v-7.429a2.982,2.982,0,0,0-.885-2.254,3.291,3.291,0,0,0-2.381-.851,3.187,3.187,0,0,0-2.323.851,3,3,0,0,0-.874,2.254v7.429a3.032,3.032,0,0,0,.874,2.277A3.187,3.187,0,0,0,32.361-1.2Zm16.4-6.417a7.107,7.107,0,0,1,.46,2.691,6.62,6.62,0,0,1-.345,2.231A4.032,4.032,0,0,1,47.322-.563a4.674,4.674,0,0,1-2.7.748,4.553,4.553,0,0,1-2.76-.84,4.27,4.27,0,0,1-1.587-2.266,6.85,6.85,0,0,1-.253-1.748.2.2,0,0,1,.23-.23h1.173a.2.2,0,0,1,.23.23,9.771,9.771,0,0,0,.161,1.242,2.887,2.887,0,0,0,.978,1.6,2.777,2.777,0,0,0,1.806.586,2.565,2.565,0,0,0,2.691-1.84,5.567,5.567,0,0,0,.276-1.886A5.866,5.866,0,0,0,47.2-7.222a2.622,2.622,0,0,0-2.6-1.656,2,2,0,0,0-.851.253.353.353,0,0,1-.138.046.194.194,0,0,1-.161-.115l-.6-.8a.236.236,0,0,1,.023-.322l4.048-4.738q.069-.115-.046-.115H40.388a.2.2,0,0,1-.23-.23v-.966a.2.2,0,0,1,.23-.23H48.9a.2.2,0,0,1,.23.23v1.127a.506.506,0,0,1-.115.276l-3.68,4.416q-.046.046-.023.081a.1.1,0,0,0,.092.035A3.6,3.6,0,0,1,48.76-7.613Zm3.68,9.43a.194.194,0,0,1-.207-.253l1.012-4.922a.237.237,0,0,1,.253-.207H54.51a.212.212,0,0,1,.173.069.21.21,0,0,1,.035.184L53.429,1.61a.237.237,0,0,1-.253.207ZM66.953-7.567a6.209,6.209,0,0,1,.483,2.622,6.012,6.012,0,0,1-.368,2.3,4.169,4.169,0,0,1-1.541,2.07,4.522,4.522,0,0,1-2.645.736A4.764,4.764,0,0,1,60.1-.621a4.142,4.142,0,0,1-1.587-2.208,7.558,7.558,0,0,1-.276-2.162v-7.176a3.834,3.834,0,0,1,1.242-3,4.669,4.669,0,0,1,3.243-1.116A4.519,4.519,0,0,1,65.872-15.2a3.66,3.66,0,0,1,1.2,2.852v.322a.2.2,0,0,1-.23.23H65.665a.2.2,0,0,1-.23-.23v-.184a2.541,2.541,0,0,0-.759-1.909,2.691,2.691,0,0,0-1.955-.736,2.84,2.84,0,0,0-2.047.771,2.688,2.688,0,0,0-.8,2.036v3.381a.054.054,0,0,0,.046.057.056.056,0,0,0,.069-.034,3.546,3.546,0,0,1,3.059-1.38,4.318,4.318,0,0,1,2.426.644A4.017,4.017,0,0,1,66.953-7.567ZM65.527-3.2A4.862,4.862,0,0,0,65.8-4.945a4.212,4.212,0,0,0-.322-1.84,2.529,2.529,0,0,0-.966-1.334,2.9,2.9,0,0,0-1.7-.483,2.846,2.846,0,0,0-1.7.495,2.587,2.587,0,0,0-.966,1.368,5.248,5.248,0,0,0-.276,1.863A5.219,5.219,0,0,0,60.1-3.2a2.744,2.744,0,0,0,.977,1.4,2.84,2.84,0,0,0,1.76.529,2.912,2.912,0,0,0,1.7-.495A2.552,2.552,0,0,0,65.527-3.2Zm13.248-4.37a6.209,6.209,0,0,1,.483,2.622,6.012,6.012,0,0,1-.368,2.3,4.169,4.169,0,0,1-1.541,2.07A4.522,4.522,0,0,1,74.7.161a4.764,4.764,0,0,1-2.783-.782,4.142,4.142,0,0,1-1.587-2.208,7.559,7.559,0,0,1-.276-2.162v-7.176a3.834,3.834,0,0,1,1.242-3,4.669,4.669,0,0,1,3.243-1.116A4.519,4.519,0,0,1,77.694-15.2a3.66,3.66,0,0,1,1.2,2.852v.322a.2.2,0,0,1-.23.23H77.487a.2.2,0,0,1-.23-.23v-.184a2.541,2.541,0,0,0-.759-1.909,2.691,2.691,0,0,0-1.955-.736,2.84,2.84,0,0,0-2.047.771,2.688,2.688,0,0,0-.805,2.036v3.381a.054.054,0,0,0,.046.057.056.056,0,0,0,.069-.034,3.546,3.546,0,0,1,3.059-1.38,4.318,4.318,0,0,1,2.426.644A4.017,4.017,0,0,1,78.775-7.567ZM77.349-3.2a4.862,4.862,0,0,0,.276-1.748,4.212,4.212,0,0,0-.322-1.84,2.529,2.529,0,0,0-.966-1.334,2.9,2.9,0,0,0-1.7-.483,2.846,2.846,0,0,0-1.7.495,2.587,2.587,0,0,0-.966,1.368,5.248,5.248,0,0,0-.276,1.863,5.218,5.218,0,0,0,.23,1.679,2.744,2.744,0,0,0,.978,1.4,2.84,2.84,0,0,0,1.759.529,2.912,2.912,0,0,0,1.7-.495A2.552,2.552,0,0,0,77.349-3.2Zm6.762-12.834a.659.659,0,0,1,.3-.069h1.242a.2.2,0,0,1,.23.23V-.23a.2.2,0,0,1-.23.23H84.479a.2.2,0,0,1-.23-.23V-14.237a.077.077,0,0,0-.035-.069.076.076,0,0,0-.08,0l-2.438.989-.092.023q-.138,0-.184-.184l-.115-.874V-14.4q0-.115.161-.23Z" transform="translate(1189.316 5617.87)" fill="#5c5a56"/>
    <path id="Trazado_2076" data-name="Trazado 2076" d="M1.127-6.44A.2.2,0,0,1,.9-6.67v-.966a.2.2,0,0,1,.23-.23H7.935a.2.2,0,0,1,.23.23v.966a.2.2,0,0,1-.23.23ZM13.2-16.031a.659.659,0,0,1,.3-.069h1.242a.2.2,0,0,1,.23.23V-.23a.2.2,0,0,1-.23.23H13.57a.2.2,0,0,1-.23-.23V-14.237a.077.077,0,0,0-.035-.069.076.076,0,0,0-.08,0l-2.438.989-.092.023q-.138,0-.184-.184l-.115-.874V-14.4q0-.115.161-.23Zm14.122,2.76a7.559,7.559,0,0,1,.276,2.162v7.176a3.834,3.834,0,0,1-1.242,3A4.669,4.669,0,0,1,23.115.184,4.5,4.5,0,0,1,19.976-.909a3.652,3.652,0,0,1-1.208-2.841v-.322A.2.2,0,0,1,19-4.3h1.173a.2.2,0,0,1,.23.23v.184a2.541,2.541,0,0,0,.759,1.909,2.691,2.691,0,0,0,1.955.736,2.84,2.84,0,0,0,2.047-.771,2.688,2.688,0,0,0,.805-2.035V-7.406a.054.054,0,0,0-.046-.057.056.056,0,0,0-.069.034,3.545,3.545,0,0,1-3.036,1.357,4.318,4.318,0,0,1-2.427-.644,4.017,4.017,0,0,1-1.483-1.817,5.927,5.927,0,0,1-.483-2.622,6.49,6.49,0,0,1,.345-2.3,4.144,4.144,0,0,1,1.552-2.07,4.535,4.535,0,0,1,2.633-.736,4.767,4.767,0,0,1,2.795.793A4.063,4.063,0,0,1,27.324-13.271ZM23.023-7.5a2.9,2.9,0,0,0,1.714-.494,2.565,2.565,0,0,0,.978-1.369,5.439,5.439,0,0,0,.253-1.863A5.9,5.9,0,0,0,25.76-12.9a2.719,2.719,0,0,0-.989-1.4,2.852,2.852,0,0,0-1.748-.529,2.912,2.912,0,0,0-1.7.494A2.661,2.661,0,0,0,20.309-12.9a4.9,4.9,0,0,0-.253,1.748,4.6,4.6,0,0,0,.3,1.84,2.592,2.592,0,0,0,.966,1.322A2.846,2.846,0,0,0,23.023-7.5ZM34.569-9.775a3.261,3.261,0,0,1-1.656-.437A3.313,3.313,0,0,1,31.705-11.4a3.137,3.137,0,0,1-.448-1.644,3.137,3.137,0,0,1,.448-1.644,3.313,3.313,0,0,1,1.207-1.185,3.261,3.261,0,0,1,1.656-.437,3.261,3.261,0,0,1,1.656.437,3.224,3.224,0,0,1,1.2,1.185,3.2,3.2,0,0,1,.437,1.644,3.2,3.2,0,0,1-.437,1.644,3.224,3.224,0,0,1-1.2,1.184A3.261,3.261,0,0,1,34.569-9.775ZM34.04,0a.194.194,0,0,1-.184-.08.187.187,0,0,1,.023-.2L42.6-15.939a.334.334,0,0,1,.276-.161h.736a.194.194,0,0,1,.184.08.187.187,0,0,1-.023.2L35.075-.161A.27.27,0,0,1,34.8,0Zm.529-10.833a2.092,2.092,0,0,0,1.552-.644,2.149,2.149,0,0,0,.632-1.564,2.149,2.149,0,0,0-.632-1.564,2.092,2.092,0,0,0-1.552-.644,2.149,2.149,0,0,0-1.564.632,2.119,2.119,0,0,0-.644,1.576,2.129,2.129,0,0,0,.644,1.564A2.129,2.129,0,0,0,34.569-10.833ZM43.217.207A3.261,3.261,0,0,1,41.561-.23a3.285,3.285,0,0,1-1.207-1.2A3.2,3.2,0,0,1,39.9-3.082,3.1,3.1,0,0,1,40.354-4.7a3.313,3.313,0,0,1,1.207-1.185,3.261,3.261,0,0,1,1.656-.437,3.218,3.218,0,0,1,1.633.437,3.224,3.224,0,0,1,1.2,1.185,3.157,3.157,0,0,1,.437,1.622,3.261,3.261,0,0,1-.437,1.656,3.224,3.224,0,0,1-1.184,1.2A3.2,3.2,0,0,1,43.217.207Zm0-1.058a2.092,2.092,0,0,0,1.553-.644A2.177,2.177,0,0,0,45.4-3.082a2.092,2.092,0,0,0-.644-1.553,2.122,2.122,0,0,0-1.541-.633,2.177,2.177,0,0,0-1.587.633,2.092,2.092,0,0,0-.644,1.553,2.157,2.157,0,0,0,.644,1.587A2.157,2.157,0,0,0,43.217-.851Z" transform="translate(1327.004 5617.87)" fill="#5c5a56"/>
    <path id="Trazado_2077" data-name="Trazado 2077" d="M11.707,0a.268.268,0,0,1-.276-.184l-.92-2.9a.09.09,0,0,0-.092-.069H3.542a.09.09,0,0,0-.092.069l-.92,2.9A.268.268,0,0,1,2.254,0H1.012Q.759,0,.828-.253L5.911-15.916a.268.268,0,0,1,.276-.184H7.751a.268.268,0,0,1,.276.184L13.133-.253l.023.092q0,.161-.207.161ZM3.91-4.6a.064.064,0,0,0,.011.08A.11.11,0,0,0,4-4.485H9.936a.11.11,0,0,0,.08-.035.064.064,0,0,0,.012-.08l-2.99-9.384a.074.074,0,0,0-.069-.046.074.074,0,0,0-.069.046ZM16.031,0a.2.2,0,0,1-.23-.23V-15.87a.2.2,0,0,1,.23-.23H17.2a.2.2,0,0,1,.23.23V-.23A.2.2,0,0,1,17.2,0Zm9.453.184a4.694,4.694,0,0,1-2.84-.863,4.32,4.32,0,0,1-1.622-2.335,10.561,10.561,0,0,1-.3-2.852,11.311,11.311,0,0,1,.3-2.806,4.182,4.182,0,0,1,1.61-2.288,4.745,4.745,0,0,1,2.852-.862,4.987,4.987,0,0,1,2.91.851,3.862,3.862,0,0,1,1.6,2.116,3.882,3.882,0,0,1,.138.69v.046q0,.161-.207.207l-1.15.161h-.046q-.161,0-.207-.207L28.451-8.3a2.585,2.585,0,0,0-1.012-1.483,3.145,3.145,0,0,0-1.955-.609,3,3,0,0,0-1.92.609,2.787,2.787,0,0,0-1,1.622,10.457,10.457,0,0,0-.207,2.323A10.218,10.218,0,0,0,22.563-3.5a2.8,2.8,0,0,0,1,1.644,3,3,0,0,0,1.92.61,3.243,3.243,0,0,0,1.944-.586,2.484,2.484,0,0,0,1.024-1.506v-.092l.023-.092q.023-.23.276-.184l1.127.184q.23.046.207.253l-.092.46A3.643,3.643,0,0,1,28.4-.644,5.142,5.142,0,0,1,25.484.184ZM37.076-11.822a4.494,4.494,0,0,1,3.2,1.058A3.667,3.667,0,0,1,41.4-7.958V-.23a.2.2,0,0,1-.23.23H40a.2.2,0,0,1-.23-.23v-.943a.077.077,0,0,0-.035-.069q-.034-.023-.08.023A3.592,3.592,0,0,1,38.157-.172,5.624,5.624,0,0,1,36.11.184a4.432,4.432,0,0,1-2.737-.828,2.958,2.958,0,0,1-1.1-2.53A3.3,3.3,0,0,1,33.522-5.9a5.448,5.448,0,0,1,3.485-1h2.668a.081.081,0,0,0,.092-.092v-.874a2.552,2.552,0,0,0-.655-1.852,2.717,2.717,0,0,0-2.035-.678,3.378,3.378,0,0,0-1.794.425,1.782,1.782,0,0,0-.851,1.184.244.244,0,0,1-.276.207L32.913-8.74q-.253-.046-.207-.184a2.966,2.966,0,0,1,1.38-2.093A5.239,5.239,0,0,1,37.076-11.822Zm-.644,10.6A4.045,4.045,0,0,0,38.778-1.9a2.111,2.111,0,0,0,.989-1.829V-5.52a.081.081,0,0,0-.092-.092H37.26a4.288,4.288,0,0,0-2.438.621,1.969,1.969,0,0,0-.92,1.725,1.78,1.78,0,0,0,.7,1.53A3,3,0,0,0,36.432-1.219Zm13.2-10.58a3.987,3.987,0,0,1,2.933,1.081,3.893,3.893,0,0,1,1.092,2.9V-.23a.2.2,0,0,1-.23.23H52.256a.2.2,0,0,1-.23-.23V-7.5a2.871,2.871,0,0,0-.771-2.07,2.631,2.631,0,0,0-1.99-.805,2.768,2.768,0,0,0-2.047.782,2.768,2.768,0,0,0-.782,2.047V-.23a.2.2,0,0,1-.23.23H45.034a.2.2,0,0,1-.23-.23V-11.408a.2.2,0,0,1,.23-.23h1.173a.2.2,0,0,1,.23.23v.989a.077.077,0,0,0,.035.069q.034.023.057-.023A3.55,3.55,0,0,1,49.634-11.8ZM61.433.184a4.694,4.694,0,0,1-2.84-.863,4.32,4.32,0,0,1-1.621-2.335,10.561,10.561,0,0,1-.3-2.852,11.311,11.311,0,0,1,.3-2.806,4.182,4.182,0,0,1,1.61-2.288,4.745,4.745,0,0,1,2.852-.862,4.987,4.987,0,0,1,2.91.851,3.862,3.862,0,0,1,1.6,2.116,3.882,3.882,0,0,1,.138.69v.046q0,.161-.207.207l-1.15.161h-.046q-.161,0-.207-.207L64.4-8.3a2.585,2.585,0,0,0-1.012-1.483,3.145,3.145,0,0,0-1.955-.609,3,3,0,0,0-1.92.609,2.787,2.787,0,0,0-1,1.622,10.457,10.457,0,0,0-.207,2.323A10.218,10.218,0,0,0,58.512-3.5a2.8,2.8,0,0,0,1,1.644,3,3,0,0,0,1.92.61,3.243,3.243,0,0,0,1.944-.586A2.484,2.484,0,0,0,64.4-3.335v-.092l.023-.092q.023-.23.276-.184l1.127.184q.23.046.207.253l-.092.46A3.643,3.643,0,0,1,64.354-.644,5.142,5.142,0,0,1,61.433.184ZM77.855-7.774a11.7,11.7,0,0,1,.092,1.61v.736a.2.2,0,0,1-.23.23H70.288a.081.081,0,0,0-.092.092,10.266,10.266,0,0,0,.138,1.633A2.751,2.751,0,0,0,71.415-1.84a3.525,3.525,0,0,0,2.116.6,3.27,3.27,0,0,0,1.7-.437,3.006,3.006,0,0,0,1.15-1.242q.138-.207.322-.092l.9.529a.229.229,0,0,1,.092.322A4.138,4.138,0,0,1,75.969-.426a5.4,5.4,0,0,1-2.645.632,4.843,4.843,0,0,1-2.737-.782A4.194,4.194,0,0,1,69-2.691a9.446,9.446,0,0,1-.414-3.174q0-.966.035-1.576a5.018,5.018,0,0,1,.173-1.092,4.26,4.26,0,0,1,1.575-2.392,4.606,4.606,0,0,1,2.864-.9,4.529,4.529,0,0,1,3.22,1.058A4.9,4.9,0,0,1,77.855-7.774ZM73.232-10.4a2.944,2.944,0,0,0-1.874.587,2.717,2.717,0,0,0-.978,1.575A7.448,7.448,0,0,0,70.2-6.67a.081.081,0,0,0,.092.092h5.957a.081.081,0,0,0,.092-.092A10.34,10.34,0,0,0,76.2-8.142a2.906,2.906,0,0,0-1.023-1.644A3.036,3.036,0,0,0,73.232-10.4ZM93.84-7.613a7.107,7.107,0,0,1,.46,2.691,6.62,6.62,0,0,1-.345,2.231A4.032,4.032,0,0,1,92.4-.563a4.674,4.674,0,0,1-2.7.748,4.553,4.553,0,0,1-2.76-.84,4.27,4.27,0,0,1-1.587-2.266A6.85,6.85,0,0,1,85.1-4.669a.2.2,0,0,1,.23-.23H86.5a.2.2,0,0,1,.23.23,9.772,9.772,0,0,0,.161,1.242,2.887,2.887,0,0,0,.978,1.6,2.777,2.777,0,0,0,1.805.586,2.565,2.565,0,0,0,2.691-1.84,5.567,5.567,0,0,0,.276-1.886,5.866,5.866,0,0,0-.368-2.254,2.622,2.622,0,0,0-2.6-1.656,2,2,0,0,0-.851.253.353.353,0,0,1-.138.046.194.194,0,0,1-.161-.115l-.6-.8a.236.236,0,0,1,.023-.322L92-14.559q.069-.115-.046-.115H85.468a.2.2,0,0,1-.23-.23v-.966a.2.2,0,0,1,.23-.23h8.51a.2.2,0,0,1,.23.23v1.127a.506.506,0,0,1-.115.276l-3.68,4.416q-.046.046-.023.081a.1.1,0,0,0,.092.035A3.6,3.6,0,0,1,93.84-7.613Z" transform="translate(1065.586 5659.231)" fill="#5c5a56"/>
    <path id="Trazado_2078" data-name="Trazado 2078" d="M3.473,0A.2.2,0,0,1,3.3-.08a.194.194,0,0,1-.011-.2L8.6-14.559a.076.076,0,0,0,0-.08.077.077,0,0,0-.069-.035H2.323a.081.081,0,0,0-.092.092v1.058a.2.2,0,0,1-.23.23H1.058a.2.2,0,0,1-.23-.23L.851-15.87a.2.2,0,0,1,.23-.23h9.062a.2.2,0,0,1,.23.23v1.058a1.258,1.258,0,0,1-.046.276L5.037-.184A.268.268,0,0,1,4.761,0ZM21.919-5.911a.2.2,0,0,1,.23.23v1.012a.2.2,0,0,1-.23.23H20.93a.081.081,0,0,0-.092.092V-.23a.2.2,0,0,1-.23.23H19.435a.2.2,0,0,1-.23-.23V-4.347a.081.081,0,0,0-.092-.092H12.236a.2.2,0,0,1-.23-.23V-5.52a.724.724,0,0,1,.069-.276L16.79-15.939a.252.252,0,0,1,.253-.161h1.219a.2.2,0,0,1,.172.08.194.194,0,0,1,.011.2l-4.577,9.8a.076.076,0,0,0,0,.08.077.077,0,0,0,.069.035h5.175A.081.081,0,0,0,19.2-6v-3.7a.2.2,0,0,1,.23-.23h1.173a.2.2,0,0,1,.23.23V-6a.081.081,0,0,0,.092.092ZM25.3,1.817a.194.194,0,0,1-.207-.253L26.1-3.358a.237.237,0,0,1,.253-.207H27.37a.212.212,0,0,1,.173.069.21.21,0,0,1,.035.184L26.289,1.61a.237.237,0,0,1-.253.207ZM39.836-7.567a6.209,6.209,0,0,1,.483,2.622,6.012,6.012,0,0,1-.368,2.3A4.169,4.169,0,0,1,38.41-.575a4.522,4.522,0,0,1-2.645.736,4.764,4.764,0,0,1-2.783-.782A4.142,4.142,0,0,1,31.4-2.829a7.559,7.559,0,0,1-.276-2.162v-7.176a3.834,3.834,0,0,1,1.242-3A4.669,4.669,0,0,1,35.6-16.284,4.519,4.519,0,0,1,38.755-15.2a3.66,3.66,0,0,1,1.2,2.852v.322a.2.2,0,0,1-.23.23H38.548a.2.2,0,0,1-.23-.23v-.184a2.541,2.541,0,0,0-.759-1.909,2.691,2.691,0,0,0-1.955-.736,2.84,2.84,0,0,0-2.047.771,2.688,2.688,0,0,0-.805,2.036v3.381a.054.054,0,0,0,.046.057.056.056,0,0,0,.069-.034,3.546,3.546,0,0,1,3.059-1.38,4.318,4.318,0,0,1,2.427.644A4.017,4.017,0,0,1,39.836-7.567ZM38.41-3.2a4.862,4.862,0,0,0,.276-1.748,4.212,4.212,0,0,0-.322-1.84A2.529,2.529,0,0,0,37.4-8.119,2.9,2.9,0,0,0,35.7-8.6a2.846,2.846,0,0,0-1.7.495,2.587,2.587,0,0,0-.966,1.368,5.248,5.248,0,0,0-.276,1.863,5.218,5.218,0,0,0,.23,1.679,2.744,2.744,0,0,0,.977,1.4,2.84,2.84,0,0,0,1.76.529,2.912,2.912,0,0,0,1.7-.495A2.552,2.552,0,0,0,38.41-3.2Zm6.555,1.656q-.069.115.046.115h7.222a.2.2,0,0,1,.23.23V-.23a.2.2,0,0,1-.23.23H43.056a.2.2,0,0,1-.23-.23V-1.2a.376.376,0,0,1,.115-.276q.782-.92,3.519-4.324l1.7-2.116q2.162-2.737,2.162-4.255a2.488,2.488,0,0,0-.828-1.955,3.133,3.133,0,0,0-2.162-.736,2.986,2.986,0,0,0-2.116.748,2.489,2.489,0,0,0-.782,1.967v.713a.2.2,0,0,1-.23.23h-1.2a.2.2,0,0,1-.23-.23v-.92A3.688,3.688,0,0,1,44.1-15.2a4.827,4.827,0,0,1,3.231-1.081,5.382,5.382,0,0,1,2.438.529,3.934,3.934,0,0,1,1.633,1.46,3.925,3.925,0,0,1,.575,2.1q0,1.955-2.162,4.715-1.127,1.449-4.347,5.336ZM64.009-7.567a6.209,6.209,0,0,1,.483,2.622,6.012,6.012,0,0,1-.368,2.3,4.169,4.169,0,0,1-1.541,2.07,4.522,4.522,0,0,1-2.645.736,4.764,4.764,0,0,1-2.783-.782,4.142,4.142,0,0,1-1.587-2.208,7.558,7.558,0,0,1-.276-2.162v-7.176a3.834,3.834,0,0,1,1.242-3,4.669,4.669,0,0,1,3.243-1.116A4.519,4.519,0,0,1,62.928-15.2a3.66,3.66,0,0,1,1.2,2.852v.322a.2.2,0,0,1-.23.23H62.721a.2.2,0,0,1-.23-.23v-.184a2.541,2.541,0,0,0-.759-1.909,2.691,2.691,0,0,0-1.955-.736,2.84,2.84,0,0,0-2.047.771,2.688,2.688,0,0,0-.8,2.036v3.381a.054.054,0,0,0,.046.057.056.056,0,0,0,.069-.034,3.546,3.546,0,0,1,3.059-1.38,4.318,4.318,0,0,1,2.427.644A4.017,4.017,0,0,1,64.009-7.567ZM62.583-3.2a4.862,4.862,0,0,0,.276-1.748,4.212,4.212,0,0,0-.322-1.84,2.529,2.529,0,0,0-.966-1.334,2.9,2.9,0,0,0-1.7-.483,2.846,2.846,0,0,0-1.7.495A2.587,2.587,0,0,0,57.2-6.739a5.248,5.248,0,0,0-.276,1.863,5.219,5.219,0,0,0,.23,1.679,2.744,2.744,0,0,0,.977,1.4,2.84,2.84,0,0,0,1.76.529,2.912,2.912,0,0,0,1.7-.495A2.552,2.552,0,0,0,62.583-3.2Z" transform="translate(1212.609 5659.231)" fill="#5c5a56"/>
    <path id="Trazado_2079" data-name="Trazado 2079" d="M1.127-6.44A.2.2,0,0,1,.9-6.67v-.966a.2.2,0,0,1,.23-.23H7.935a.2.2,0,0,1,.23.23v.966a.2.2,0,0,1-.23.23Zm18.078-.322a5.325,5.325,0,0,1,.437,2.254,5.113,5.113,0,0,1-.667,2.691A3.816,3.816,0,0,1,17.411-.345a4.993,4.993,0,0,1-2.346.529A5.146,5.146,0,0,1,12.65-.356a3.7,3.7,0,0,1-1.587-1.575,5.227,5.227,0,0,1-.644-2.6,5.574,5.574,0,0,1,.483-2.3,3.53,3.53,0,0,1,1.679-1.725q.115-.046,0-.115a3.637,3.637,0,0,1-1.242-1.173,3.844,3.844,0,0,1-.69-2.254,4.2,4.2,0,0,1,.69-2.346,3.733,3.733,0,0,1,1.529-1.391,4.8,4.8,0,0,1,2.2-.495,4.69,4.69,0,0,1,2.208.495,3.788,3.788,0,0,1,1.5,1.391,4.385,4.385,0,0,1,.667,2.346,4.057,4.057,0,0,1-.69,2.3,3.967,3.967,0,0,1-1.219,1.127q-.115.069,0,.115A3.372,3.372,0,0,1,19.205-6.762Zm-6.578-6.693a2.87,2.87,0,0,0-.368,1.357,2.921,2.921,0,0,0,.483,1.679,2.429,2.429,0,0,0,.955.874,2.922,2.922,0,0,0,1.345.3,2.9,2.9,0,0,0,1.357-.31,2.494,2.494,0,0,0,.966-.885,2.868,2.868,0,0,0,.437-1.679,2.793,2.793,0,0,0-.345-1.38,2.639,2.639,0,0,0-.966-1.023,2.768,2.768,0,0,0-1.472-.38,2.619,2.619,0,0,0-1.426.391A2.681,2.681,0,0,0,12.627-13.455ZM17.434-2.438a3.9,3.9,0,0,0,.575-2.185,4.342,4.342,0,0,0-.368-1.863A2.589,2.589,0,0,0,15.042-8a2.583,2.583,0,0,0-2.53,1.426A4.036,4.036,0,0,0,12.1-4.6,3.881,3.881,0,0,0,12.6-2.507a2.682,2.682,0,0,0,2.461,1.265A2.571,2.571,0,0,0,17.434-2.438ZM31.188-6.762a5.325,5.325,0,0,1,.437,2.254,5.113,5.113,0,0,1-.667,2.691A3.816,3.816,0,0,1,29.394-.345a4.993,4.993,0,0,1-2.346.529,5.146,5.146,0,0,1-2.415-.541,3.7,3.7,0,0,1-1.587-1.575,5.227,5.227,0,0,1-.644-2.6,5.574,5.574,0,0,1,.483-2.3,3.53,3.53,0,0,1,1.679-1.725q.115-.046,0-.115a3.637,3.637,0,0,1-1.242-1.173,3.844,3.844,0,0,1-.69-2.254,4.2,4.2,0,0,1,.69-2.346,3.733,3.733,0,0,1,1.529-1.391,4.8,4.8,0,0,1,2.2-.495,4.69,4.69,0,0,1,2.208.495,3.788,3.788,0,0,1,1.495,1.391,4.385,4.385,0,0,1,.667,2.346,4.057,4.057,0,0,1-.69,2.3,3.967,3.967,0,0,1-1.219,1.127q-.115.069,0,.115A3.372,3.372,0,0,1,31.188-6.762ZM24.61-13.455a2.87,2.87,0,0,0-.368,1.357,2.921,2.921,0,0,0,.483,1.679,2.429,2.429,0,0,0,.955.874,2.922,2.922,0,0,0,1.345.3,2.9,2.9,0,0,0,1.357-.31,2.494,2.494,0,0,0,.966-.885,2.868,2.868,0,0,0,.437-1.679,2.793,2.793,0,0,0-.345-1.38,2.639,2.639,0,0,0-.966-1.023A2.768,2.768,0,0,0,27-14.9a2.619,2.619,0,0,0-1.426.391A2.681,2.681,0,0,0,24.61-13.455ZM29.417-2.438a3.9,3.9,0,0,0,.575-2.185,4.342,4.342,0,0,0-.368-1.863A2.589,2.589,0,0,0,27.025-8,2.583,2.583,0,0,0,24.5-6.578,4.036,4.036,0,0,0,24.081-4.6a3.881,3.881,0,0,0,.506,2.093,2.682,2.682,0,0,0,2.461,1.265A2.571,2.571,0,0,0,29.417-2.438ZM38.5-9.775a3.261,3.261,0,0,1-1.656-.437A3.313,3.313,0,0,1,35.639-11.4a3.137,3.137,0,0,1-.449-1.644,3.137,3.137,0,0,1,.449-1.644,3.313,3.313,0,0,1,1.208-1.185,3.261,3.261,0,0,1,1.656-.437,3.261,3.261,0,0,1,1.656.437,3.224,3.224,0,0,1,1.2,1.185,3.2,3.2,0,0,1,.437,1.644,3.2,3.2,0,0,1-.437,1.644,3.224,3.224,0,0,1-1.2,1.184A3.261,3.261,0,0,1,38.5-9.775ZM37.973,0a.194.194,0,0,1-.184-.08.187.187,0,0,1,.023-.2l8.717-15.663a.334.334,0,0,1,.276-.161h.736a.194.194,0,0,1,.184.08.187.187,0,0,1-.023.2L39.008-.161A.27.27,0,0,1,38.732,0ZM38.5-10.833a2.092,2.092,0,0,0,1.553-.644,2.149,2.149,0,0,0,.632-1.564,2.149,2.149,0,0,0-.632-1.564,2.092,2.092,0,0,0-1.553-.644,2.149,2.149,0,0,0-1.564.632,2.119,2.119,0,0,0-.644,1.576,2.129,2.129,0,0,0,.644,1.564A2.129,2.129,0,0,0,38.5-10.833ZM47.15.207A3.261,3.261,0,0,1,45.494-.23a3.285,3.285,0,0,1-1.208-1.2,3.2,3.2,0,0,1-.448-1.656A3.1,3.1,0,0,1,44.286-4.7a3.313,3.313,0,0,1,1.208-1.185,3.261,3.261,0,0,1,1.656-.437,3.218,3.218,0,0,1,1.633.437,3.224,3.224,0,0,1,1.2,1.185,3.157,3.157,0,0,1,.437,1.622,3.261,3.261,0,0,1-.437,1.656,3.224,3.224,0,0,1-1.184,1.2A3.2,3.2,0,0,1,47.15.207Zm0-1.058A2.092,2.092,0,0,0,48.7-1.495a2.177,2.177,0,0,0,.632-1.587,2.092,2.092,0,0,0-.644-1.553,2.122,2.122,0,0,0-1.541-.633,2.177,2.177,0,0,0-1.587.633,2.092,2.092,0,0,0-.644,1.553,2.157,2.157,0,0,0,.644,1.587A2.157,2.157,0,0,0,47.15-.851Z" transform="translate(1322.865 5659.231)" fill="#5c5a56"/>
  </g>
</svg>
