<svg id="Capa_1" data-name="Capa 1" xmlns="http://www.w3.org/2000/svg" viewBox="0 0 682 51.86"><defs><style>.cls-1,.cls-3{fill:#ff521d;}.cls-1,.cls-2{isolation:isolate;}.cls-1,.cls-2,.cls-4{opacity:0.16;}</style></defs><path id="Trazado_1047" data-name="Trazado 1047" class="cls-1" d="M85.87,8.68,61,51.81h49.8Zm0,6.73,19.08,33H96.62L85.87,29.83,75.12,48.42H66.8Zm6.87,33H79l6.86-11.9Z"/><path id="Trazado_1048" data-name="Trazado 1048" class="cls-1" d="M339.78,0,315,23.58,290.11,0V51.81L315,28.22l24.83,23.59ZM293.47,44V7.84l19,18.06h0Zm42.95,0-19-18.07h0l19-18.07Z"/><path id="Trazado_1049" data-name="Trazado 1049" class="cls-1" d="M37.29,51.81,19.53,21.06a7.45,7.45,0,1,0-1.78,0L0,51.81ZM5.83,48.42,18.64,26.26,31.45,48.42Zm8.72-34.75a4.09,4.09,0,1,1,4.09,4.09h0A4.09,4.09,0,0,1,14.55,13.67Z"/><g id="Grupo_1016" data-name="Grupo 1016" class="cls-2"><path id="Trazado_1050" data-name="Trazado 1050" class="cls-3" d="M469.74,8.68l-24.9,43.13h49.8Zm0,6.73,19.08,33H450.67Z"/><path id="Trazado_1051" data-name="Trazado 1051" class="cls-3" d="M469.75,25.9a3.53,3.53,0,1,0,3.54,3.52,3.53,3.53,0,0,0-3.54-3.52Z"/><path id="Trazado_1052" data-name="Trazado 1052" class="cls-3" d="M476.79,37.82a3.53,3.53,0,1,0,3.5,3.56h0a3.53,3.53,0,0,0-3.53-3.52Z"/><path id="Trazado_1053" data-name="Trazado 1053" class="cls-3" d="M462.69,37.82a3.53,3.53,0,1,0,3.53,3.53h0A3.53,3.53,0,0,0,462.69,37.82Z"/></g><path id="Trazado_1054" data-name="Trazado 1054" class="cls-1" d="M188.53,7.42H134.47v3.36h25.82l-23.69,41h49.8l-23.69-41h25.82Zm-46.1,41,19.07-33,19.07,33Z"/><path id="Trazado_1055" data-name="Trazado 1055" class="cls-1" d="M419.86,8.63h-49.8l12.46,21.59L370.06,51.81h49.8L407.4,30.22Zm-14.4,18.23L396.88,12H414Zm-1.94,3.36L395,45l-8.56-14.81L395,15.42ZM375.89,12h17.16l-8.58,14.87Zm8.58,21.59,8.58,14.84H375.89ZM414,48.42H396.88l8.58-14.87Z"/><g id="Grupo_1017" data-name="Grupo 1017" class="cls-2"><path id="Trazado_1056" data-name="Trazado 1056" class="cls-3" d="M539,7.69a22.06,22.06,0,1,0,22,22.12v-.06A22.06,22.06,0,0,0,539,7.69"/></g><path id="Trazado_1057" data-name="Trazado 1057" class="cls-3" d="M602.34,18.42l-.83-.12,8.16-14.17H590l8.18,14.15-.84.12a16.82,16.82,0,1,0,5,0Zm-6.66-11H604l-4.17,7.23Zm4.17,41.18a13.55,13.55,0,1,1-.18-27.1h.38a13.55,13.55,0,1,1-.2,27.1Z"/><g id="Grupo_1018" data-name="Grupo 1018" class="cls-4"><path id="Trazado_1058" data-name="Trazado 1058" class="cls-3" d="M660.44,8.67A21.57,21.57,0,1,0,682,30.25h0A21.57,21.57,0,0,0,660.44,8.67Zm0,39.88a18.31,18.31,0,1,1,18.3-18.32h0A18.32,18.32,0,0,1,660.44,48.55Z"/><path id="Trazado_1059" data-name="Trazado 1059" class="cls-3" d="M660.44,19.61a3.7,3.7,0,1,0,3.7,3.7h0a3.7,3.7,0,0,0-3.7-3.7Z"/><path id="Trazado_1060" data-name="Trazado 1060" class="cls-3" d="M667.83,32.12a3.7,3.7,0,1,0,3.7,3.7h0a3.7,3.7,0,0,0-3.7-3.7Z"/><path id="Trazado_1061" data-name="Trazado 1061" class="cls-3" d="M653,32.12a3.7,3.7,0,1,0,3.7,3.7h0a3.7,3.7,0,0,0-3.7-3.7Z"/></g><g id="Grupo_1019" data-name="Grupo 1019" class="cls-2"><path id="Trazado_1062" data-name="Trazado 1062" class="cls-3" d="M237.12,8.68l-24.9,43.13H262Zm0,6.73,19.08,33H218.05Z"/><path id="Trazado_1063" data-name="Trazado 1063" class="cls-3" d="M237.12,33.51A3.53,3.53,0,1,0,240.65,37v0h0A3.53,3.53,0,0,0,237.12,33.51Z"/></g></svg>